<?xml version="1.0" encoding="UTF-8"?>
<svg id="_Слой_2" data-name="Слой 2" xmlns="http://www.w3.org/2000/svg" viewBox="0 0 997.33 997.2">
  <defs>
    <style>
      .cls-1 {
        fill: #f9fafc;
      }

      .cls-2 {
        fill: #035782;
      }

      .cls-3 {
        fill: #00527c;
      }

      .cls-4 {
        fill: #00547f;
      }

      .cls-5 {
        fill: #00527b;
      }

      .cls-6 {
        fill: #08c;
      }

      .cls-7 {
        fill: #0087cb;
      }

      .cls-8 {
        fill: #eac49a;
      }

      .cls-9 {
        fill: #ebc59b;
      }

      .cls-10 {
        fill: #ebc59a;
      }

      .cls-11 {
        fill: #ef4c7d;
      }

      .cls-12 {
        fill: #c5786b;
      }

      .cls-13 {
        fill: #161b23;
      }

      .cls-14 {
        fill: #14a7fb;
      }

      .cls-15 {
        fill: #120f0e;
      }

      .cls-16 {
        fill: #1aacff;
      }

      .cls-17 {
        fill: #1c1815;
      }

      .cls-18 {
        fill: #4a64a1;
      }
    </style>
  </defs>
  <g id="_Слой_2-2" data-name="Слой 2">
    <g>
      <path class="cls-4" d="M.07,483.14c0-4.32-.02-8.63-.03-12.95,2.83-51.26,13.36-100.88,31.59-148.86,22.07-58.08,53.77-110.26,95.33-156.49,57.23-63.66,126.29-109.64,206.94-137.94C377.94,11.44,423.39,2.18,470.15,0c17.46,0,34.91,0,52.37,0,40.2,1.34,79.47,8.3,117.94,19.81,61.11,18.29,116.88,46.94,166.83,86.71,94.39,75.15,153.46,172.27,179.42,289.74,8.01,36.24,11.21,73.12,10.53,110.2-1.02,55.29-10.64,109.19-29.66,161.14-27.94,76.32-71.53,142.39-131.5,197.51-70.93,65.18-154.03,106.08-248.42,123.9-46.99,8.87-94.43,10.37-142.1,5.24-38.87-4.18-76.74-12.6-113.53-25.6-33.67-11.89-65.72-27.3-96.14-46.17-35.09-21.77-67.06-47.32-95.77-76.97-64.46-66.59-106.61-145.32-128.15-235.29-6.41-26.78-9.75-54-11.98-81.4,.02-4.3,.04-8.6,.05-12.9,0-10.94,.01-21.88,.02-32.81Z"/>
      <path class="cls-7" d="M499.7,988.53c-269.58,.61-489.97-218.63-489.06-490.22C11.55,229.66,228.26,10.38,500.65,10.84c269.54,.45,488.34,218.31,487.73,490.33-.59,269.19-218.69,487.48-488.68,487.36Z"/>
      <path class="cls-5" d="M502.95,953.3c-67.86-.8-132.63-14.95-193.83-44.68-17.32-8.41-34.12-17.69-50.21-28.26-1.08-.71-2.21-1.37-3.23-2.16-1.84-1.44-3.3-3.37-1.6-5.5,1.5-1.88,3.17,.07,4.49,.9,11.34,7.12,22.74,14.12,34.5,20.58,39.12,21.49,80.72,35.89,124.33,44.97,37.92,7.9,76.31,9.69,114.72,7.42,50.54-2.99,99.2-14.98,145.77-35.16,38.12-16.52,73.34-37.84,105.38-64.17,40.76-33.5,74.44-73.16,101.02-118.84,22.66-38.94,38.91-80.36,48.99-124.24,2.51-10.91,4.76-21.88,5.99-33.03,.12-1.06,.21-2.2,.66-3.13,.78-1.6,2.04-3.08,4.01-2.64,2.44,.54,1.8,2.75,1.52,4.29-2.56,13.76-4.71,27.62-7.99,41.21-15.31,63.51-43.29,121.04-83.67,172.32-37.06,47.06-82.04,84.99-134.5,114.08-39.4,21.85-81.16,37.35-125.18,46.5-22.77,4.73-45.8,8.14-69.2,8.61-7.3,.15-14.62,1.1-21.97,.95Z"/>
      <path class="cls-3" d="M56.14,505.98c.84-63.1,13-123.75,38.96-181.48,7.28-16.19,15.28-31.98,24.5-47.13,1.38-2.27,2.43-7.19,5.48-5.54,3.24,1.75,.84,5.85-.85,8.6-7.14,11.6-13.33,23.71-19.2,35.99-18.36,38.41-30.94,78.58-37.5,120.68-3.16,20.3-4.7,40.63-5.21,61.16-1.31,52.09,6.75,102.65,23.69,151.8,17.19,49.9,42.45,95.36,76.13,136.09,21.29,25.75,45.11,48.88,71.38,69.49,1.92,1.51,4.47,2.76,2.18,5.53-2.23,2.7-3.99-.13-5.4-1.26-8.76-7.01-17.66-13.88-25.95-21.42-32.14-29.22-59.83-62.18-82.5-99.31-27.39-44.87-46.16-93.09-56.62-144.57-2.96-14.57-5.32-29.23-6.59-44.06-1.26-14.84-2.69-29.65-2.5-44.58Z"/>
      <path class="cls-3" d="M949.53,505.7c.33,16.86-.25,32.37-2.45,47.79-.3,2.11-.08,5-3.13,4.58-2.83-.4-2.36-3.32-2.14-5.36,2.1-19.56,3.18-39.17,2.43-58.83-1.44-38.04-7.12-75.42-17.9-112.01-15.75-53.46-40.62-102.28-74.85-146.16-36-46.15-79.32-84.06-130.45-112.85-16.59-9.34-33.58-17.82-51.25-24.93-1-.4-2-.84-2.94-1.37-1.49-.84-3.37-1.66-2.2-3.87,.99-1.86,2.89-1.89,4.58-1.25,3.43,1.31,6.78,2.82,10.14,4.3,42.22,18.49,81,42.41,115.85,72.71,47.79,41.56,85.35,90.84,112.36,148.08,18.91,40.06,31.33,82.2,37.75,125.98,3.13,21.33,5.07,42.85,4.19,63.2Z"/>
      <path class="cls-3" d="M503.64,59.91c35.58-.85,70.46,4.41,105.04,12.19,1.26,.28,2.51,.6,3.76,.93,1.94,.51,4.19,1.32,3.65,3.62-.61,2.61-2.79,2.38-5.23,1.85-12.19-2.67-24.4-5.33-36.69-7.49-13.57-2.39-27.28-3.74-41.04-4.78-12.95-.98-25.88-1.32-38.83-1.04-55.56,1.2-109.05,12.39-160.38,33.73-46.48,19.32-88.5,45.68-125.82,79.54-11.54,10.47-22.83,21.12-32.92,33-.84,.99-1.78,1.89-2.74,2.76-1.14,1.03-2.48,2.16-3.95,.85-1.31-1.17-1.03-2.94-.11-4.17,2.06-2.77,4.24-5.47,6.6-7.98,36.68-39.13,78.69-71.28,126.62-95.38,41.89-21.07,86.02-35.47,132.49-42.54,23.08-3.52,46.22-5.6,69.57-5.09Z"/>
      <path class="cls-3" d="M161.18,226.29c-.59,1.07-1.21,2.72-2.27,4.03-7.85,9.7-15.2,19.77-22.19,30.1-1.29,1.91-2.74,4.85-5.44,3-2.83-1.94-.2-4.32,.99-6.09,7.4-11.09,14.97-22.07,23.91-32.02,.94-1.05,1.75-2.7,3.59-2.21,1.21,.32,1.38,1.51,1.41,3.18Z"/>
    </g>
  </g>
  <g id="_Слой_1-2" data-name="Слой 1">
    <g>
      <path class="cls-15" d="M584.33,693.27c.7,.88,1.75,1.12,2.66,1.54,16.78,7.61,26.71,21,31.86,38.22,1.24,4.14,2.67,7.7,6.2,10.52,3.41,2.71,5.65,6.53,7.33,10.6,1.8,4.36,2.07,8.78,.78,13.32-.77,2.7-.76,2.72,1.37,4.28,2.93,2.16,5.47,4.7,7.49,7.76,3.81,5.76,4.56,12.09,3.42,18.72-.61,3.55-1.37,7.11-3.05,10.35-.55,1.06-.32,1.75,.51,2.4,.41,.32,.84,.61,1.28,.87,3.99,2.37,6.01,6.05,7.17,10.41,1.61,6.09,1.37,12.28,1.29,18.47-.05,3.41-.43,6.8-.96,10.17-.88,5.61-3.18,10.67-6.42,15.29-4.3,6.11-9.4,11.51-15.18,16.26-6.3,5.17-13.78,7.21-21.65,8.42-9.71,1.49-19.09-.08-28.46-2.47-14.33-3.66-27.33-9.9-38.63-19.51-5.28-4.5-10.07-9.5-14.34-14.97-.99-1.27-1.59-1.47-3.18-.66-15.08,7.64-30.76,13.64-47.53,16.32-6.21,1-12.52,1.24-18.82,1.5-18.93,.78-37.48-1.34-55.77-6.29-29.51-7.98-58.01-18.49-84.82-33.29-17.07-9.42-32.63-21-47.04-34.12-6.57-5.98-13.02-12.1-18.85-18.82-7.13-8.22-13.3-17.12-18.36-26.77-3.07-5.85-6.23-11.66-8.17-18.03-.39-1.28-.78-2.57-1.06-3.88-.71-3.32,0-4.97,3-6.67,2.96-1.68,6.01-3.21,9-4.85,15.06-8.23,30.35-15.95,46.96-20.64,3.28-.93,5.65-2.96,7.2-5.92,1.05-2.02,3.1-3.28,3.95-5.43,.03-.08,.14-.18,.23-.19,2.98-.53,3.12-3.19,3.92-5.31,6.55-17.39,12.05-35.16,18.93-52.43,5.27-13.23,10.76-26.38,16.9-39.25,1.02-2.13,2.63-4.35,2.59-6.51-.04-2.02-1.9-4.01-2.97-6.01-5.93-11.04-9.47-22.85-11.16-35.22-.63-4.65-.11-9.29,1.09-13.81,.48-1.81,.1-3.06-1.09-4.47-2.47-2.91-4.77-5.97-7.03-9.05-5.38-7.31-8.15-15.71-10.07-24.45-1.37-6.26-2.4-12.57-2.84-18.97-.7-10.31,.22-20.42,3.62-30.23,1.33-3.83,3.15-7.4,5.54-10.69,.9-1.24,2.01-2.38,2.17-4.03,.03-.29,.18-.71,.39-.81,2.42-1.2,1.76-3.39,1.77-5.35,.02-4.65-.48-9.28-.65-13.92-.7-19.51,1.62-38.73,5.73-57.77,.65-3.02,1.33-6.04,1.9-9.08,.54-2.83-.16-3.7-3-4-4.4-.46-6.08-1.92-6.85-6.2-.51-2.84-.89-5.7-1.01-8.6-.65-15.67,1.1-31.12,3.92-46.49,2.55-13.9,4.86-27.85,8.43-41.54,3.73-14.3,8.32-28.31,14.34-41.83,2.69-6.05,5.87-11.82,9.69-17.26,5.39-7.67,12.36-13.54,20.4-18.21,1.27-.74,1.96-1.44,2.09-3.02,.24-2.89,1.18-5.66,2.53-8.24,5.63-10.77,13.37-19.53,24.07-25.56,7.24-4.09,14.77-4.94,22.7-2.6,5.92,1.75,11.34,4.45,15.87,8.71,1.08,1.01,2.04,1.13,3.33,.61,10.73-4.34,21.96-7.19,32.94-10.79,10.79-3.54,22-5.57,33.19-7.43,14.79-2.45,29.71-3.66,44.72-3.34,18.95,.4,37.62,2.82,55.98,7.7,13.1,3.49,25.82,7.93,38.24,13.37,15.43,6.76,27.83,17.28,38.13,30.38,12.25,15.58,20.96,33.07,27.37,51.78,3.05,8.92,4.82,18.13,6.83,27.3,3.72,16.95,6.07,34.12,8.73,51.24,.49,3.16,1.28,6.27,1.85,9.41,.25,1.35,1.15,2.13,2.11,2.94,7.74,6.56,14.77,13.83,21.49,21.41,8.03,9.06,14.51,19.05,18.2,30.67,1.22,3.85,2.03,7.8,1.82,11.87-.37,7.25-4.66,12.22-10.05,16.32-6.89,5.25-14.96,7.3-23.47,7.66-2.06,.09-3.06,.62-3.87,2.56-4.2,10.07-11.79,17.05-21.1,22.29-1.95,1.1-3.2,2.39-3.8,4.53-.56,1.99-1.45,3.96-2.78,5.5-1.95,2.28-2.42,4.92-2.78,7.69-.42,3.27-.82,6.55-1.36,9.81-.52,3.16-1.65,6.2-2.68,9.19-1.44,4.2-2.52,8.5-3.93,12.7-2.05,6.12-4.76,11.9-8.57,17.1-1.22,1.67-1.65,3.31-1.35,5.18,1.24,7.58,.09,14.97-1.28,22.43-2.49,13.6-6.65,26.65-12.51,39.11-4.3,9.14-8.62,18.32-14.83,26.42-2.08,2.71-4.3,5.29-6.68,7.73-6.5,6.66-12.38,13.85-17.94,21.3-3.27,4.39-5.79,9.29-8.49,14.04-5.09,8.97-10.36,17.86-14.79,27.2-2.17,4.58-3.9,9.33-5.49,14.13-2.85,8.63-6.29,17.04-10.04,25.32-1.8,3.98-4.15,7.6-6.81,11.05-.68,.88-1.59,1.64-1.69,2.87Zm111.16-511.66c-.1-.47-.23-.93-.7-1.19-.02-.38-.09-.74-.49-.91-.04-.02-.19,.11-.2,.18-.08,.41,.08,.73,.44,.95,.04,.49,.15,.96,.59,1.26,.04,.5,.17,.95,.58,1.28,.51,1.46,1.01,2.92,1.52,4.37,4,11.31,6.7,22.95,8.77,34.75,2.75,15.69,4.34,31.47,4.12,47.41-.01,.92-.01,1.88-.23,2.76-.47,1.92-2.75,3.3-4.44,2.66-5.42-2.04-11.06-3.29-16.59-4.94-11.66-3.48-23.31-6.99-35.01-10.34-14.79-4.23-29.85-7.27-45.02-9.76-12.72-2.09-25.49-3.87-38.31-5.24-8.31-.89-16.59-1.94-24.9-2.77-6.57-.66-13.18-1.38-19.76-.57-2.54,.31-3.52-1.55-3.02-3.62,1.22-5.03,1.74-10.16,2.31-15.28,1.08-9.74,1.85-19.51,2.15-29.31,.35-11.56-.08-23.11-1.18-34.63-.78-8.12-1.8-16.2-4.53-23.95-.65-1.85-.04-3.22,1.12-4.51,.94-1.04,2.21-1.46,3.55-1.75,3.45-.74,6.96-.96,10.46-.97,7.64-.02,15.24,.69,22.83,1.55,13.86,1.57,27.52,4.19,41.02,7.64,12.19,3.12,24.26,6.67,36.24,10.54,15.15,4.9,29.9,10.76,43.7,18.83,2.76,1.61,5.35,3.51,8.29,4.81,.23,.41,.44,.83,.94,.96-.02,.52,0,1.03,.42,1.42,.11,.47,.26,.92,.74,1.15,.17,.24,.34,.48,.51,.72,.07,.48,.2,.93,.7,1.15,.06,.49,.18,.95,.7,1.17,.08,.15,.17,.3,.25,.44,.07-.1,.14-.2,.21-.29-.14-.06-.29-.12-.43-.18,.21-.59,0-1.02-.49-1.35,0-.52-.16-.96-.63-1.24-.18-.24-.37-.47-.55-.71,.03-.52-.19-.92-.59-1.24-.13-.47-.21-.99-.88-1,.18-.57,0-1.02-.46-1.38-1.37-3.27-3.53-6.06-5.59-8.88-9.95-13.71-21.71-25.37-37.22-32.84-13.16-6.34-26.86-11.1-40.94-14.89-17.02-4.58-34.34-6.93-51.9-7.68-8.88-.38-17.76-.08-26.61,.71-6.26,.56-12.51,1.19-18.74,2.11-8.28,1.22-16.38,3.27-24.57,4.89-4.05,.8-8.05,1.82-11.94,3.22-1.75,.63-1.77,.77-.8,2.36,.21,.35,.47,.68,.69,1.03,3.12,4.91,5.75,10.03,6.58,15.88,.39,2.75,.81,5.5,.8,8.31-.04,5.77,.92,11.53,.1,17.31-.16,1.13-.16,2.27-.84,3.26-.31,.44-.72,.81-1.28,.68-.69-.16-1.05-.71-.94-1.39,.2-1.22,.51-2.41,.51-3.67,.02-7.43,.19-14.86-.65-22.27-.76-6.64-3.4-12.49-7.15-17.91-1.02-1.47-2.26-1.89-4-1.32-3.13,1.04-6.33,1.89-9.47,2.89-5.4,1.73-10.81,3.41-16.14,5.33-2.9,1.04-5.59,2.68-8.48,3.76-19.73,7.4-38.78,16.36-58.1,24.73-7.48,3.24-13.67,8.47-18.94,14.68-5.8,6.84-9.92,14.71-13.43,22.89-6.76,15.79-11.9,32.12-15.52,48.89-3.59,16.63-6.56,33.37-8.87,50.24-1.33,9.68-1.05,19.36-.98,29.05,.01,2.05,.37,4.11,.71,6.14,.62,3.69,5.67,5.55,8.42,2.95,1.51-1.43,3.18-2.59,4.73-3.94,5.72-4.97,12.14-8.88,18.98-12.14,13.02-6.22,26.74-10.29,40.77-13.43,15.01-3.36,30.2-5.5,45.51-6.99,12.74-1.24,25.51-1.86,38.29-2.22,14.76-.41,29.51,.09,44.25,.91,8.65,.49,17.28,1.15,25.91,1.93,11.71,1.06,23.35,2.57,34.97,4.34,17.44,2.65,34.73,6.06,51.8,10.53,3.29,.86,6.54,1.96,9.88,2.52,6.82,1.14,13.57,2.6,20.29,4.18,13.96,3.28,27.72,7.32,41.43,11.5,10.39,3.17,20.49,7.04,29.99,12.36,5.43,3.05,10.52,6.55,14.86,11.04,3.47,3.59,6.46,7.52,7.64,12.54,.36,1.53,.62,3.04,.28,4.58-.12,.54-.54,.86-1.15,.8-.46-.04-.79-.34-.88-.74-.14-.6-.15-1.22-.23-1.83-.39-3.13-1.39-6.03-3.21-8.62-2.45-3.48-5.38-6.54-8.74-9.16-9.39-7.35-20.06-12.27-31.25-16.04-12.4-4.18-24.97-7.85-37.66-11.07-1.53-.86-3.21-1.12-4.94-1.17,1.55,.98,3.2,1.69,5,2.07,5.51,2.29,11.06,4.48,16.49,6.98,16.18,7.45,31.01,16.83,43.38,29.81,4.16,4.37,7.7,9.17,10.13,14.72q1.63,3.72-1.8,5.63c-.27,.15-.51,.33-.37,.96,1.18,.49,2.48,.84,3.96,.57,6.06-1.1,11.89-2.82,16.74-6.8,4.39-3.6,8.12-7.71,8.53-13.81,.19-2.81-.26-5.59-1.03-8.24-1.62-5.57-2.87-11.21-8.35-14.89-5.29-3.55-9.81-8.21-15.34-11.5-8.36-4.98-17.31-8.73-26.23-12.55-16.82-7.19-34.06-13.17-51.62-18.25-13.98-4.05-28.21-7.03-42.51-9.67-10.95-2.02-21.97-3.65-33.04-4.8-8.72-.91-17.45-1.57-26.2-2.19-10.29-.73-20.6-1.17-30.91-1.46-16.62-.47-33.25-.36-49.86,.48-10.3,.52-20.59,1.2-30.87,1.95-8.84,.65-17.65,1.68-26.5,2.21-12.17,.74-24.16,2.75-36.15,4.81-8.13,1.4-16.24,2.96-24.55,2.83-1.44-.02-2.9-.01-4.33,.2-4.24,.62-8.44,.26-12.63-.41-4.91-.78-7.75-4.08-9.6-8.34-.91-2.09,.09-3.38,2.43-3.39,1.75,0,3.53,.04,5.24,.36,5.19,.97,10.43,1.37,15.68,1.58,6.7,.27,13.41,.33,20.09-.57,7.46-1.01,14.94-1.8,22.37-2.97,9.98-1.58,19.92-3.37,29.85-5.18,10.95-2,21.84-4.33,32.89-5.81,2.48-.33,2.45-.48,2.78-2.88,.98-7.16,1.21-14.38,1.63-21.58,.41-7.21,.45-14.44,.67-21.66,.04-1.13,.14-2.26,.3-3.38,.06-.4,.44-.71,.87-.77,.59-.08,1.01,.27,1.17,.78,.15,.48,.19,1.01,.18,1.52-.04,2.57-.12,5.14-.22,7.7-.36,8.66-.07,17.34-.93,25.98-.37,3.69-.55,7.4-.89,11.1-.21,2.25-.17,2.36,1.96,2.18,.41-.04,.82-.13,1.23-.18,7.88-.95,15.75-1.96,23.63-2.84,6.86-.76,13.76-1.29,20.61-2.09,9.94-1.17,19.92-1.83,29.92-2.14,9.39-.3,18.78-.2,28.17,.43,4.63,.31,9.29,.34,13.9,.79,12.83,1.26,25.59,2.92,38.25,5.43,17.86,3.54,35.24,8.63,52.21,15.23,14.05,5.46,27.58,12.12,41.46,17.97,.69,.29,1.34,1.03,2.46,.35-1.82-2.94-2.77-6.16-3.25-9.56-1.01-7.04-2.06-14.08-3.22-21.09-1.81-10.88-3.71-21.74-5.91-32.55-2.58-12.67-5.62-25.16-10.64-37.11-1.99-4.75-3.75-9.61-6.51-14-.12-.46-.25-.91-.66-1.21Zm-13.15-11.08c-.49-.57-1.04-1.04-1.85-1.05-2.1-1.49-4.36-2.7-6.64-3.87-8.17-4.21-16.56-7.94-25.17-11.14-24.52-9.11-49.69-15.88-75.45-20.45-12.93-2.3-25.91-3.9-39.08-3.72-2.59,.04-5.16,.2-7.68,.78-2.24,.52-2.58,1.1-1.94,3.25,3.39,11.36,4.49,23.06,5.17,34.81,.73,12.69,.62,25.38-.38,38.06-.74,9.36-1.62,18.7-3.24,27.96-.19,1.08-.9,2.11-.46,3.29,.91,.41,1.84,.17,2.75,.12,4.55-.27,9.1-.08,13.61,.39,19.9,2.06,39.81,4.11,59.59,7.19,15.5,2.41,30.9,5.28,46.1,9.19,16.98,4.36,33.63,9.85,50.45,14.76,2.93,.85,5.84,1.73,8.78,2.6,.74-3.7,.75-3.72-2.36-4.99-2.48-1.01-5-1.94-7.49-2.91-11.46-4.46-23.34-7.51-35.24-10.53-1.19-.3-2.38-.66-3.55-1.06-.64-.22-1-.73-.86-1.45,.15-.73,.74-1,1.39-.95,.71,.05,1.42,.23,2.12,.41,14.93,3.67,29.72,7.8,43.89,13.87,.74,.32,1.45,.81,2.62,.54-.45-6-.08-12.08-1.11-18.11-.06-4.13-.68-8.21-1.3-12.28-.36-2.82-.63-5.66-1.11-8.47-1.01-5.88-1.88-11.79-3.65-17.51v.03c-.13-.75,.16-1.62-.66-2.16l.03,.03c-.02-.51,.05-1.04-.06-1.52-1.4-5.78-2.95-11.51-4.92-17.12-.11-.31-.26-.53-.59-.6l.02,.04c.21-.77,.05-1.42-.65-1.88h.07c-.62-2.98-2.3-5.46-3.7-8.08-.39-.72-.93-.87-1.7-1.03-1.41-.3-2.56-1.15-1.84-2.82,.42-.96,.01-1.3-.64-1.69-.88-.53-1.77-1.05-2.65-1.57-.12-.31-.36-.38-.66-.37Zm-55.04,256.74c.09-.71-.29-.88-.9-.8-3.14,.41-6.29,.85-9.28,1.84-6.15,2.04-12.22,4.32-18.33,6.47-3.95,1.39-5.43,5.51-2.93,8.91,1.51,2.05,3.27,3.98,5.66,5.14,5.76,2.79,11.72,4.9,18.16,5.42,2.12,.35,4.34,.4,6.34,1.1,5.65,1.98,11.62,2.58,17.31,4.41,3.19,1.03,6.58,1.46,9.88,2.15,.8-.19,1.59-.2,2.38,.02,1.26,.42,3.15,.33,6.15-.31,1.95-.12,3.9-.24,5.85-.35,10.24-.58,19.41-3.45,26.37-11.62,3.1-3.64,3.81-8.81,1.08-12.71-1.96-2.81-4.49-5.12-7.1-7.31-3.99-3.35-8.63-5.08-13.81-5.6-6.16-.62-12.34-.79-18.52-1.1-.35-.5-.78-.49-1.34-.34-1.39,.36-2.91,.4-4.17,.99-1.98,.93-3.83-.28-5.75,.03-4.04,.66-8.13,1.03-12.13,1.85-1.66,.34-3.83-.26-4.92,1.8Zm130.52-92.95c.1,.23,.15,.59,.5,.2-.12-.11-.25-.22-.37-.33-.37-1.9-1.69-3.28-2.76-4.76-6.42-8.92-14.1-16.72-21.94-24.36-1.88-1.83-4.15-3.13-6.57-4-1.23-.44-2.57-.63-3.78-1.23-9.69-4.85-19.57-9.3-29.51-13.61-11.75-5.1-23.7-9.64-35.98-13.31-15.34-4.58-30.97-7.77-46.81-10.13-12.57-1.87-25.21-2.78-37.87-3.33-12.37-.54-24.78-.44-37.14,.49-8.12,.61-16.21,1.51-24.32,2.3-10.26,1-20.5,2.14-30.74,3.37-14.23,1.71-28.36,4.12-42.42,6.85-19.74,3.83-39.52,7.33-59.55,9.31-9.71,.96-19.36,.41-29.01-.62-3.01-.32-5.98-1.34-9.11-.7,1.62,4.2,3.49,5.86,7.45,6.66,2.33,.47,4.68,.74,7.07,.67,3.2-.09,6.4-.47,9.58-.45,8.63,.05,17.01-1.66,25.45-3.07,6.81-1.14,13.61-2.41,20.46-3.2,9.11-1.05,18.26-1.77,27.4-2.5,11.51-.91,23.02-1.81,34.55-2.48,9.78-.57,19.58-.96,29.37-1.15,9.28-.19,18.57-.1,27.87,.21,10.83,.36,21.66,.59,32.46,1.35,6.79,.48,13.59,.8,20.36,1.48,13.02,1.31,26,2.99,38.89,5.32,19.2,3.47,38.16,7.83,56.78,13.72,17.44,5.52,34.4,12.26,51.12,19.64,8.71,3.84,17.05,8.37,24.42,14.52,1.32,1.1,2.37,2.62,4.15,3.12Zm-168.58,180.32c.99-1.22,.95-2.46,.08-3.72-.12-4.15,.07-8.28,.57-12.4,.61-.37,.69-.78,.08-1.23-.06-3.73-.09-7.46,.52-11.16,.96-1.01,.91-2.04,.07-3.1,.09-2.47,.15-4.94,.27-7.4,.29-6.08,.6-12.2-.06-18.21-.57-5.17-.5-10.24-.22-15.38,.29-5.37,2.85-8.87,7.81-10.93,3-1.24,5.98-2.39,9.13-3.18,7-1.74,13.97-3.61,21.13-4.63,2.13-.3,4.36-.11,6.36-.76,3.53-1.14,7.06-1.76,10.74-1.49,.34-.03,.67-.05,1-.08,.59-.15,1.18-.39,1.78-.45,7.92-.83,15.84-.72,23.79-.08,10.89,.89,19.28,6.05,25.89,14.49,.19,.25,.4,.44,.76,.32,.51-1.22,.27-2.45-.15-3.61-.84-2.33-1.99-4.51-3.46-6.54-3.6-4.96-8.58-7.93-14.14-10.13-4.63-1.83-9.51-2.69-14.38-3.57-7.54-1.35-15.18-2.43-22.78-1.26-12.73,1.97-25.48,4.07-37.03,10.36-.56,.31-1.17,.58-1.6-.15-.39-.64-.12-1.27,.44-1.61,1.22-.76,2.48-1.48,3.78-2.1,6.18-2.95,12.77-4.64,19.41-6.15,6.13-1.4,12.28-2.76,18.59-3.05,8.84-.4,17.46,1.15,26.07,2.89,7.09,1.43,13.57,4.18,19.33,8.56,.24,.18,.41,.71,.75,.42,.26-.22,.15-.67-.24-.89,.04-1.08-.5-1.99-.84-2.95-3.11-8.63-9.74-14.04-17.45-18.04-9.47-4.92-19.86-6.98-30.46-7.36-12.57-.45-24.16,3.61-35.44,8.71-.96,.44-2.18,2.22-3.06,.51-.72-1.41,1.19-1.92,2.17-2.46,4.18-2.29,8.62-3.96,13.17-5.33,7.02-2.11,14.08-4.02,21.52-3.91,8.86,.13,17.41,1.97,25.81,4.57,7.33,2.27,13.56,6.4,19.08,11.72,5.2,5.01,8.23,11,9.01,18.16,.11,.97,.12,2.04,1.27,2.74,1.66-1.66,3.07-3.43,4.31-5.3,5.83-8.81,6.94-18.31,3.01-28.03-2.93-7.23-5.2-14.53-6.15-22.27-.47-3.79-1.09-7.55-3.32-10.85-4.84-7.17-10.71-13.47-17.54-18.64-10.08-7.63-21.15-13.66-33.11-17.89-14.32-5.06-28.95-9.07-43.82-12.12-15.07-3.09-30.19-5.88-45.54-7.2-5.23-.45-10.42-1.08-15.71-1.02-4.68,.05-9.37-1.07-14.07-1.58-5.75-.63-11.5-1.59-17.25-1.66-7.31-.09-14.64,.05-21.97,.54-12.88,.85-25.69,2.05-38.4,4.48-7.82,1.49-15.09,4.14-21.82,8.36-1.49,.94-2.36,2.04-2.65,3.87-.87,5.41-2.47,10.64-4.52,15.73-2.94,7.28-7.63,13.43-12.41,19.54-.9,1.15-1.88,2.18-3.05,3.06-3.8,2.85-7.58,5.72-11.35,8.61-3.84,2.93-6.84,6.54-8.89,10.95-2.9,6.24-4.67,12.79-5.46,19.59-1.34,11.49-2.31,23.01-2.63,34.58-.03,1.24-.24,2.47-.25,3.71-.02,1.51-.64,2.1-2.21,2.28-4,.44-7.97,1.13-11.95,1.69-.67,.09-1.4,.37-2.31-.38,0-2.25-.14-4.72,.04-7.17,.15-2.06-.7-3.28-2.38-4.24-1.71-.98-3.48-1.79-5.36-2.37-4.17-1.28-8.47-1.71-12.8-2.15-5.38-.55-10.21,.81-14.81,3.44-7.52,4.32-12.36,10.82-15.26,18.85-3.13,8.67-4.13,17.68-3.72,26.83,.27,6.09,1.12,12.12,2.35,18.1,1.65,8.03,3.84,15.87,8.11,22.95,2.5,4.14,5.55,7.87,8.82,11.83,.3-.8,.47-1.16,.58-1.54,3.19-10.9,6.95-21.61,10.9-32.26,.36-.96,.79-1.9,1.29-2.8,.33-.59,.95-.79,1.61-.5,.64,.28,.96,.85,.83,1.5-.13,.7-.45,1.37-.68,2.05-3.94,11.41-7.86,22.83-11.2,34.44-2.67,9.3-2.93,18.58,.3,27.7,3.48,9.83,7.74,19.32,13.75,27.98,14.3,20.58,34.19,32.42,58.29,37.83,2.1,.47,3.33-.26,4.01-2.26,.26-.78,.41-1.6,.51-2.42,1.09-8.31,3.88-16.02,8.22-23.17,1.34-2.21,2.56-4.47,3.71-6.79,2.92-5.86,6.34-11.31,11.63-15.44,8.29-6.46,17.18-11.81,27.08-15.39,6.89-2.5,13.99-3.5,21.32-2.46,5.95,.85,11.29,3.18,16.22,6.54,6.05,4.13,12.02,8.39,18.26,12.24,9.75,6.02,19.53,11.99,30.08,16.58,16.5,7.19,33.79,11.36,51.58,13.72,9.74,1.29,18.85,4.28,26.37,11.01,1.96,1.76,2.04,1.66,3.27-.87,.23-.46,.52-.89,.8-1.33,6.84-10.5,14.88-20.02,23.5-29.07,4.21-4.41,8.52-8.76,11.58-14.08,4.53-7.88,8.79-15.9,12.45-24.23,3.07-7,6-14.07,7.79-21.52,1.31-5.41,2.25-10.91,3.5-16.35,1.21-5.29,1.42-10.63,1-16.01-.05-.67,.17-1.47-.68-2.06-1.85,1.73-3.68,3.52-5.59,5.21-1,.88-2.11,1.66-3.24,2.38-.75,.48-1.61,.52-2.15-.39-.46-.79-.01-1.36,.61-1.83,.17-.12,.34-.23,.51-.36,10.49-7.83,17.04-18.36,20.96-30.67,.19-.6,.72-1.29,.03-1.94-.85,.03-1.27,.69-1.77,1.17-3.29,3.14-7.22,5.1-11.57,6.31-4.5,1.25-9.12,1.57-13.74,2.11-10.68,1.25-20.92-.52-31.12-3.43-5.64-1.61-11.38-3.05-17.16-3.97-6.36-1.01-12.19-3.12-17.85-6.08-2.48-1.3-4.19-3.44-6.54-5.23-.99,5.65-1.73,10.92,3.6,14.7,.16,.12,.28,.3,.42,.45,4.13,4.65,8.69,8.83,13.68,12.53,1.33,.98,2.72,1.88,4.03,2.88,.72,.54,1.76,1.19,1.1,2.23-.74,1.16-1.61,.19-2.38-.24-.27-.15-.5-.36-.76-.53-6.84-4.56-12.79-10.11-18.18-16.28-.42-.48-.65-1.34-1.81-1.09,0,4.41,.08,8.83-.02,13.23-.11,4.95-.08,9.91-.77,14.82-1.09,1.42-.96,2.87-.1,4.34,.04,3.52,.05,7.05-.51,10.54-1.03,1.21-.93,2.45-.11,3.71-.05,7.1-.03,14.2-.19,21.29-.11,4.83-.46,9.66-.75,14.49-.05,.87,.08,2.08-1.35,1.91-1.14-.13-1.4-1.1-1.36-2.09,.07-1.74,.02-3.5,.55-5.2,.83-.57,.87-1.19,.11-1.86,.15-6.82-.19-13.65,.52-20.46Zm-251.16,71.69c-.17,.23-.33,.38-.41,.55-6.97,15.54-13.86,31.12-19.85,47.07-5.59,14.88-10.77,29.9-16.09,44.88-1.34,3.78-2.57,7.62-3.81,11.43-1.3,3.99-2.93,7.91-4.31,11.9-1.15,3.31-1.25,6.63-.86,10.07,1.07,9.45,4.79,17.89,9.71,25.87,6.73,10.91,15.24,20.35,24.97,28.6,32.49,27.56,69.71,44.55,112.17,49.52,5.31,.62,10.69,1.07,16.07,.49,8.87-.96,17.46-3.13,25.88-5.98,4.98-1.69,9.82-3.77,14.61-5.95,3.32-1.51,6.08-3.86,9.2-5.65,1.25-.72,1.46-1.23,1.18-2.59-2.71-12.81-7.75-24.79-13-36.68-2.33-5.27-5.93-9.63-10.51-13.2-3.01-2.35-5.89-4.87-8.74-7.41-3.77-3.37-7.55-6.74-11.01-10.45-3.54-3.8-5.4-8.24-5.4-13.45,0-1.45-.04-2.89,0-4.34,.09-3.37,.75-2.8-2.67-4.25-6.02-2.54-11.83-5.44-16.86-9.66-12.66-10.62-25.34-21.22-37.16-32.78-13.69-13.39-25.64-28.31-37.31-43.45-4.16-5.4-7.97-11.07-12.12-16.44-4.37-5.65-8.39-11.51-12.52-17.3-.23-.32-.43-.7-1.15-.8Zm88.19,39.14c-.15,6.32,1.68,13.93,5.81,20.98,3,5.11,6.83,9.53,10.85,13.85,5.98,6.42,13.48,9.35,21.99,9.98,6.61,.49,13.17-.25,19.75-1.01,5.3-.61,9.58-2.88,13.5-6.25,4.62-3.97,9.37-7.82,13.25-12.54,1.39-1.69,2.59-1.72,4.49-1.03,5.72,2.09,11.58,3.69,17.69,4.3,1.52,.15,3.08,.12,4.57,.71,2.25,.88,2.44,1.01,2.26,3.34-.12,1.54-.31,3.08-.57,4.6-.82,4.74,.21,9.01,3.09,12.85,1.68,2.24,3.81,3.92,6.61,4.21,10.02,1.06,19.07-1.28,26.61-8.24,7.02-6.49,12.56-14.17,17.99-22,3.07-4.42,5.22-9.08,6.61-14.18,1.87-6.87,3.73-13.75,3.46-20.98-.11-3.09-1.2-5.58-3.89-7.29-2.36-1.5-4.74-2.97-7.45-3.71-7.36-2.02-14.72-4.1-22.33-4.94-6.09-.67-11.94-2.1-17.76-4-6.1-1.98-12.01-4.36-17.92-6.8-4.87-2.01-9.69-4.12-14.26-6.72-8.52-4.84-16.96-9.83-25.51-14.63-3.95-2.22-7.95-4.55-12.57-4.99-17.19-1.65-31.37,4.24-42.57,17.37-2.1,2.46-3.81,5.12-4.9,8.18-1.14,3.21-2.46,6.35-3.54,9.58-2.99,8.94-5.19,18.04-5.25,29.36Zm74.36,76.53c-1.31-1.3-2.67-1.85-3.98-2.4-5.5-2.31-11.26-3.35-17.22-3.21-5.56,.13-10.45,2.12-14.82,5.5-2.42,1.87-3.83,4.31-4.21,7.31-.99,7.92,.47,15.03,6.96,20.41,.56,.46,1.05,.99,1.58,1.49,5.08,4.85,10.3,9.56,15.82,13.9,4.91,3.86,8.65,8.62,11.13,14.26,4.99,11.33,9.88,22.73,12.48,34.9,2.7,12.63,6.65,24.91,10.27,37.28,2.57,8.77,6.37,16.91,12.51,23.94,12.7,14.56,27.99,24.84,46.73,29.94,10.13,2.76,20.24,4.7,30.85,3.1,9.63-1.45,17.98-5.13,24.74-12.26,2.49-2.62,5.03-5.19,7.31-8,4.93-6.06,8.23-12.84,8.98-20.71,.25-2.57,.45-5.14,.61-7.72,.36-5.91-.02-11.76-1.53-17.5-.75-2.85-1.97-5.45-4.33-7.34-4.02-3.2-8.57-5.37-13.59-6.42-7.13-1.49-14.36-1.8-21.55-.68-15.06,2.33-28.6,7.92-39.39,19.08-5.36,5.54-9.14,11.87-10.15,19.73-1.24,9.73,2.77,16.71,11.97,20.22,1.15,.44,2.34,.83,3.53,1.13,9.63,2.43,19.38,2.7,29.2,1.54,6.45-.76,12.89-1.66,19.39-2.06,1.85-.11,3.71-.21,5.57-.27,.62-.02,1.32,.07,1.4,.87,.08,.73-.39,1.15-1.09,1.24-1.33,.18-2.66,.38-3.99,.46-4.12,.22-8.24,.51-12.33,1.06-10.56,1.42-21.12,2.49-31.76,.85-5.75-.89-11.4-2.01-16.28-5.44-5.16-3.62-7.94-8.5-7.98-14.91-.02-3.49,.19-6.94,1.02-10.32-5.77-1.12-9.89-2.92-14.48-5.88-8.32-5.38-11.12-13.19-10.1-22.65,.18-1.67-.16-3.01-1.46-3.74-2.14-1.19-3.21-3.2-4.37-5.11-3.87-6.4-6.54-13.28-5.51-20.85,1.73-12.73,7.02-23.87,16.11-33.09,.54-.55,1.22-1.01,1.41-1.96-.74-.19-1.44-.34-2.12-.56-4.68-1.49-8.41-4.18-10.73-8.61-1.2-2.29-1.21-2.34-3.79-1.8-3.04,.63-6.1,1.04-9.17,1.45-5.03,.68-9.61-.44-13.88-3.15-5.1-3.23-7.21-8-6.31-13.77,1.04-6.71,2.32-13.44,6.55-19.25Zm35.37,113.1c.09,7.99,2.91,14.05,9.52,18.11,3,1.84,6.06,3.53,9.46,4.53,.9,.27,1.8,.4,2.73,.5,1.21,.14,1.83-.34,2.36-1.43,2.88-5.95,7.1-10.82,12.05-15.17,6.3-5.54,13.45-9.41,21.32-12.26,14.67-5.31,29.38-6.12,44.31-1.36,2.11,.67,2.25,.58,3.18-1.56,1.03-2.38,1.52-4.93,2.08-7.44,2.65-11.92-2.81-20.58-10.32-25.55-6.75-4.47-14.29-6.83-22.41-7.26-5.7-.3-11.34,.27-16.99,.86-8.7,.91-17.01,3.14-24.86,7.1-10.43,5.26-19.23,12.38-25.97,21.98-4.09,5.83-6.23,12.28-6.46,18.95Zm81.15-78.29c.04-.36,.13-.67,.09-.95-.07-.51-.23-1-.36-1.5-1.5-6.08-4.38-11.53-7.56-16.87-4.6-7.72-10.81-13.8-18.7-18.05-15.85-8.53-32.85-12.73-50.81-12.47-13.99,.2-26.17,5.19-36.06,15.31-1.24,1.27-2.32,2.65-3.08,4.24-2.4,5.08-3.74,10.49-4.32,16.04-.39,3.78,.88,7.16,4.07,9.52,3.49,2.58,7.31,4.13,11.79,3.84,6-.38,11.84-1.65,17.69-2.88,12.9-2.72,25.73-3.45,38.47,.76,1.14,.38,2.22,.21,3.34-.01,5.26-1.06,10.54-2.01,15.91-2.2,9.89-.34,19.58,.54,28.61,5.1,.24,.12,.56,.08,.9,.12Zm-82.72,70.62c.88-2.31,1.48-4.19,2.3-5.96,.87-1.86,1.82-3.72,2.97-5.42,10.06-14.95,24.13-24.29,41.3-29.17,5.98-1.7,12.17-2.11,18.33-2.77,9.82-1.05,19.35-.14,28.45,3.94,.71,.32,1.37,.94,2.42,.64,1.59-4.76,2.17-9.49-.14-14.32-2.05-4.28-4.98-7.8-8.46-10.94-7.47-6.71-16.57-8.9-26.25-9.43-11.79-.64-23.25,1.36-34.31,5.22-7.55,2.64-14.81,5.94-20.61,11.94-7.4,7.65-12.11,16.66-14.67,26.82-2.84,11.27,.63,20.85,8.65,29.44ZM373.48,152.12c5.56-2.26,10.55-4.45,15.58-6.54,8.19-3.39,16.19-7.23,24.34-10.7,5.97-2.55,12.07-4.79,18.09-7.22,2.19-.88,2.25-1.42,.38-2.85-3.14-2.4-6.59-4.24-10.27-5.63-7.73-2.94-15.28-2.91-22.65,1.24-10.59,5.97-18.28,14.62-23.78,25.34-.93,1.82-1.53,3.76-1.7,6.36Zm320.35,301.58l-.13-.12-.04,.18,.16-.06Z"/>
      <path class="cls-10" d="M590.5,486.12c-.62,3.7-.59,7.43-.52,11.16-.29,.39-.31,.8-.08,1.23-.5,4.12-.69,8.25-.57,12.4-.36,1.23-.28,2.48-.08,3.72-.71,6.81-.37,13.64-.52,20.46-.28,.61-.33,1.22-.11,1.86-.53,1.7-.48,3.46-.55,5.2-.04,.99,.22,1.96,1.36,2.09,1.43,.17,1.3-1.05,1.35-1.91,.28-4.83,.64-9.66,.75-14.49,.16-7.1,.14-14.2,.19-21.29,.32-1.23,.3-2.47,.11-3.71,.57-3.49,.56-7.02,.51-10.54,.29-1.44,.31-2.89,.1-4.34,.7-4.92,.66-9.88,.77-14.82,.1-4.41,.02-8.82,.02-13.23,1.16-.25,1.39,.61,1.81,1.09,5.39,6.18,11.34,11.73,18.18,16.28,.26,.17,.49,.38,.76,.53,.76,.43,1.63,1.4,2.38,.24,.67-1.04-.38-1.69-1.1-2.23-1.31-1-2.7-1.9-4.03-2.88-5-3.7-9.55-7.88-13.68-12.53-.14-.15-.26-.34-.42-.45-5.32-3.78-4.59-9.05-3.6-14.7,2.34,1.79,4.06,3.93,6.54,5.23,5.66,2.96,11.49,5.07,17.85,6.08,5.79,.92,11.52,2.36,17.16,3.97,10.2,2.9,20.44,4.68,31.12,3.43,4.62-.54,9.24-.86,13.74-2.11,4.35-1.21,8.28-3.17,11.57-6.31,.5-.48,.92-1.14,1.77-1.17,.69,.65,.16,1.34-.03,1.94-3.92,12.31-10.47,22.85-20.96,30.67-.17,.12-.34,.23-.51,.36-.63,.47-1.08,1.04-.61,1.83,.54,.91,1.4,.87,2.15,.39,1.13-.72,2.24-1.49,3.24-2.38,1.91-1.69,3.74-3.47,5.59-5.21,.86,.59,.63,1.39,.68,2.06,.41,5.38,.21,10.71-1,16.01-1.25,5.43-2.19,10.93-3.5,16.35-1.8,7.45-4.72,14.52-7.79,21.52-3.66,8.33-7.92,16.35-12.45,24.23-3.06,5.32-7.37,9.66-11.58,14.08-8.62,9.05-16.67,18.57-23.5,29.07-.28,.43-.57,.86-.8,1.33-1.23,2.52-1.31,2.62-3.27,.87-7.52-6.74-16.64-9.72-26.37-11.01-17.8-2.36-35.08-6.53-51.58-13.72-10.54-4.59-20.32-10.56-30.08-16.58-6.24-3.85-12.21-8.11-18.26-12.24-4.92-3.36-10.27-5.7-16.22-6.54-7.33-1.04-14.42-.04-21.32,2.46-9.89,3.58-18.79,8.93-27.08,15.39-5.3,4.13-8.71,9.58-11.63,15.44-1.15,2.31-2.37,4.58-3.71,6.79-4.34,7.15-7.13,14.86-8.22,23.17-.11,.82-.25,1.64-.51,2.42-.68,2-1.91,2.73-4.01,2.26-24.1-5.4-43.99-17.24-58.29-37.83-6.01-8.66-10.27-18.14-13.75-27.98-3.23-9.11-2.97-18.4-.3-27.7,3.34-11.61,7.25-23.03,11.2-34.44,.23-.68,.55-1.35,.68-2.05,.12-.65-.19-1.22-.83-1.5-.66-.28-1.28-.09-1.61,.5-.5,.89-.93,1.84-1.29,2.8-3.95,10.64-7.71,21.35-10.9,32.26-.11,.37-.27,.73-.58,1.54-3.27-3.96-6.32-7.69-8.82-11.83-4.28-7.08-6.46-14.92-8.11-22.95-1.23-5.98-2.08-12.02-2.35-18.1-.41-9.15,.59-18.16,3.72-26.83,2.9-8.03,7.74-14.53,15.26-18.85,4.6-2.64,9.43-3.99,14.81-3.44,4.32,.44,8.62,.87,12.8,2.15,1.89,.58,3.65,1.4,5.36,2.37,1.68,.96,2.53,2.18,2.38,4.24-.18,2.45-.04,4.93-.04,7.17,.91,.76,1.64,.48,2.31,.38,3.99-.56,7.96-1.25,11.95-1.69,1.57-.17,2.19-.77,2.21-2.28,.01-1.24,.22-2.47,.25-3.71,.32-11.57,1.29-23.09,2.63-34.58,.8-6.81,2.56-13.36,5.46-19.59,2.05-4.41,5.05-8.02,8.89-10.95,3.77-2.88,7.56-5.75,11.35-8.61,1.17-.88,2.15-1.91,3.05-3.06,4.78-6.11,9.47-12.26,12.41-19.54,2.06-5.09,3.65-10.32,4.52-15.73,.3-1.84,1.16-2.94,2.65-3.87,6.73-4.22,14-6.86,21.82-8.36,12.7-2.43,25.51-3.63,38.4-4.48,7.33-.48,14.66-.63,21.97-.54,5.76,.07,11.51,1.02,17.25,1.66,4.7,.52,9.39,1.64,14.07,1.58,5.3-.06,10.49,.58,15.71,1.02,15.35,1.32,30.47,4.11,45.54,7.2,14.87,3.05,29.5,7.06,43.82,12.12,11.97,4.22,23.03,10.26,33.11,17.89,6.84,5.17,12.7,11.47,17.54,18.64,2.23,3.3,2.85,7.06,3.32,10.85,.95,7.74,3.22,15.04,6.15,22.27,3.93,9.72,2.82,19.22-3.01,28.03-1.24,1.87-2.64,3.65-4.31,5.3-1.15-.69-1.17-1.77-1.27-2.74-.79-7.16-3.82-13.15-9.01-18.16-5.52-5.32-11.75-9.46-19.08-11.72-8.4-2.6-16.95-4.44-25.81-4.57-7.45-.11-14.5,1.8-21.52,3.91-4.55,1.37-9,3.05-13.17,5.33-.99,.54-2.9,1.05-2.17,2.46,.88,1.71,2.09-.08,3.06-.51,11.28-5.1,22.87-9.16,35.44-8.71,10.59,.38,20.98,2.44,30.46,7.36,7.71,4.01,14.34,9.42,17.45,18.04,.35,.96,.89,1.87,.84,2.95-.17,.16-.34,.32-.51,.48-5.77-4.38-12.24-7.13-19.33-8.57-8.61-1.74-17.23-3.29-26.07-2.89-6.31,.29-12.46,1.65-18.59,3.05-6.64,1.51-13.23,3.2-19.41,6.15-1.3,.62-2.55,1.34-3.78,2.1-.55,.34-.82,.97-.44,1.61,.44,.72,1.04,.45,1.6,.15,11.54-6.29,24.3-8.39,37.03-10.36,7.6-1.17,15.24-.1,22.78,1.26,4.87,.87,9.75,1.73,14.38,3.57,5.55,2.2,10.54,5.17,14.14,10.13,1.47,2.03,2.61,4.21,3.46,6.54,.42,1.16,.65,2.4,.15,3.61-.37,.12-.57-.07-.76-.32-6.61-8.44-14.99-13.6-25.89-14.49-7.94-.65-15.86-.75-23.79,.08-.6,.06-1.19,.3-1.78,.45-.35-.21-.68-.14-1,.08-3.69-.27-7.22,.34-10.74,1.49-2,.65-4.23,.46-6.36,.76-7.17,1.02-14.13,2.89-21.13,4.63-3.15,.78-6.14,1.93-9.13,3.18-4.96,2.06-7.52,5.56-7.81,10.93-.28,5.14-.35,10.21,.22,15.38,.66,6.01,.35,12.14,.06,18.21-.12,2.47-.18,4.93-.27,7.4-.3,1.03-.28,2.06-.07,3.1Zm-43.5-104.6c-.3-.08-.62-.12-.89-.24-14.17-6.53-29.18-8.87-44.61-8.4-15.06,.46-30.06,1.97-44.98,4.13-1.14,.17-2.96,.02-2.67,1.71,.24,1.43,1.94,.82,2.96,.67,7.36-1.04,14.73-1.89,22.13-2.54,12.03-1.05,24.04-2.31,36.14-1.1,11.17,1.12,21.97,3.61,32.04,8.76,7.82,4,13.34,9.91,15.46,18.63,.13,.54,.36,1.02,.97,1,.75-.01,1.06-.57,1.11-1.24,.14-1.71-.5-3.24-1.23-4.73-5.48-11.11-13.33-20.04-24.2-26.18-16.65-9.4-34.64-11.51-53.31-9.71-4.63,.45-9.11,1.8-13.33,3.83-1.03,.5-2.84,.92-2.09,2.45,.63,1.3,2.01,.26,2.99-.19,4.35-2.01,8.91-3.22,13.65-3.79,11.64-1.4,23.11-.24,34.36,2.7,9.68,2.53,18.55,6.87,26.05,13.68-.18,.19-.37,.37-.55,.56Zm-52.32,3.45c-1.03,0-2.06-.02-3.1,0-10.86,.27-21.6,1.71-32.29,3.49-7.66,1.27-14.93,3.99-21.99,7.2-1.36,.62-3.12,1.24-2.93,3.17,.17,1.8,1.94,1.94,3.28,2.34,8.82,2.63,17.37,5.92,25.58,10.09,4.41,2.24,8.87,4.4,13.35,6.52,11.57,5.46,23.22,10.74,35.63,14.1,8,2.17,16.01,4.04,24.41,2.82,5.34-.78,10.58-1.82,15.3-4.62,1.98-1.17,3.94-2.49,4.69-4.75,1.65-5,2.08-10.01-.22-15.04-2.79-6.09-6.9-10.9-12.49-14.61-4.89-3.24-10.15-5.46-15.78-6.94-10.97-2.87-22.16-3.66-33.44-3.77Zm-119.66,51.64c-4.89,.82-9.44,1.6-14.01,2.33-1.09,.17-1.62,.59-1.59,1.78,.08,3.06,.04,6.12-.58,9.04,.45,.21,.64,.38,.8,.36,4.24-.77,8.48-1.59,12.73-2.32,1.02-.17,1.38-.73,1.52-1.61,.48-3.03,1.14-6.03,1.13-9.58Zm15.29-20.13c.11-.67-.01-1.32-.76-1.45-.71-.12-1.19,.43-1.33,1.04-.27,1.2-.49,2.42-.56,3.65-.87,13.85,1.74,27.06,7.46,39.65,1.74,3.84,3.75,7.57,5.66,11.33,.32,.64,.72,1.24,1.14,1.83,.25,.36,.68,.52,1.09,.36,.53-.21,.81-.69,.66-1.24-.19-.69-.46-1.37-.77-2.01-1.23-2.49-2.42-5.01-3.76-7.45-5.05-9.18-7.37-19.17-8.85-29.41-.79-5.44-.88-10.88,.03-16.31Zm170.1,14.48c-1.61,.75-2.86,1.94-4.18,3.01-7.52,6.14-15.84,9.91-25.84,8.77-.71-.08-1.44-.07-2.16-.07-.41,0-.83,.02-1.22,.12-.42,.1-.72,.43-.76,.86-.05,.43,.18,.78,.57,1,.74,.44,1.56,.49,2.39,.5,1.65,.02,3.3-.05,4.94,.03,10.27,.47,18.04-4.73,25.29-11.11,.81-.71,1.71-1.58,.98-3.11Zm-129.52-116.39c-1.04,2.74-2.17,5.27-2.97,7.91-2.51,8.19-6.61,15.51-11.87,22.22-.89,1.13-1.67,2.35-2.49,3.54-.32,.46-.42,.98,.12,1.34,.47,.32,1,.22,1.45-.07,.98-.65,1.3-1.83,2.04-2.69,7.46-8.74,11.92-18.93,14.49-30.03,.16-.67,.5-1.4-.76-2.21Zm18.72,115.34c-.21-1.2-1.34-1.43-2.2-1.92-8.94-5.13-17.84-10.3-23.85-19.1-.3-.44-.73-.76-1.31-.45-.52,.27-.68,.77-.6,1.3,.16,.95,.77,1.67,1.35,2.39,6.47,8.01,14.89,13.48,23.82,18.28,.54,.29,1.1,.58,1.75,.5,.56-.07,.92-.39,1.02-1Zm-13.82-105.4c.13-1.06,.19-1.76-.54-1.99-1-.32-1.26,.53-1.39,1.21-.27,1.44-.83,2.76-1.44,4.05-2.58,5.42-5.84,10.39-9.79,14.91-.61,.7-1.24,1.38-1.78,2.13-.31,.43-.37,.98,.04,1.42,.46,.49,.96,.24,1.36-.08,.56-.45,1.09-.95,1.57-1.48,4.72-5.24,8.43-11.14,11.17-17.63,.4-.94,.62-1.95,.8-2.53Zm-62.92,128.57c.21-1.5-.49-1.87-1.8-1.58-3.83,.82-7.66,1.62-11.5,2.43-.3,.06-.63,.13-.87,.29-.7,.47-.69,1.24-.62,1.95,.1,.9,.83,.75,1.42,.68,3.79-.46,7.57-.98,11.36-1.4,1.54-.17,2.26-.85,2.01-2.37Zm-2.5,5.87c-4.11,.74-8.04,.77-12.39,2.05,3.31,2.39,6.23,1.6,9.12,1.07,1.59-.29,2.99-.81,3.26-3.12Z"/>
      <path class="cls-18" d="M670.38,322.03c12.69,3.22,25.25,6.89,37.66,11.07,11.2,3.78,21.87,8.7,31.25,16.04,3.35,2.62,6.28,5.68,8.74,9.16,1.82,2.58,2.82,5.49,3.21,8.62,.08,.61,.09,1.24,.23,1.83,.09,.4,.42,.7,.88,.74,.6,.06,1.02-.26,1.15-.8,.35-1.55,.08-3.06-.28-4.58-1.17-5.02-4.16-8.95-7.64-12.54-4.34-4.49-9.43-8-14.86-11.04-9.5-5.33-19.6-9.2-29.99-12.36-13.72-4.18-27.47-8.22-41.43-11.5-6.72-1.58-13.47-3.04-20.29-4.18-3.34-.56-6.59-1.66-9.88-2.52-17.07-4.47-34.35-7.88-51.8-10.53-11.62-1.77-23.27-3.28-34.97-4.34-8.63-.78-17.26-1.44-25.91-1.93-14.75-.83-29.49-1.33-44.25-.91-12.78,.36-25.55,.98-38.29,2.22-15.3,1.49-30.5,3.63-45.51,6.99-14.02,3.14-27.75,7.21-40.77,13.43-6.84,3.27-13.25,7.17-18.98,12.14-1.55,1.35-3.23,2.51-4.73,3.94-2.75,2.61-7.81,.74-8.42-2.95-.34-2.03-.7-4.09-.71-6.14-.07-9.69-.35-19.38,.98-29.05,2.31-16.87,5.28-33.61,8.87-50.24,3.62-16.78,8.76-33.1,15.52-48.89,3.5-8.19,7.63-16.05,13.43-22.89,5.27-6.22,11.46-11.45,18.94-14.68,19.31-8.36,38.37-17.33,58.1-24.73,2.89-1.08,5.58-2.72,8.48-3.76,5.33-1.91,10.75-3.6,16.14-5.33,3.14-1.01,6.34-1.86,9.47-2.89,1.74-.58,2.99-.16,4,1.32,3.76,5.43,6.4,11.27,7.15,17.91,.84,7.41,.67,14.84,.65,22.27,0,1.25-.31,2.45-.51,3.67-.11,.68,.25,1.23,.94,1.39,.56,.13,.97-.23,1.28-.68,.68-.98,.68-2.13,.84-3.26,.82-5.78-.13-11.54-.1-17.31,.02-2.8-.4-5.56-.8-8.31-.84-5.85-3.46-10.97-6.58-15.88-.22-.35-.47-.68-.69-1.03-.97-1.59-.95-1.73,.8-2.36,3.89-1.4,7.88-2.42,11.94-3.22,8.19-1.62,16.29-3.67,24.57-4.89,6.23-.92,12.48-1.55,18.74-2.11,8.85-.79,17.73-1.09,26.61-.71,17.56,.75,34.89,3.1,51.9,7.68,14.09,3.79,27.78,8.55,40.94,14.89,15.51,7.47,27.27,19.13,37.22,32.84,2.05,2.82,4.22,5.61,5.59,8.88-.15,.12-.29,.25-.44,.38-2.93-1.31-5.53-3.2-8.28-4.81-13.8-8.07-28.55-13.92-43.7-18.83-11.97-3.87-24.04-7.42-36.24-10.54-13.5-3.45-27.16-6.07-41.02-7.64-7.59-.86-15.19-1.57-22.83-1.55-3.5,0-7.01,.23-10.46,.97-1.34,.29-2.61,.71-3.55,1.75-1.16,1.29-1.77,2.66-1.12,4.51,2.73,7.74,3.76,15.83,4.53,23.95,1.1,11.52,1.53,23.07,1.18,34.63-.3,9.79-1.07,19.56-2.15,29.31-.57,5.13-1.09,10.26-2.31,15.28-.5,2.07,.48,3.93,3.02,3.62,6.59-.8,13.19-.08,19.76,.57,8.31,.83,16.6,1.88,24.9,2.77,12.82,1.37,25.59,3.15,38.31,5.24,15.17,2.49,30.23,5.53,45.02,9.76,11.7,3.35,23.35,6.85,35.01,10.34,5.53,1.65,11.18,2.9,16.59,4.94,1.7,.64,3.97-.74,4.44-2.66,.22-.89,.22-1.84,.23-2.76,.22-15.94-1.37-31.72-4.12-47.41-2.07-11.8-4.77-23.44-8.77-34.75-.51-1.45-1.01-2.92-1.52-4.37,.15-.13,.29-.26,.45-.38,2.76,4.39,4.52,9.26,6.51,14,5.02,11.95,8.06,24.44,10.64,37.11,2.2,10.81,4.1,21.67,5.91,32.55,1.16,7.02,2.21,14.05,3.22,21.09,.49,3.4,1.44,6.61,3.25,9.56-1.12,.68-1.77-.06-2.46-.35-13.88-5.85-27.41-12.51-41.46-17.97-16.96-6.59-34.34-11.69-52.21-15.23-12.66-2.51-25.43-4.17-38.25-5.43-4.62-.45-9.27-.48-13.9-.79-9.38-.63-18.78-.73-28.17-.43-10,.32-19.97,.97-29.92,2.14-6.86,.81-13.75,1.33-20.61,2.09-7.88,.88-15.76,1.88-23.63,2.84-.41,.05-.81,.14-1.23,.18-2.13,.18-2.16,.07-1.96-2.18,.34-3.69,.52-7.4,.89-11.1,.86-8.64,.57-17.32,.93-25.98,.11-2.56,.18-5.13,.22-7.7,0-.51-.03-1.04-.18-1.52-.16-.51-.58-.87-1.17-.78-.43,.06-.81,.37-.87,.77-.16,1.12-.27,2.25-.3,3.38-.22,7.22-.26,14.45-.67,21.66-.41,7.2-.64,14.42-1.63,21.58-.33,2.4-.3,2.55-2.78,2.88-11.04,1.48-21.93,3.81-32.89,5.81-9.94,1.81-19.88,3.61-29.85,5.18-7.43,1.17-14.92,1.97-22.37,2.97-6.68,.9-13.39,.84-20.09,.57-5.25-.21-10.49-.6-15.68-1.58-1.71-.32-3.49-.37-5.24-.36-2.34,0-3.33,1.3-2.43,3.39,1.85,4.26,4.68,7.56,9.6,8.34,4.19,.67,8.39,1.03,12.63,.41,1.42-.21,2.88-.22,4.33-.2,8.31,.13,16.42-1.43,24.55-2.83,11.99-2.06,23.97-4.07,36.15-4.81,8.85-.53,17.66-1.56,26.5-2.21,10.28-.75,20.57-1.43,30.87-1.95,16.61-.84,33.24-.95,49.86-.48,10.3,.29,20.61,.73,30.91,1.46,8.74,.62,17.48,1.28,26.2,2.19,11.07,1.15,22.09,2.78,33.04,4.8,14.3,2.64,28.53,5.62,42.51,9.67,17.56,5.09,34.8,11.06,51.62,18.25,8.93,3.82,17.87,7.57,26.23,12.55,5.53,3.29,10.05,7.95,15.34,11.5,5.48,3.68,6.73,9.33,8.35,14.89,.77,2.65,1.22,5.43,1.03,8.24-.41,6.1-4.14,10.21-8.53,13.81-4.85,3.98-10.68,5.7-16.74,6.8-1.48,.27-2.77-.08-3.96-.57-.13-.63,.1-.81,.37-.96q3.43-1.91,1.8-5.63c-2.44-5.55-5.97-10.35-10.13-14.72-12.37-12.98-27.2-22.36-43.38-29.81-5.43-2.5-10.98-4.69-16.49-6.98-.02-.3-.04-.6-.05-.9Zm-289.66-121.68c-9.44,.11-17.81,3.25-25.03,9.23-8.3,6.88-13.52,15.68-14.14,26.55-1.01,17.57,11.65,30.98,29.63,31.58,11.24,.37,20.96-3.78,29.01-11.7,1.65-1.63,2.02-2.47,4.48-.25,5.68,5.12,12.62,7.46,20.14,7.53,8.31,.09,15.89-2.56,22.24-8.01,10.09-8.66,14.62-19.58,11.98-32.83-1.93-9.72-7.64-16.95-16.68-20.98-12.32-5.49-23.93-3.41-34.71,4.37-1.23,.88-2.05,2.8-3.66,2.54-1.42-.22-2.69-1.42-4.02-2.19-.18-.1-.36-.2-.53-.31-5.64-3.83-11.89-5.57-18.69-5.53Zm97.4-20.23c0-1.29,.03-2.01,0-2.73-.05-.86-.22-1.76-1.28-1.8-1.06-.03-1.34,.86-1.39,1.71-.1,1.65-.07,3.3-.15,4.95-.08,1.64-.28,3.28-.34,4.92-.03,.77,.33,1.44,1.24,1.49,.74,.04,1.08-.5,1.3-1.11,.1-.29,.17-.6,.19-.9,.17-2.36,.33-4.73,.45-6.53Z"/>
      <path class="cls-9" d="M338.08,586.33c.72,.1,.92,.47,1.15,.8,4.14,5.79,8.16,11.66,12.52,17.3,4.16,5.37,7.97,11.05,12.12,16.44,11.67,15.14,23.61,30.06,37.31,43.45,11.82,11.56,24.5,22.16,37.16,32.78,5.03,4.22,10.84,7.12,16.86,9.66,3.42,1.44,2.76,.88,2.67,4.25-.04,1.44,0,2.89,0,4.34,0,5.21,1.86,9.65,5.4,13.45,3.46,3.71,7.23,7.08,11.01,10.45,2.85,2.54,5.73,5.06,8.74,7.41,4.58,3.57,8.18,7.93,10.51,13.2,5.25,11.89,10.29,23.88,13,36.68,.29,1.36,.07,1.87-1.18,2.59-3.12,1.79-5.87,4.14-9.2,5.65-4.8,2.18-9.63,4.26-14.61,5.95-8.42,2.85-17.01,5.02-25.88,5.98-5.38,.58-10.77,.13-16.07-.49-42.46-4.97-79.68-21.97-112.17-49.52-9.73-8.25-18.24-17.68-24.97-28.6-4.92-7.98-8.64-16.42-9.71-25.87-.39-3.44-.28-6.76,.86-10.07,1.38-3.99,3.01-7.91,4.31-11.9,1.24-3.82,2.47-7.65,3.81-11.43,5.32-14.98,10.5-30,16.09-44.88,5.99-15.94,12.87-31.53,19.85-47.07,.08-.18,.23-.32,.41-.55Z"/>
      <path class="cls-8" d="M426.27,625.47c.06-11.32,2.26-20.42,5.25-29.36,1.08-3.23,2.4-6.37,3.54-9.58,1.09-3.06,2.8-5.73,4.9-8.18,11.2-13.12,25.37-19.01,42.57-17.37,4.62,.44,8.62,2.77,12.57,4.99,8.54,4.8,16.99,9.79,25.51,14.63,4.58,2.6,9.39,4.71,14.26,6.72,5.91,2.44,11.82,4.82,17.92,6.8,5.82,1.89,11.68,3.32,17.76,4,7.61,.84,14.97,2.92,22.33,4.94,2.71,.74,5.09,2.21,7.45,3.71,2.69,1.71,3.78,4.2,3.89,7.29,.26,7.23-1.59,14.11-3.46,20.98-1.39,5.1-3.54,9.75-6.61,14.18-5.43,7.83-10.97,15.51-17.99,22-7.54,6.97-16.59,9.3-26.61,8.24-2.8-.29-4.93-1.98-6.61-4.21-2.88-3.84-3.91-8.11-3.09-12.85,.26-1.52,.46-3.06,.57-4.6,.18-2.33-.01-2.46-2.26-3.34-1.49-.58-3.05-.55-4.57-.71-6.11-.6-11.97-2.21-17.69-4.3-1.9-.69-3.1-.66-4.49,1.03-3.89,4.72-8.63,8.57-13.25,12.54-3.92,3.36-8.2,5.64-13.5,6.25-6.58,.75-13.14,1.5-19.75,1.01-8.51-.63-16.01-3.56-21.99-9.98-4.02-4.32-7.85-8.73-10.85-13.85-4.14-7.05-5.97-14.66-5.81-20.98Zm154.7-2.75c-.9,.3-1.59-.25-2.32-.59-5.42-2.56-10.69-5.33-15.38-9.17-4.93-4.05-10.62-5.89-17.06-4.57-2.12,.43-3.86-.11-5.33-1.67-5.04-5.38-11.58-7.66-18.56-9.19-7.06-1.55-14.3-2.14-21.25-4.23-5.14-1.54-10.23-3.27-15.42-4.6-5.82-1.49-11.52-3.23-16.97-5.79-.74-.35-1.45-.9-2.32-.71-.68,.15-1.24,.25-1.13,1.38,.17,1.68,.45,3.26,1.39,4.66,1.38,2.06,2.73,4.14,4.25,6.1,13.28,17.07,29.98,29.66,49.77,38.35,12.44,5.47,25.2,7.68,38.66,5.24,4.97-.9,10.07-1.47,14.33-4.52,2.69-1.93,5.55-3.57,8.39-5.25,.88-.52,1.81-1.42,2.7-1.39,1.21,.04,.92,1.64,1.46,2.46,.11,.17,.18,.38,.32,.52,.29,.3,.65,.57,1.07,.28,.23-.16,.49-.45,.5-.7,.03-.5-.05-1.02-.17-1.52-.73-2.94-2.56-5.14-4.85-7-.7-.57-1.55-1.44-2.45-.67-1.16,1,.65,1.44,.67,2.28-.11,.1-.21,.2-.32,.3Zm-117.88-46.89c.75,.03,1.7,.73,2.13-.4,.32-.84-.37-1.31-1.06-1.61-2.42-1.06-8.5,.85-9.86,3.08-.23,.38-.32,.75-.09,1.15,.29,.5,.79,.74,1.3,.59,.47-.14,.92-.46,1.28-.79,1.79-1.66,3.96-2.08,6.3-2.02Z"/>
      <path class="cls-8" d="M500.64,702c-4.22,5.8-5.5,12.54-6.55,19.25-.9,5.77,1.21,10.53,6.31,13.77,4.27,2.7,8.85,3.82,13.88,3.15,3.07-.41,6.13-.82,9.17-1.45,2.58-.54,2.59-.49,3.79,1.8,2.32,4.43,6.05,7.12,10.73,8.61,.68,.22,1.38,.37,2.12,.56-.19,.95-.87,1.41-1.41,1.96-9.08,9.22-14.38,20.36-16.11,33.09-1.03,7.58,1.64,14.46,5.51,20.85,1.15,1.91,2.23,3.91,4.37,5.11,1.3,.73,1.64,2.07,1.46,3.74-1.02,9.46,1.78,17.28,10.1,22.65,4.59,2.97,8.71,4.77,14.48,5.88-.83,3.38-1.04,6.83-1.02,10.32,.04,6.42,2.82,11.29,7.98,14.91,4.88,3.43,10.53,4.55,16.28,5.44,10.65,1.65,21.21,.57,31.76-.85,4.1-.55,8.21-.83,12.33-1.06,1.34-.07,2.67-.28,3.99-.46,.69-.09,1.16-.52,1.09-1.24-.09-.8-.78-.89-1.4-.87-1.86,.06-3.71,.16-5.57,.27-6.49,.4-12.93,1.3-19.39,2.06-9.82,1.16-19.57,.89-29.2-1.54-1.2-.3-2.38-.69-3.53-1.13-9.2-3.5-13.22-10.48-11.97-20.22,1-7.86,4.78-14.18,10.15-19.73,10.8-11.16,24.34-16.74,39.39-19.08,7.2-1.12,14.42-.81,21.55,.68,5.01,1.05,9.57,3.22,13.59,6.42,2.36,1.88,3.58,4.48,4.33,7.34,1.52,5.75,1.89,11.6,1.53,17.5-.16,2.58-.36,5.15-.61,7.72-.76,7.87-4.05,14.65-8.98,20.71-2.28,2.81-4.83,5.37-7.31,8-6.76,7.13-15.1,10.81-24.74,12.26-10.6,1.6-20.71-.35-30.85-3.1-18.74-5.1-34.03-15.38-46.73-29.94-6.13-7.03-9.94-15.17-12.51-23.94-3.62-12.37-7.58-24.65-10.27-37.28-2.6-12.18-7.49-23.57-12.48-34.9-2.49-5.65-6.23-10.4-11.13-14.26-5.52-4.35-10.74-9.05-15.82-13.9-.52-.5-1.02-1.03-1.58-1.49-6.49-5.38-7.95-12.49-6.96-20.41,.37-3,1.79-5.44,4.21-7.31,4.37-3.38,9.26-5.37,14.82-5.5,5.96-.14,11.72,.9,17.22,3.21,1.32,.55,2.67,1.1,3.98,2.4Z"/>
      <path class="cls-1" d="M706.35,247.52c1.02,6.02,.66,12.11,1.11,18.11-1.18,.27-1.89-.22-2.62-.54-14.17-6.07-28.96-10.2-43.89-13.87-.7-.17-1.41-.36-2.12-.41-.65-.05-1.24,.22-1.39,.95-.15,.72,.22,1.23,.86,1.45,1.17,.4,2.35,.76,3.55,1.06,11.89,3.02,23.77,6.07,35.24,10.53,2.5,.97,5.01,1.9,7.49,2.91,3.11,1.27,3.1,1.3,2.36,4.99-2.94-.87-5.86-1.75-8.78-2.6-16.82-4.91-33.47-10.4-50.45-14.76-15.2-3.9-30.6-6.77-46.1-9.19-19.78-3.08-39.69-5.13-59.59-7.19-4.51-.47-9.06-.66-13.61-.39-.9,.05-1.84,.29-2.75-.12-.45-1.19,.27-2.21,.46-3.29,1.62-9.26,2.5-18.6,3.24-27.96,1-12.68,1.11-25.37,.38-38.06-.68-11.75-1.78-23.46-5.17-34.81-.64-2.15-.3-2.73,1.94-3.25,2.52-.58,5.1-.75,7.68-.78,13.16-.18,26.15,1.42,39.08,3.72,25.76,4.58,50.92,11.34,75.45,20.45,8.61,3.2,17,6.93,25.17,11.14,2.28,1.17,4.54,2.38,6.63,3.87-.01,.3-.02,.61-.03,.91-.95-.37-1.89-.73-2.83-1.1-1.62-.65-3.24-1.3-4.85-1.96-.74-.31-1.44-.34-1.87,.44-.46,.84,.05,1.4,.76,1.7,3.11,1.33,6.21,2.7,9.39,3.87,1.46,.54,1.82-.08,1.41-2.05,.18-.13,.36-.26,.54-.4,.89,.52,1.77,1.04,2.66,1.57,.65,.39,1.06,.73,.64,1.69-.72,1.67,.43,2.53,1.84,2.82,.77,.16,1.31,.31,1.7,1.03,1.4,2.62,3.08,5.1,3.7,8.07-.99,.91-1.64-.16-2.4-.44-1.39-.52-2.53-1.71-4.44-1.81,1.45,6.9,3.38,13.52,3.01,20.57-3.44-1.19-5.23-3.28-4.82-6.92,.08-.71,.03-1.44,.02-2.17-.07-3.71-.15-7.42-.24-11.13-.02-.81,.14-1.77-.76-2.21-1.69-.82-3.25-2.02-5.59-2.2,.92,3.23,.87,6.19,.86,9.16,0,4.53,.07,9.07-.73,13.55-.26,1.45,.11,1.95,1.54,2.32,6.2,1.59,12.28,3.56,18.17,6.11,1.84,.8,1.87,.72,2.14-1.65,1.77,5.72,2.64,11.63,3.65,17.51,.48,2.8,.75,5.64,1.11,8.46-.81,1.5-.73,3.41-2.49,4.91-.4-2.07-.77-3.95-1.13-5.83-.42-2.23-.75-4.48-1.29-6.67-.25-1.04-1.15-1.81-2.28-1.76-1.19,.05-1.29,1.13-1.43,2.06-.48,3.15-.93,6.31-1.43,9.46-.61,3.76-1.11,7.54-2.12,11.22-.43,1.56,.27,2.16,1.69,2.66,1.55,.55,2-.25,2.54-1.36,.56-1.16,.78-2.52,1.61-3.42,.58-.02,.7,.29,.9,.52,1.44,1.64,.96,3.9,1.88,5.7,1.01,.09,2.19,1.33,2.93-.43,1.08-1.42,1.02-3.3,1.93-4.78Zm-52.98-13.7c-.27-1.49-.83-3-.76-4.48,.21-5.12-1.12-10.02-1.85-15.01-.29-1.99-1.13-3.74-1.87-5.55-.5-1.24-1.44-2.06-2.81-2.09-1.21-.03-1.77,.94-2.26,1.86-1.16,2.19-2.28,4.39-3.43,6.59-2.79,5.34-4.39,11.1-5.87,16.9-.15,.59-.16,1.23-.15,1.85,.02,2.1,1.03,3.13,3.45,3.59,1.77,.34,2.53-.16,3.27-2.4,.58-1.76,1-3.58,1.56-5.35,.5-1.58,1.29-1.78,2.8-1.04,.8,.39,.98,1.03,1.06,1.73,.2,1.74,.33,3.48,.48,5.23,.25,2.92,2.79,4.62,5.43,3.29,1.11-.56,1.22,0,1.88,.41,2.45,1.53,5.07,2.95,8.05,1.84,1.31-.49,1.8-.48,2.7,.72,1.35,1.8,3.35,1.39,4.47-.62,.3-.53,.55-1.13,.68-1.72,.56-2.72,1.16-5.45,1.58-8.2,.45-2.96-1.09-4.95-4.06-5.54-2.09-.42-2.88,.28-2.83,2.41,.02,.81,.26,1.41,.93,1.82,1.15,.69,.74,1.5,.26,2.37-.61,1.11-1.36,2.05-2.52,2.64-2.44,1.25-3.9,.8-4.76-1.83-1.5-4.61-.53-8.96,1.92-13.01,.46-.75,1.28-1.36,2.06-1.83,2.01-1.2,3.72-.41,3.94,1.91,.1,1.03,.23,1.82,1.23,2.24,1.49,.63,3.94-.16,4.54-1.66,.73-1.81,1.22-3.73,1.14-5.72-.03-.9-.46-1.61-1.34-1.9-3.24-1.04-6.46-2.22-9.96-1.83-3.68,.41-6.55,3.27-7.11,7.04-.76,5.08-1.78,10.13-1.89,15.31Zm-103.17-48.88c-5.16-.04-6.01,.53-7.74,5.12-.15,.39-.25,.79-.39,1.17-1.8,4.92-2.01,10.09-2.26,15.24-.17,3.52,.25,7.03,1.27,10.4,1.88,6.2,7.9,9.23,13.76,6.86,1.34-.54,1.82,.23,2.65,.72,2.77,1.65,4.33,1.02,5.24-2.08,1.43-4.91,1.61-9.96,1.66-15.02,0-1.01-.29-2.04-.51-3.05-.28-1.28-1.01-2.31-2.16-2.88-3.09-1.55-6.37-2.38-9.85-2.21-.98,.05-1.83,.35-2.23,1.36-.84,2.11,.48,4.6,2.79,4.83,3.23,.32,3.61,1.14,2.29,4.26-.4,.95-.79,1.93-1.38,2.75-.99,1.39-2.12,1.42-2.9-.02-3.09-5.72-4.14-11.63-1.24-17.78,.39-.83,.83-1.64,1.94-1.8,1.89-.28,2.61,.19,3.19,2.27,.73,2.6,1.1,2.85,3.63,2.48,3.18-.48,5.08-2.85,5.33-6.5,.11-1.65-.4-2.85-1.98-3.44-3.66-1.38-7.28-2.96-11.12-2.68Zm-.53-22.59c1.49,2.4,2.68,4.4,3.95,6.33,1.29,1.95,1.96,1.88,3.33-.09,.86-1.23,1.02-2.92,2.51-3.91,.65,3.46,1.26,6.81,1.92,10.14,.45,2.28,1.42,2.83,4.36,2.6,1.67-.13,2.02-.71,2.07-3.09,.09-4.76-.61-9.47-1.15-14.17-.62-5.42-1.48-10.82-2.22-16.23-.32-2.33-1.14-3-3.43-3.01-1.48,0-2.19,.71-2.76,1.99-1.36,3.08-2.1,6.38-3.25,9.55-.68-.28-.8-.8-1.02-1.26-1.57-3.35-3.07-6.74-4.97-9.92-.8-1.34-3.03-2.4-4.42-2.04-1.73,.44-1.58,1.84-1.66,3.21-.54,9.24-.97,18.5-1.85,27.72-.2,2.11-.29,4.23-.43,6.32,5.09,.47,5.2,.47,6.17-4.23,.67-3.23,1.94-6.23,2.83-9.92Zm23.9,58.41c1.88,2.63,3.12,5.15,4.95,7.24,1.23,1.4,4.62,2.17,6.2,1.37,.74-.37,1.05-1.03,.88-1.8-.16-.69-.47-1.36-.77-2.01-1.96-4.33-4.39-8.41-6.74-12.52-.76-1.33-.7-2.19,.41-3.21,1.37-1.25,2.54-2.7,3.51-4.3,4.35-7.17,.1-15.58-8.28-16.38-1.85-.18-3.7,0-5.56,.15-2.91,.25-3.24,.48-2.91,3.17,.91,7.19,.99,14.39,.51,21.61-.16,2.47-.4,4.93-.75,7.38-.32,2.26,.86,3.47,2.66,4.34,1.99,.96,3.01,.66,4.05-1.27,.59-1.08,1.08-2.22,1.83-3.77Zm75.32-40.31c-.14-2.89-.35-5.24-.64-7.58-.54-4.44-.38-3.96-4.84-4.68-.51-.08-1.03-.11-1.54-.12-1.62-.01-1.85,.24-1.53,1.77,.31,1.51,.84,2.99,1.02,4.51,.85,6.95,1.36,13.93,1.28,20.94,0,.82,.02,1.65,0,2.47-.03,1.09,.55,1.35,1.54,1.41,2.63,.16,3.7-.44,4.84-2.88,.8-1.7,1.41-3.52,3.05-4.75,1.25,1.69,.94,3.55,1.39,5.21,.59,2.21,2.11,3.05,4.14,2.24,1.32-.53,1.65-1.81,1.98-2.97,1.74-6.12,3.31-12.3,4.22-18.6,.61-4.21,.5-4.23-3.7-5.34-.2-.05-.4-.11-.6-.17-1.04-.32-1.45,.13-1.64,1.16-.47,2.47-.45,5.03-1.34,7.63-.72-1.55-1.21-2.99-1.47-4.5-.16-.97-.48-1.93-1.55-2.07-1.1-.15-1.47,.87-1.99,1.65-.89,1.34-.97,3.13-2.63,4.68Zm-47.08-2.18c1.35,2.14,1.28,4.42,2.64,6.01,1.5,1.75,3.9,1.69,5.85,2.56,.63,.28,1.36,.82,2.03,.29,.76-.59,.54-1.5,.34-2.3-.18-.7-.4-1.39-.68-2.06-1.61-3.91-3.13-7.86-4.91-11.68-.69-1.49-.5-2.47,.5-3.58,1.51-1.69,2.94-3.45,4.44-5.15,4.16-4.73,4.13-4.8-1.76-7.1-1.38-.54-2.3-.41-3.21,.77-1.15,1.5-2.42,2.9-3.64,4.34-.49-1.85-.46-3.39-.5-4.92-.08-3.53-.09-3.53-3.49-4.84-.38-.15-.76-.33-1.16-.43-1.75-.44-2.28-.06-2.16,1.81,.42,7.03-.47,13.98-1.28,20.93-.3,2.56-.35,5.15-.55,7.72-.06,.76-.15,1.51,.82,1.71,1.97,.4,3.85,1.31,5.96,1.3,.26-1.79,.47-3.31,.77-5.37Zm-10.12,.96c-.81-3.46-1.76-7.05-2.49-10.67-1.09-5.46-3.17-10.67-4.07-16.18-.36-2.21-1.69-3.97-2.79-5.8-.72-1.19-2.26-1.12-3.14-.02-.37,.47-.6,1.08-.79,1.66-3.01,8.98-6.32,17.87-8.53,27.11-.58,2.4-.62,2.45,1.68,2.76,.72,.1,1.46,.11,2.14,.31,1.53,.45,2.45,0,3.25-1.44,1.93-3.44,2.01-3.4,5.83-2.23,.1,.03,.2,.09,.29,.09,1.95,.03,2.55,1.33,2.92,2.97,.63,2.78,1.01,3.08,3.69,3.37,1.65,.18,2.06-.18,2.01-1.93Zm25.34,45.12c-.14-1.99-.23-4.05-.44-6.1-.55-5.46-1.94-10.74-3.62-15.95-.33-1.03-.8-1.89-1.94-2.2-3.4-.92-6.07,1.15-6.35,4.73-.43,5.74-.95,11.47-2.73,17.02-.94,2.94-1.53,5.99-2.22,9-.29,1.24,.13,2.22,1.39,2.75,1.35,.57,2.32,.25,3.17-.99,.65-.95,1.15-1.95,1.58-3,.64-1.52,1.24-3.06,1.86-4.59,.24-.61,.56-1.12,1.34-1,.68,.11,.66,.69,.73,1.18,.22,1.53,.41,3.07,.64,4.6,.33,2.16,1.82,3.46,3.95,3.6,1.39,.09,2.15-.45,2.23-1.89,.12-2.37,.27-4.73,.4-7.17Zm-23.22,.49c-.34-1.22,.32-2.48,.4-3.78,.04-.57,.32-.84,.93-.99,3.38-.83,3.38-.85,3.45-4.12,.07-3.43,.08-3.51-3.21-3.71-1.38-.09-1.77-.58-1.66-1.88,.12-1.43,.06-2.88,.09-4.32,.05-2.28,.05-2.3,2.27-2.57,.93-.11,2.01-.08,2.42-1.05,.71-1.68,.34-3.47-.02-5.15-.32-1.5-1.88-1.51-3.04-1.66-2.43-.31-4.87-.53-7.36-.42-2.25,.1-2.74,.26-2.33,2.44,1.37,7.24,1.15,14.56,1.16,21.87,0,3.09-.21,6.18-.19,9.27,.02,2.4,.94,3.33,3.18,3.08,2.06-.23,4.1-.39,6.16-.28,1.4,.07,2.04-.74,2.33-1.98,.68-2.89-.31-4.18-3.31-4.34-.4-.02-.83,.09-1.26-.39Zm22.78-66.62c-.67,.57-.62,1-.62,1.4,.18,7.65-.27,15.27-1.21,22.86-.19,1.53-.12,3.09-.2,4.63-.04,.81,.21,1.37,1,1.71,3.48,1.5,6.95,3.02,10.47,4.56,.67-3.52,.6-3.67-1.45-4.85-.97-.56-2.37-.61-2.91-1.6-.64-1.17,.52-2.33,.59-3.56,.02-.41,.03-.82,.07-1.23,.1-.97,.64-1.19,1.51-.89,.68,.24,1.36,.49,2.06,.66,.64,.16,1.23,.02,1.6-.6,.91-1.51,.31-4.12-1.19-5.23-1.32-.97-3.25-1.42-3.93-2.84-.75-1.57,.54-3.39,.45-5.15-.01-.28,.16-.56,.27-.93,1.87,.27,2.98,2.28,5.03,2.21,.39-1.51,.21-2.94,.02-4.35-.11-.81-.34-1.67-1.15-2.1-3.44-1.82-7.02-3.31-10.41-4.69Zm70.01,70.85c.16-2.81-.11-5.6-.76-8.3-.94-3.9-2.55-3.51-5.45-2.17-1.03,.47-1.18,1.65-1.47,2.63-2.16,7.32-4.33,14.63-6.43,21.96-.64,2.24-.05,3.42,1.73,3.91,1.77,.5,2.83-.13,3.68-2.33,.55-1.44,.95-2.94,1.45-4.41,.18-.53,.54-.91,1.16-.69,.48,.16,.47,.63,.43,1.03-.16,1.75-.27,3.5-.52,5.23-.19,1.33,.35,2.01,1.6,2.07,1.12,.05,2.28,.98,3.27,.33,1.03-.68-.05-1.94,.25-2.91,.09-.29,.19-.6,.19-.91-.03-5.16,.7-10.28,.89-15.43Zm-9.11-29.46c-.05-1.49-.23-3.32-.59-5.15-1.05-5.36-2.38-10.64-3.84-15.89-.48-1.73-1.41-2.64-3.09-2.9-1.68-.26-1.76,1.25-2.18,2.14-2.73,5.88-5.16,11.87-6.67,18.21-1.07,4.5-1.16,4.43,3.3,5.32,1.44,.29,2.32,.28,2.63-1.48,.23-1.3,.73-2.54,2.69-2.12,2.07,.44,2.28,.46,2.59,2.72,.12,.88-.24,1.98,.81,2.49,1.2,.58,2.67,1.2,3.81,.73,1.06-.44,.73-1.97,.54-3.1-.03-.2,0-.41,0-.98Zm-58.66,3.08c-1.07,.09-2.21-.26-2.69,.72-.67,1.35-.38,2.85,.1,4.21,.4,1.13,1.44,.81,2.37,.83,2.02,.04,2.21,.27,2.42,2.33,.08,.82,.11,1.64,.11,2.47,.04,5.98-.77,11.9-1.25,17.84-.26,3.3,.4,4.19,3.63,4.91,1.47,.33,2.18-.17,2.38-1.55,.22-1.53,.42-3.06,.52-4.6,.4-6.06,.65-12.13,.53-18.2-.03-1.28,.12-2.23,1.8-2.06,1.32,.13,2.13-.46,2.2-1.93,.09-1.99-.38-3.07-1.93-3.35-3.44-.62-6.9-1.1-10.2-1.62Zm-62.79,31.44c-.94-.11-2.01-.23-2.26,.97-.27,1.28,.89,1.43,1.75,1.67,.49,.14,1.02,.12,1.53,.18,5.82,.73,11.66,1.36,17.46,2.21,11.41,1.67,22.8,3.46,34.2,5.18,.81,.12,1.63,.14,2.45,.13,.45,0,.75-.36,.83-.79,.08-.42-.09-.82-.46-1.06-.8-.53-1.73-.62-2.64-.77-6.91-1.13-13.81-2.27-20.72-3.42-10.67-1.77-21.41-2.99-32.14-4.32Zm-22.42-2.98c-.31-1.5,.04-2.91,.2-4.33,.29-2.67,.69-5.32,.89-7.99,.64-8.23,1.25-16.46,1.8-24.69,.16-2.47,.12-4.95,.13-7.43,0-.83-.07-1.79-1.17-1.84-1.13-.06-1.24,.85-1.27,1.72,0,.21,0,.41,0,.62-.41,11.24-1.36,22.43-2.46,33.62-.32,3.28-.72,6.56-1.1,9.84-.11,.95-.33,2.09,.75,2.42,2.08,.64,4.22,.64,6.25-.36,.5-.25,.84-.67,.77-1.22-.1-.78-.76-.96-1.39-.9-1.1,.11-2.18,.35-3.38,.55Zm159.33-1.59c-.1-1.86,.22-3.83-.23-5.76-.18-.8-.42-1.73-1.47-1.69-1.01,.04-1.74,.66-1.99,1.66-.15,.59-.09,1.23-.13,1.84-.44,5.74-.52,11.52-1.7,17.19-.27,1.3-.29,2.67-.28,4,.02,1.99,.95,3,2.69,3.07,1.7,.07,2-1.25,2.23-2.45,.33-1.71,.43-3.47,.75-5.19,.77-4.19-.1-8.39,.13-12.67Zm-142.02-94.18c-.41,0-.83-.04-1.24,.01-.64,.09-1.21,.37-1.33,1.08-.15,.91,.44,1.31,1.22,1.46,.81,.16,1.62,.33,2.44,.39,11.96,.79,23.82,2.25,35.57,4.63,.3,.06,.59,.18,.9,.23,.82,.14,1.47-.1,1.62-.98,.12-.69-.25-1.17-.94-1.37-.6-.17-1.18-.37-1.79-.5-12.03-2.55-24.21-4.04-36.47-4.95Zm89.02,20.5c-.8-.01-1.23,.29-1.43,.79-.28,.7,.13,1.21,.72,1.48,.65,.3,1.34,.51,2.04,.7,5.45,1.52,10.83,3.25,16.08,5.36,1.04,.42,2.57,1.46,3.17-.26,.58-1.65-1.22-1.85-2.29-2.27-5.64-2.24-11.44-4.02-17.32-5.51-.39-.1-.78-.23-.97-.29Zm-103.14-5.09c-.16-4.96-1.04-9.84-1.5-14.77-.07-.78-.33-1.39-.82-1.94-.35-.38-.8-.72-1.35-.44-.48,.24-.81,.65-.77,1.23,.02,.41,.1,.81,.18,1.22,1.1,5.58,1.41,11.24,1.62,16.91,.02,.62-.01,1.25,.09,1.85,.12,.74,.47,1.46,1.33,1.45,.88,0,1.2-.7,1.21-1.5,.02-1.34,0-2.68,0-4.02Zm155.65,68.12c1.72,.05,2.63-.95,2.74-2.98,.08-1.66-.67-2.5-2.32-2.6-1.77-.11-3.12,1.19-3.13,3,0,1.73,.83,2.51,2.72,2.57Zm-60.88,29.16c.88,.08,1.68,.14,1.9-.78,.21-.83-.28-1.38-1.06-1.59-1.38-.38-2.78-.72-4.17-1.05-.78-.18-1.51-.01-1.76,.79-.26,.85,.31,1.34,1.08,1.56,1.38,.39,2.77,.74,4.01,1.07Zm-94.77-81.81c0-.97,.03-1.37,0-1.78-.05-.64-.27-1.22-1.03-1.26-.75-.05-1.07,.47-1.2,1.11-.28,1.29-.58,2.59-.3,3.91,.11,.52,.48,.9,1.04,.94,.56,.04,1.03-.27,1.16-.79,.21-.88,.29-1.79,.34-2.14Zm103.03,80.99c-.45,.11-1.28-.13-1.55,.83-.12,.43,.02,.85,.38,1.09,1.23,.83,2.67,1.02,4.09,1.24,.37,.06,.76-.29,.93-.71,.23-.57,.01-1.06-.41-1.37-.95-.67-2.08-.86-3.44-1.08Z"/>
      <path class="cls-18" d="M757.82,334.32c-1.78-.51-2.83-2.02-4.15-3.13-7.37-6.15-15.71-10.68-24.42-14.52-16.72-7.38-33.67-14.12-51.12-19.64-18.62-5.89-37.58-10.25-56.78-13.72-12.89-2.33-25.87-4.01-38.89-5.32-6.77-.68-13.57-1-20.36-1.48-10.81-.77-21.64-.99-32.46-1.35-9.29-.31-18.58-.4-27.87-.21-9.8,.2-19.59,.58-29.37,1.15-11.53,.67-23.04,1.57-34.55,2.48-9.14,.72-18.29,1.44-27.4,2.5-6.85,.79-13.65,2.06-20.46,3.2-8.44,1.41-16.82,3.11-25.45,3.07-3.18-.02-6.38,.36-9.58,.45-2.39,.07-4.74-.2-7.07-.67-3.96-.8-5.83-2.46-7.45-6.66,3.13-.64,6.1,.38,9.11,.7,9.65,1.03,19.3,1.58,29.01,.62,20.03-1.98,39.81-5.48,59.55-9.31,14.07-2.73,28.19-5.14,42.42-6.85,10.23-1.23,20.48-2.37,30.74-3.37,8.1-.79,16.2-1.69,24.32-2.3,12.37-.94,24.77-1.03,37.14-.49,12.66,.55,25.3,1.47,37.87,3.33,15.84,2.35,31.48,5.55,46.81,10.13,12.27,3.66,24.22,8.21,35.98,13.31,9.94,4.31,19.82,8.76,29.51,13.61,1.21,.6,2.55,.79,3.78,1.23,2.42,.87,4.69,2.17,6.57,4,7.85,7.64,15.52,15.44,21.94,24.36,1.07,1.49,2.39,2.86,2.76,4.76l-.13,.13Z"/>
      <path class="cls-8" d="M536,815.1c.22-6.67,2.37-13.12,6.46-18.95,6.74-9.6,15.54-16.72,25.97-21.98,7.85-3.96,16.16-6.19,24.86-7.1,5.65-.59,11.29-1.17,16.99-.86,8.12,.43,15.66,2.78,22.41,7.26,7.51,4.98,12.96,13.64,10.32,25.55-.56,2.51-1.04,5.06-2.08,7.44-.93,2.14-1.07,2.23-3.18,1.56-14.93-4.75-29.63-3.95-44.31,1.36-7.88,2.85-15.02,6.72-21.32,12.26-4.95,4.35-9.17,9.22-12.05,15.17-.53,1.09-1.15,1.57-2.36,1.43-.93-.1-1.83-.24-2.73-.5-3.4-1-6.46-2.69-9.46-4.53-6.61-4.06-9.43-10.12-9.52-18.11Z"/>
      <path class="cls-8" d="M617.15,736.81c-.34-.04-.66,0-.9-.12-9.03-4.56-18.72-5.44-28.61-5.1-5.37,.18-10.65,1.14-15.91,2.2-1.13,.23-2.2,.39-3.34,.01-12.74-4.21-25.57-3.47-38.47-.76-5.84,1.23-11.69,2.49-17.69,2.88-4.48,.29-8.3-1.25-11.79-3.84-3.19-2.36-4.46-5.75-4.07-9.52,.58-5.55,1.92-10.96,4.32-16.04,.75-1.59,1.84-2.97,3.08-4.24,9.9-10.12,22.08-15.11,36.06-15.31,17.96-.26,34.96,3.94,50.81,12.47,7.89,4.25,14.1,10.32,18.7,18.05,3.18,5.34,6.06,10.79,7.56,16.87,.12,.5,.28,.99,.36,1.5,.04,.29-.05,.59-.09,.95Z"/>
      <path class="cls-8" d="M534.42,807.42c-8.02-8.59-11.49-18.18-8.65-29.44,2.56-10.16,7.27-19.17,14.67-26.82,5.8-5.99,13.05-9.3,20.61-11.94,11.06-3.86,22.51-5.87,34.31-5.22,9.68,.53,18.78,2.71,26.25,9.43,3.48,3.13,6.42,6.66,8.46,10.94,2.31,4.83,1.73,9.57,.14,14.32-1.05,.3-1.71-.32-2.42-.64-9.11-4.09-18.63-4.99-28.45-3.94-6.15,.66-12.35,1.07-18.33,2.77-17.17,4.88-31.24,14.22-41.3,29.17-1.15,1.7-2.1,3.56-2.97,5.42-.82,1.77-1.42,3.64-2.3,5.96Z"/>
      <path class="cls-1" d="M655.6,461.92c-.79-.23-1.59-.21-2.38-.02-.67-.54-.46-.99,.11-1.47,3.17-2.64,5-6.25,7.01-9.73,1.15-1.99,1.85-4.15,2-6.45,.23-3.71,.24-7.42-.52-11.09-.73-3.53-2.11-6.68-5.22-8.81-.51-.35-1.08-.66-.98-1.42,6.18,.31,12.36,.48,18.52,1.1,5.19,.52,9.83,2.25,13.81,5.6,2.61,2.19,5.13,4.5,7.1,7.31,2.73,3.9,2.02,9.07-1.08,12.71-6.96,8.17-16.13,11.04-26.37,11.62-1.95,.11-3.9,.23-5.85,.35-2.06-.09-4.11-.08-6.15,.31Z"/>
      <path class="cls-17" d="M655.62,422.93c-.1,.77,.47,1.07,.98,1.42,3.11,2.13,4.49,5.27,5.22,8.81,.75,3.67,.75,7.38,.52,11.09-.14,2.3-.85,4.46-2,6.45-2.01,3.48-3.83,7.09-7.01,9.73-.57,.47-.79,.92-.11,1.47-3.3-.7-6.69-1.12-9.88-2.15-5.68-1.84-11.66-2.44-17.31-4.41-2-.7-4.22-.75-6.34-1.1,.15-.53-.03-1.01-.18-1.5-2.92-9.75-.09-18.99,7.8-25.47,1.09-2.06,3.25-1.46,4.92-1.8,4-.81,8.1-1.19,12.13-1.85,1.92-.31,3.77,.89,5.75-.03,1.27-.59,2.79-.63,4.17-.99,.56-.15,.99-.16,1.34,.34Zm-9.03,33.5c4.27,.08,9.3-4.36,9.65-8.55,.15-1.72-.42-3.23-1.5-4.58-.84-1.06-1.9-1.61-3.24-1.38-4.43,.77-7.94,2.94-9.78,7.16-1.59,3.62,.93,7.28,4.86,7.35Zm-16.57-3.17c2.11-.02,3.94-1.28,3.97-2.72,.03-1.4-2.1-3.34-3.59-3.26-1.86,.1-3.88,1.96-3.77,3.48,.1,1.44,1.56,2.52,3.39,2.5Zm1.71-23.15c-1.68-.04-3.4,1.34-3.51,2.81-.09,1.17,.62,1.85,1.9,1.83,1.84-.02,3.82-1.56,3.77-2.96-.06-1.37-1.09-1.56-2.15-1.68Z"/>
      <path class="cls-18" d="M373.48,152.12c.17-2.59,.77-4.54,1.7-6.36,5.5-10.72,13.19-19.37,23.78-25.34,7.37-4.15,14.92-4.17,22.65-1.24,3.68,1.4,7.14,3.24,10.27,5.63,1.86,1.42,1.81,1.96-.38,2.85-6.02,2.43-12.12,4.67-18.09,7.22-8.15,3.48-16.15,7.31-24.34,10.7-5.03,2.08-10.02,4.28-15.58,6.54Z"/>
      <path class="cls-1" d="M627.3,427.26c-7.89,6.48-10.72,15.72-7.8,25.47,.15,.49,.33,.98,.18,1.5-6.44-.52-12.4-2.63-18.16-5.42-2.39-1.16-4.16-3.09-5.66-5.14-2.5-3.4-1.02-7.52,2.93-8.91,6.11-2.15,12.18-4.43,18.33-6.47,2.99-.99,6.15-1.43,9.28-1.84,.61-.08,.99,.09,.9,.8Z"/>
      <path class="cls-16" d="M700.29,209.27c-.27,2.37-.31,2.45-2.14,1.65-5.89-2.55-11.97-4.52-18.17-6.11-1.42-.37-1.79-.86-1.54-2.32,.8-4.48,.72-9.02,.73-13.55,0-2.97,.06-5.93-.86-9.16,2.33,.19,3.9,1.38,5.59,2.2,.9,.44,.74,1.4,.76,2.21,.09,3.71,.17,7.42,.24,11.13,.01,.72,.06,1.45-.02,2.17-.41,3.64,1.38,5.73,4.82,6.92,.37-7.06-1.56-13.67-3.01-20.57,1.92,.1,3.05,1.29,4.44,1.81,.76,.29,1.41,1.36,2.4,.44,0,0-.07,0-.07,0-.46,.86-.4,1.54,.65,1.88,0,0-.02-.04-.02-.04-.08,.39-.29,.79-.23,1.16,.77,5.15,1.55,10.29,2.39,15.43,.3,1.88,1.55,2.7,3.42,2.66,0,0-.03-.03-.03-.03-.31,.88,.18,1.52,.66,2.16v-.03Z"/>
      <path class="cls-11" d="M701.49,252.73c-.91-1.8-.44-4.07-1.88-5.7-.2-.23-.31-.54-.9-.52-.83,.9-1.05,2.25-1.61,3.42-.54,1.11-.98,1.91-2.54,1.36-1.42-.5-2.12-1.1-1.69-2.66,1.01-3.68,1.51-7.46,2.12-11.22,.51-3.15,.96-6.31,1.43-9.46,.14-.93,.24-2.01,1.43-2.06,1.13-.05,2.03,.72,2.28,1.76,.54,2.2,.86,4.45,1.29,6.67,.36,1.88,.73,3.76,1.13,5.83,1.76-1.5,1.69-3.41,2.49-4.91,.62,4.08,1.24,8.15,1.3,12.29-.91,1.49-.85,3.36-1.93,4.78-.98,.14-1.95,.28-2.93,.42Z"/>
      <path class="cls-1" d="M699.66,207.18c-1.86,.04-3.11-.77-3.42-2.66-.83-5.14-1.62-10.28-2.39-15.43-.05-.37,.15-.77,.23-1.16,.33,.07,.48,.29,.59,.6,1.97,5.61,3.52,11.35,4.92,17.12,.12,.48,.05,1.02,.06,1.52Z"/>
      <path class="cls-2" d="M670.38,322.03c.02,.3,.04,.6,.05,.9-1.79-.37-3.44-1.09-5-2.07,1.74,.05,3.41,.32,4.94,1.17Z"/>
      <path class="cls-17" d="M592.44,487.96c.21,1.45,.19,2.9-.1,4.34-.86-1.47-.98-2.92,.1-4.34Z"/>
      <path class="cls-17" d="M655.6,461.92c2.04-.39,4.09-.4,6.15-.31-2.99,.64-4.89,.73-6.15,.31Z"/>
      <path class="cls-17" d="M589.25,514.64c-.2-1.25-.28-2.49,.08-3.72,.87,1.26,.91,2.5-.08,3.72Z"/>
      <path class="cls-17" d="M591.82,502.84c.2,1.24,.22,2.48-.11,3.71-.83-1.26-.93-2.5,.11-3.71Z"/>
      <path class="cls-17" d="M590.5,486.12c-.21-1.04-.23-2.07,.07-3.1,.84,1.05,.88,2.09-.07,3.1Z"/>
      <path class="cls-17" d="M588.62,536.96c-.22-.64-.17-1.25,.11-1.86,.76,.67,.72,1.29-.11,1.86Z"/>
      <path class="cls-8" d="M680.46,170.39c0-.3,.02-.61,.03-.91,.81,.01,1.36,.48,1.85,1.05-.14,.18-.29,.36-.43,.54-.48-.22-.97-.45-1.45-.67Z"/>
      <path class="cls-17" d="M589.89,498.51c-.23-.42-.21-.83,.08-1.23,.61,.45,.54,.85-.08,1.23Z"/>
      <path class="cls-1" d="M700.29,209.3c-.48-.64-.97-1.27-.66-2.16,.82,.53,.53,1.41,.66,2.16Z"/>
      <path class="cls-1" d="M694.11,187.97c-1.04-.34-1.11-1.02-.65-1.88,.69,.46,.86,1.11,.65,1.88Z"/>
      <path class="cls-18" d="M689.21,170.51c.46,.36,.64,.81,.46,1.38l.05-.04c-.5-.14-.71-.56-.94-.96,.14-.12,.29-.25,.44-.37Z"/>
      <path class="cls-13" d="M645.73,421.05c.32-.21,.65-.28,1-.08-.34,.03-.67,.05-1,.08Z"/>
      <path class="cls-10" d="M693.55,418.43c.39,.22,.5,.67,.24,.89-.34,.29-.51-.24-.75-.42,.17-.16,.34-.32,.51-.48Z"/>
      <path class="cls-18" d="M689.67,171.89c.66,0,.75,.52,.87,1-.14,.13-.27,.25-.41,.37-.42-.39-.44-.9-.42-1.42,0,0-.05,.04-.05,.04Z"/>
      <path class="cls-18" d="M690.87,174.41c-.48-.24-.63-.68-.74-1.15,.14-.12,.27-.24,.41-.37,.4,.31,.62,.72,.59,1.23-.09,.1-.18,.19-.27,.29Z"/>
      <path class="cls-18" d="M691.69,174.83c.47,.28,.63,.72,.63,1.24-.08,.07-.16,.15-.24,.22-.49-.23-.63-.67-.69-1.16,.1-.1,.2-.2,.3-.3Z"/>
      <path class="cls-18" d="M694.54,180.64c-.36-.22-.52-.54-.44-.95,.01-.07,.16-.2,.2-.18,.4,.17,.48,.53,.49,.91-.08,.08-.17,.15-.25,.22Z"/>
      <path class="cls-18" d="M692.33,176.07c.49,.33,.7,.76,.49,1.35l-.03,.03c-.52-.22-.64-.67-.7-1.17,.08-.07,.16-.15,.24-.22Z"/>
      <path class="cls-18" d="M695.49,181.61c.41,.3,.53,.75,.66,1.21-.15,.12-.3,.24-.44,.38-.41-.33-.54-.79-.58-1.28,.12-.1,.24-.2,.36-.3Z"/>
      <path class="cls-18" d="M694.79,180.42c.47,.26,.6,.71,.7,1.19-.12,.09-.24,.19-.36,.3-.45-.31-.55-.77-.59-1.26,.08-.07,.17-.15,.25-.22Z"/>
      <polygon class="cls-10" points="693.83 453.7 693.67 453.76 693.71 453.58 693.83 453.7"/>
      <path class="cls-18" d="M757.95,334.19c.12,.11,.25,.22,.37,.33-.35,.39-.4,.03-.5-.2,0,0,.13-.13,.13-.13Z"/>
      <path class="cls-8" d="M682.35,170.53c.3-.01,.54,.06,.66,.37-.18,.13-.36,.26-.54,.4-.18-.08-.36-.15-.55-.23,.14-.18,.29-.36,.43-.54Z"/>
      <path class="cls-18" d="M691.14,174.12c.18,.24,.37,.47,.55,.71-.1,.1-.2,.2-.3,.3-.17-.24-.34-.48-.52-.72,.09-.09,.18-.19,.27-.29Z"/>
      <path class="cls-18" d="M692.82,177.42c.14,.06,.29,.12,.43,.18-.07,.1-.14,.2-.21,.29-.08-.15-.17-.3-.25-.44,0,0,.03-.03,.03-.03Z"/>
      <path class="cls-17" d="M494.67,384.98c11.27,.11,22.47,.9,33.44,3.77,5.63,1.47,10.9,3.69,15.78,6.94,5.59,3.71,9.71,8.53,12.49,14.61,2.3,5.03,1.87,10.04,.22,15.04-.75,2.26-2.71,3.58-4.69,4.75-4.72,2.79-9.96,3.84-15.3,4.62-8.4,1.22-16.41-.66-24.41-2.82-12.41-3.36-24.06-8.64-35.63-14.1-4.48-2.11-8.93-4.28-13.35-6.52-8.21-4.17-16.76-7.46-25.58-10.09-1.34-.4-3.11-.53-3.28-2.34-.19-1.93,1.57-2.55,2.93-3.17,7.06-3.22,14.33-5.93,21.99-7.2,10.69-1.78,21.43-3.22,32.29-3.49,1.03-.03,2.06,0,3.1,0Zm14.64,43.47c7.16,2.24,13.62,4.03,20.34,4.22,6.55,.19,12.97-.85,18.97-3.64,5.6-2.61,8.39-9.1,6.55-15-1.67-5.33-4.49-9.93-8.88-13.5-4.77-3.87-9.99-6.9-15.92-8.64-4.85-1.43-9.79-2.46-14.8-3.15-1.86-.25-3.7-.74-6-.43,1.6,1.14,2.88,1.97,4.07,2.91,8.45,6.74,10.18,15.41,5.29,25.03-2.31,4.56-4.84,8.85-9.62,12.19Zm-37.29-15.43c.45-11.21,4.54-19.87,14.9-25.51-17.28,1.73-33.99,2.81-49.68,11.03,12.37,3.47,23.6,8.53,34.79,14.48Zm32.28,6.26c2.75-.06,5.63-.95,7.63-3.7,.95-1.3,1.51-2.73,.72-4.32-.85-1.7-2.37-2.23-4.13-2.11-3.12,.22-5.76,1.49-7.8,3.88-1.14,1.33-1.76,2.82-.86,4.54,.85,1.6,2.33,1.88,4.44,1.71Zm-14.28-8.1c0-1.23-1.14-2.35-2.4-2.36-1.77,0-3.86,1.63-3.79,2.95,.07,1.31,1.34,2.41,2.76,2.38,1.71-.03,3.43-1.53,3.43-2.98Zm3.38-16.55c-.06-.89-.54-1.36-1.37-1.4-1.14-.06-2.12,.38-2.38,1.53-.23,1.01,.58,1.5,1.49,1.52,1.14,.03,1.96-.51,2.26-1.65Z"/>
      <path class="cls-17" d="M547.55,380.97c-7.5-6.81-16.38-11.15-26.05-13.68-11.25-2.94-22.73-4.1-34.36-2.7-4.75,.57-9.31,1.78-13.65,3.79-.98,.45-2.36,1.49-2.99,.19-.74-1.53,1.06-1.95,2.09-2.45,4.22-2.03,8.69-3.39,13.33-3.83,18.67-1.8,36.66,.32,53.31,9.71,10.87,6.13,18.72,15.06,24.2,26.18,.73,1.49,1.37,3.01,1.23,4.73-.06,.67-.36,1.23-1.11,1.24-.61,.01-.84-.47-.97-1-2.13-8.72-7.64-14.63-15.46-18.63-10.07-5.15-20.87-7.64-32.04-8.76-12.09-1.21-24.11,.06-36.14,1.1-7.4,.64-14.78,1.5-22.13,2.54-1.02,.14-2.72,.76-2.96-.67-.29-1.69,1.53-1.54,2.67-1.71,14.92-2.16,29.92-3.67,44.98-4.13,15.43-.47,30.44,1.87,44.61,8.4,.28,.13,.59,.16,.89,.24,.36,.37,.82,.82,1.23,.28,.22-.28-.35-.62-.68-.84Z"/>
      <path class="cls-15" d="M375.01,436.61c.01,3.55-.65,6.55-1.13,9.58-.14,.88-.5,1.44-1.52,1.61-4.25,.73-8.49,1.55-12.73,2.32-.16,.03-.35-.15-.8-.36,.62-2.92,.65-5.98,.58-9.04-.03-1.19,.5-1.61,1.59-1.78,4.56-.73,9.12-1.51,14.01-2.33Z"/>
      <path class="cls-17" d="M390.31,416.48c-.91,5.43-.81,10.87-.03,16.31,1.48,10.25,3.8,20.24,8.85,29.41,1.34,2.43,2.53,4.95,3.76,7.45,.32,.64,.59,1.32,.77,2.01,.15,.55-.13,1.03-.66,1.24-.41,.16-.84,0-1.09-.36-.41-.59-.81-1.19-1.14-1.83-1.91-3.77-3.92-7.49-5.66-11.33-5.72-12.6-8.33-25.81-7.46-39.65,.08-1.22,.3-2.45,.56-3.65,.14-.62,.62-1.16,1.33-1.04,.75,.13,.87,.77,.76,1.45Z"/>
      <path class="cls-17" d="M560.4,430.96c.73,1.53-.17,2.4-.98,3.11-7.24,6.38-15.02,11.58-25.29,11.11-1.64-.08-3.29,0-4.94-.03-.82-.01-1.65-.07-2.39-.5-.39-.23-.62-.57-.57-1,.05-.43,.35-.76,.76-.86,.39-.1,.81-.12,1.22-.12,.72,0,1.45-.01,2.16,.07,9.99,1.14,18.31-2.63,25.84-8.77,1.32-1.07,2.57-2.26,4.18-3.01Z"/>
      <path class="cls-17" d="M430.88,314.57c1.26,.81,.92,1.54,.76,2.21-2.58,11.1-7.03,21.3-14.49,30.03-.74,.86-1.05,2.03-2.04,2.69-.45,.3-.98,.4-1.45,.07-.53-.37-.43-.88-.12-1.34,.82-1.19,1.6-2.4,2.49-3.54,5.26-6.71,9.36-14.03,11.87-22.22,.81-2.63,1.93-5.17,2.97-7.91Z"/>
      <path class="cls-17" d="M449.6,429.91c-.1,.61-.45,.93-1.02,1-.65,.08-1.21-.21-1.75-.5-8.93-4.8-17.35-10.27-23.82-18.28-.58-.72-1.2-1.44-1.35-2.39-.09-.53,.07-1.03,.6-1.3,.58-.3,1.01,.02,1.31,.45,6.01,8.79,14.91,13.96,23.85,19.1,.86,.49,1.99,.72,2.2,1.92Z"/>
      <path class="cls-17" d="M435.78,324.51c-.18,.58-.4,1.59-.8,2.53-2.74,6.5-6.45,12.39-11.17,17.63-.48,.53-1.01,1.03-1.57,1.48-.4,.32-.9,.57-1.36,.08-.41-.44-.36-.99-.04-1.42,.55-.74,1.17-1.43,1.78-2.13,3.95-4.52,7.21-9.49,9.79-14.91,.62-1.3,1.17-2.62,1.44-4.05,.13-.68,.39-1.52,1.39-1.21,.73,.23,.67,.93,.54,1.99Z"/>
      <path class="cls-17" d="M372.86,453.08c.25,1.53-.47,2.2-2.01,2.37-3.79,.42-7.57,.94-11.36,1.4-.59,.07-1.32,.23-1.42-.68-.08-.71-.08-1.48,.62-1.95,.25-.17,.57-.23,.87-.29,3.83-.81,7.67-1.61,11.5-2.43,1.32-.28,2.01,.08,1.8,1.58Z"/>
      <path class="cls-17" d="M370.36,458.95c-.27,2.31-1.68,2.83-3.26,3.12-2.89,.53-5.81,1.32-9.12-1.07,4.35-1.28,8.28-1.31,12.39-2.05Z"/>
      <path class="cls-13" d="M380.72,200.35c6.8-.04,13.05,1.7,18.69,5.53,.17,.12,.35,.21,.53,.31,1.34,.77,2.6,1.97,4.02,2.19,1.61,.25,2.43-1.66,3.66-2.54,10.78-7.78,22.4-9.86,34.71-4.37,9.04,4.03,14.75,11.26,16.68,20.98,2.64,13.25-1.89,24.17-11.98,32.83-6.35,5.45-13.93,8.09-22.24,8.01-7.52-.08-14.46-2.41-20.14-7.53-2.46-2.22-2.82-1.38-4.48,.25-8.04,7.92-17.77,12.08-29.01,11.7-17.99-.6-30.64-14.01-29.63-31.58,.62-10.87,5.84-19.67,14.14-26.55,7.22-5.98,15.59-9.12,25.03-9.23Zm1.71,2.51c-19.76-.09-36.2,14.19-38.27,32.24-1.7,14.78,8.09,26.15,19.68,28.62,4.59,.98,9.15,1.32,13.81,.51,8.19-1.42,15.23-5,21.08-10.91,1.65-1.67,1.64-1.89,.36-3.94-1.71-2.73-3.05-5.62-3.82-8.75-2.36-9.69-.54-18.61,4.95-26.84,1.75-2.62,1.77-2.62-.73-4.58-5.49-4.28-11.78-6.25-17.06-6.35Zm42.62,57.73c1.34-.06,2.69-.03,4.01-.21,13.31-1.82,23.96-11.44,27.25-24.56,3.17-12.65-2.69-25.67-14.3-31.53-8.13-4.11-16.46-4.18-24.84-.83-11.21,4.47-20.7,15.31-20.3,29.82,.52,19.09,16.09,27.65,28.18,27.32Z"/>
      <path class="cls-17" d="M478.11,180.12c-.12,1.8-.28,4.16-.45,6.53-.02,.3-.09,.61-.19,.9-.22,.61-.56,1.15-1.3,1.11-.91-.05-1.26-.72-1.24-1.49,.06-1.64,.26-3.28,.34-4.92,.08-1.65,.05-3.3,.15-4.95,.05-.85,.34-1.74,1.39-1.71,1.06,.03,1.24,.94,1.28,1.8,.04,.72,0,1.44,0,2.73Z"/>
      <path class="cls-17" d="M581.28,622.42c-.02-.84-1.83-1.28-.67-2.28,.89-.77,1.75,.11,2.45,.67,2.29,1.86,4.11,4.06,4.85,7,.12,.49,.2,1.01,.17,1.52-.01,.25-.28,.54-.5,.7-.42,.29-.78,.02-1.07-.28-.14-.14-.2-.35-.32-.52-.54-.82-.25-2.42-1.46-2.46-.88-.03-1.81,.87-2.7,1.39-2.84,1.68-5.7,3.32-8.39,5.25-4.27,3.06-9.36,3.62-14.33,4.52-13.46,2.44-26.22,.22-38.66-5.24-19.79-8.69-36.49-21.28-49.77-38.35-1.52-1.95-2.87-4.04-4.25-6.1-.94-1.4-1.22-2.98-1.39-4.66-.12-1.13,.45-1.23,1.13-1.38,.88-.19,1.59,.36,2.32,.71,5.44,2.56,11.15,4.3,16.97,5.79,5.19,1.33,10.28,3.06,15.42,4.6,6.95,2.09,14.19,2.68,21.25,4.23,6.98,1.53,13.52,3.81,18.56,9.19,1.47,1.57,3.21,2.11,5.33,1.67,6.44-1.32,12.12,.52,17.06,4.57,4.69,3.85,9.95,6.61,15.38,9.17,.73,.34,1.42,.89,2.32,.59,.21,.25,.43,.25,.66,.02-.11-.1-.23-.21-.34-.31Zm-4.89,4.39c-3.89-.21-7.27,.19-10.67-.35-8.19-1.3-16.09-3.68-23.8-6.58-24.25-9.13-47.85-19.71-70.62-32.1-.48-.26-.95-.91-1.67-.2,.55,1.32,1.46,2.44,2.32,3.59,13.53,18.01,30.85,31.1,51.62,39.67,7.66,3.16,15.51,5.56,23.97,5.35,6.01-.15,11.91-1.07,17.79-2.14,2.24-.41,4.39-1.23,6.29-2.49,1.76-1.16,3.63-2.28,4.77-4.75Zm-93.57-36.05c.98,1.16,1.9,1.42,2.7,1.85,15.2,8.15,31.13,14.7,47.07,21.21,9.36,3.83,18.82,7.37,28.73,9.51,4.57,.99,9.2,2.17,13.89,.79,.14-.48-.17-.68-.43-.79-5-2.1-9.22-5.41-13.55-8.58-2.24-1.64-4.67-3.01-7.48-3.58-2.16-.43-4.29-.45-6.45-.05-3,.56-5.66,.14-7.94-2.24-1.56-1.63-3.42-2.96-5.31-4.23-4.41-2.95-9.5-4.09-14.54-4.95-10.39-1.78-20.64-3.96-30.58-7.51-1.82-.65-3.7-1.22-6.1-1.44Z"/>
      <path class="cls-17" d="M463.08,575.83c-2.33-.07-4.51,.35-6.3,2.02-.36,.34-.81,.66-1.28,.79-.51,.15-1.01-.08-1.3-.59-.23-.4-.14-.77,.09-1.15,1.36-2.24,7.44-4.15,9.86-3.08,.7,.31,1.38,.77,1.06,1.61-.43,1.13-1.38,.43-2.13,.4Z"/>
      <path class="cls-11" d="M653.36,233.83c.11-5.19,1.13-10.24,1.89-15.31,.56-3.77,3.43-6.63,7.11-7.04,3.49-.39,6.72,.79,9.96,1.83,.88,.28,1.3,.99,1.34,1.9,.07,1.99-.42,3.91-1.14,5.72-.6,1.5-3.05,2.29-4.54,1.66-.99-.42-1.13-1.21-1.23-2.24-.23-2.32-1.93-3.11-3.94-1.91-.78,.47-1.61,1.07-2.06,1.83-2.46,4.05-3.42,8.4-1.92,13.01,.86,2.63,2.32,3.08,4.76,1.83,1.16-.59,1.91-1.53,2.52-2.64,.48-.87,.88-1.68-.26-2.37-.67-.4-.92-1.01-.93-1.82-.05-2.13,.73-2.83,2.83-2.41,2.96,.59,4.5,2.58,4.06,5.54-.41,2.75-1.01,5.47-1.58,8.2-.12,.6-.38,1.19-.68,1.72-1.12,2.01-3.12,2.42-4.47,.62-.9-1.2-1.39-1.21-2.7-.72-2.98,1.11-5.6-.31-8.05-1.84-.66-.42-.77-.97-1.88-.41-2.63,1.32-5.17-.38-5.43-3.29-.15-1.74-.28-3.49-.48-5.23-.08-.7-.26-1.34-1.06-1.73-1.51-.74-2.3-.54-2.8,1.04-.56,1.77-.98,3.58-1.56,5.35-.74,2.23-1.5,2.74-3.27,2.4-2.42-.47-3.42-1.5-3.45-3.59,0-.62,0-1.26,.15-1.85,1.48-5.8,3.08-11.56,5.87-16.9,1.15-2.19,2.27-4.4,3.43-6.59,.49-.92,1.05-1.89,2.26-1.86,1.37,.03,2.31,.85,2.81,2.09,.73,1.81,1.58,3.56,1.87,5.55,.73,4.99,2.06,9.88,1.85,15.01-.06,1.48,.49,2.99,.76,4.48Zm-7.7-15.05c-.99,1.54-1.25,2.83-1.28,4.18-.02,.99,.5,1.56,1.48,1.57,.97,.01,1.16-.7,1.15-1.47-.01-1.42-.21-2.8-1.36-4.27Z"/>
      <path class="cls-16" d="M550.19,184.94c3.84-.28,7.46,1.3,11.12,2.68,1.58,.6,2.09,1.8,1.98,3.44-.24,3.65-2.14,6.03-5.33,6.5-2.53,.38-2.9,.12-3.63-2.48-.58-2.08-1.3-2.55-3.19-2.27-1.11,.16-1.55,.97-1.94,1.8-2.9,6.15-1.85,12.06,1.24,17.78,.78,1.44,1.91,1.41,2.9,.02,.59-.83,.98-1.81,1.38-2.75,1.31-3.12,.94-3.94-2.29-4.26-2.31-.23-3.64-2.72-2.79-4.83,.4-1.01,1.25-1.31,2.23-1.36,3.48-.17,6.76,.66,9.85,2.21,1.15,.57,1.89,1.6,2.16,2.88,.22,1.01,.52,2.03,.51,3.05-.04,5.06-.23,10.11-1.66,15.02-.9,3.1-2.46,3.73-5.24,2.08-.83-.5-1.31-1.26-2.65-.72-5.86,2.37-11.89-.66-13.76-6.86-1.02-3.37-1.44-6.88-1.27-10.4,.25-5.15,.46-10.31,2.26-15.24,.14-.39,.25-.79,.39-1.17,1.73-4.59,2.58-5.16,7.74-5.12Z"/>
      <path class="cls-16" d="M549.66,162.35c-.88,3.68-2.16,6.69-2.83,9.92-.97,4.7-1.09,4.7-6.17,4.23,.14-2.1,.22-4.22,.43-6.32,.89-9.22,1.31-18.48,1.85-27.72,.08-1.38-.07-2.77,1.66-3.21,1.4-.36,3.62,.69,4.42,2.04,1.9,3.18,3.4,6.57,4.97,9.92,.22,.46,.34,.98,1.02,1.26,1.15-3.17,1.89-6.46,3.25-9.55,.56-1.28,1.27-1.99,2.76-1.99,2.28,0,3.11,.68,3.43,3.01,.74,5.41,1.6,10.81,2.22,16.23,.54,4.71,1.24,9.41,1.15,14.17-.05,2.37-.4,2.96-2.07,3.09-2.94,.23-3.91-.32-4.36-2.6-.66-3.34-1.27-6.68-1.92-10.14-1.49,.99-1.65,2.68-2.51,3.91-1.37,1.97-2.05,2.03-3.33,.09-1.28-1.94-2.46-3.93-3.95-6.33Z"/>
      <path class="cls-16" d="M573.56,220.76c-.75,1.56-1.25,2.69-1.83,3.77-1.05,1.93-2.06,2.23-4.05,1.27-1.8-.87-2.99-2.08-2.66-4.34,.35-2.45,.59-4.91,.75-7.38,.48-7.21,.4-14.42-.51-21.61-.34-2.69,0-2.91,2.91-3.17,1.86-.16,3.7-.33,5.56-.15,8.38,.8,12.63,9.21,8.28,16.38-.97,1.6-2.14,3.05-3.51,4.3-1.11,1.01-1.17,1.88-.41,3.21,2.35,4.12,4.78,8.2,6.74,12.52,.3,.65,.61,1.32,.77,2.01,.17,.77-.14,1.42-.88,1.8-1.57,.79-4.96,.03-6.2-1.37-1.84-2.09-3.07-4.61-4.95-7.24Zm-1.51-15.68c.23,.09,.46,.17,.69,.26,1.31-1.13,2.33-2.52,3.15-4.06,.49-.92,.45-1.8-.34-2.52-.82-.76-1.88-.93-2.89-.63-1.13,.33-.58,1.36-.6,2.1-.05,1.62-.02,3.24-.02,4.85Z"/>
      <path class="cls-16" d="M648.88,180.45c1.66-1.55,1.74-3.34,2.63-4.68,.52-.78,.89-1.79,1.99-1.65,1.06,.14,1.38,1.1,1.55,2.07,.25,1.52,.75,2.95,1.47,4.5,.89-2.61,.87-5.16,1.34-7.63,.19-1.02,.6-1.47,1.64-1.16,.2,.06,.4,.11,.6,.17,4.19,1.11,4.31,1.13,3.7,5.34-.92,6.3-2.48,12.48-4.22,18.6-.33,1.16-.66,2.45-1.98,2.97-2.03,.81-3.55-.03-4.14-2.24-.45-1.66-.14-3.52-1.39-5.21-1.63,1.23-2.25,3.05-3.05,4.75-1.14,2.44-2.21,3.03-4.84,2.88-.98-.06-1.57-.33-1.54-1.41,.03-.82,0-1.65,0-2.47,.07-7.01-.43-13.99-1.28-20.94-.19-1.52-.71-3-1.02-4.51-.32-1.53-.08-1.78,1.53-1.77,.51,0,1.03,.04,1.54,.12,4.46,.72,4.3,.24,4.84,4.68,.28,2.35,.5,4.69,.64,7.58Z"/>
      <path class="cls-16" d="M601.79,178.27c-.3,2.06-.51,3.58-.77,5.37-2.11,0-3.99-.9-5.96-1.3-.96-.2-.87-.95-.82-1.71,.2-2.57,.25-5.16,.55-7.72,.81-6.96,1.69-13.9,1.28-20.93-.11-1.87,.42-2.25,2.16-1.81,.4,.1,.77,.29,1.16,.43,3.4,1.31,3.41,1.31,3.49,4.84,.03,1.54,0,3.08,.5,4.92,1.22-1.44,2.49-2.85,3.64-4.34,.91-1.19,1.83-1.31,3.21-.77,5.89,2.3,5.93,2.36,1.76,7.1-1.5,1.7-2.93,3.47-4.44,5.15-1,1.11-1.19,2.1-.5,3.58,1.78,3.83,3.3,7.78,4.91,11.68,.27,.67,.5,1.36,.68,2.06,.2,.8,.42,1.71-.34,2.3-.67,.53-1.4,0-2.03-.29-1.95-.87-4.35-.81-5.85-2.56-1.36-1.58-1.29-3.87-2.64-6.01Z"/>
      <path class="cls-16" d="M591.68,179.23c.05,1.75-.36,2.11-2.01,1.93-2.69-.29-3.06-.59-3.69-3.37-.37-1.64-.97-2.94-2.92-2.97-.1,0-.2-.06-.29-.09-3.82-1.17-3.89-1.21-5.83,2.23-.8,1.43-1.72,1.89-3.25,1.44-.68-.2-1.43-.21-2.14-.31-2.3-.31-2.25-.36-1.68-2.76,2.21-9.24,5.52-18.12,8.53-27.11,.19-.58,.42-1.19,.79-1.66,.88-1.1,2.42-1.17,3.14,.02,1.1,1.83,2.43,3.59,2.79,5.8,.9,5.51,2.98,10.72,4.07,16.18,.73,3.63,1.67,7.21,2.49,10.67Zm-9.4-21.51c-1.15,1.61-1.6,3.36-1.76,5.18-.1,1.13,.86,1.26,1.66,1.35,.84,.1,1.04-.56,1.03-1.2-.04-1.79,.12-3.62-.93-5.34Z"/>
      <path class="cls-16" d="M617.02,224.35c-.14,2.44-.28,4.8-.4,7.17-.07,1.44-.84,1.98-2.23,1.89-2.13-.14-3.62-1.45-3.95-3.6-.23-1.53-.42-3.06-.64-4.6-.07-.49-.06-1.07-.73-1.18-.77-.12-1.09,.39-1.34,1-.62,1.53-1.22,3.07-1.86,4.59-.44,1.04-.94,2.05-1.58,3-.84,1.24-1.82,1.55-3.17,.99-1.26-.53-1.68-1.5-1.39-2.75,.69-3.01,1.28-6.06,2.22-9,1.78-5.55,2.29-11.27,2.73-17.02,.27-3.58,2.95-5.65,6.35-4.73,1.14,.31,1.61,1.17,1.94,2.2,1.68,5.21,3.07,10.48,3.62,15.95,.21,2.05,.3,4.11,.44,6.1Zm-6.16-11.32c-1.29,2.2-1.82,4.52-2.09,6.99,1.2,.11,2.48,.35,2.62-1.03,.2-1.97,.43-4.02-.53-5.96Z"/>
      <path class="cls-16" d="M593.79,224.84c.44,.48,.87,.37,1.26,.39,3.01,.16,3.99,1.45,3.31,4.34-.29,1.24-.92,2.05-2.33,1.98-2.06-.11-4.1,.05-6.16,.28-2.24,.25-3.17-.68-3.18-3.08-.02-3.09,.19-6.18,.19-9.27-.02-7.31,.21-14.62-1.16-21.87-.41-2.18,.08-2.34,2.33-2.44,2.48-.11,4.92,.11,7.36,.42,1.15,.15,2.72,.16,3.04,1.66,.36,1.68,.73,3.48,.02,5.15-.41,.96-1.49,.94-2.42,1.05-2.22,.27-2.22,.29-2.27,2.57-.03,1.44,.03,2.89-.09,4.32-.11,1.3,.28,1.8,1.66,1.88,3.29,.2,3.29,.28,3.21,3.71-.07,3.27-.07,3.29-3.45,4.12-.61,.15-.89,.42-.93,.99-.08,1.3-.74,2.56-.4,3.78Z"/>
      <path class="cls-16" d="M616.57,158.22c3.4,1.38,6.97,2.87,10.41,4.69,.82,.43,1.04,1.29,1.15,2.1,.19,1.41,.37,2.84-.02,4.35-2.05,.06-3.16-1.94-5.03-2.21-.11,.37-.29,.66-.27,.93,.09,1.76-1.2,3.58-.45,5.15,.68,1.42,2.61,1.87,3.93,2.84,1.5,1.1,2.11,3.72,1.19,5.23-.38,.62-.97,.76-1.6,.6-.7-.17-1.38-.42-2.06-.66-.87-.3-1.41-.08-1.51,.89-.04,.41-.05,.82-.07,1.23-.07,1.22-1.23,2.38-.59,3.56,.54,.99,1.94,1.04,2.91,1.6,2.05,1.18,2.12,1.33,1.45,4.85-3.52-1.53-6.99-3.06-10.47-4.56-.79-.34-1.04-.9-1-1.71,.08-1.54,0-3.1,.2-4.63,.94-7.59,1.38-15.21,1.21-22.86,0-.4-.05-.83,.62-1.4Z"/>
      <path class="cls-11" d="M686.58,229.07c-.18,5.15-.92,10.26-.89,15.43,0,.3-.1,.61-.19,.91-.3,.98,.78,2.23-.25,2.91-.99,.65-2.15-.28-3.27-.33-1.25-.06-1.79-.74-1.6-2.07,.25-1.73,.37-3.48,.52-5.23,.04-.4,.05-.87-.43-1.03-.62-.21-.98,.17-1.16,.69-.5,1.46-.89,2.97-1.45,4.41-.84,2.2-1.9,2.82-3.68,2.33-1.78-.5-2.37-1.67-1.73-3.91,2.1-7.33,4.27-14.65,6.43-21.96,.29-.98,.44-2.15,1.47-2.63,2.9-1.34,4.51-1.72,5.45,2.17,.65,2.7,.91,5.5,.76,8.3Zm-4.51,1.26c-1.18,1.63-1.3,2.95-1.61,4.19-.1,.42,.18,.79,.61,.92,.67,.19,.96-.24,.98-.79,.05-1.21,.01-2.43,.01-4.31Z"/>
      <path class="cls-16" d="M677.47,199.61c0,.57-.03,.78,0,.98,.19,1.13,.52,2.65-.54,3.1-1.13,.47-2.61-.14-3.81-.73-1.05-.51-.69-1.61-.81-2.49-.31-2.25-.52-2.28-2.59-2.72-1.97-.42-2.46,.82-2.69,2.12-.31,1.76-1.19,1.77-2.63,1.48-4.46-.89-4.37-.82-3.3-5.32,1.51-6.34,3.94-12.33,6.67-18.21,.41-.89,.5-2.4,2.18-2.14,1.69,.26,2.61,1.17,3.09,2.9,1.46,5.25,2.79,10.54,3.84,15.89,.36,1.83,.53,3.66,.59,5.15Zm-9.23-9.5c2.35,.41,2.74,.47,2.95-.15,.53-1.57,.08-3.06-.72-4.75-1.33,1.62-1.85,3.21-2.23,4.9Z"/>
      <path class="cls-16" d="M618.82,202.68c3.3,.51,6.76,1,10.2,1.62,1.55,.28,2.02,1.36,1.93,3.35-.07,1.47-.87,2.06-2.2,1.93-1.67-.17-1.82,.78-1.8,2.06,.12,6.08-.12,12.14-.53,18.2-.1,1.54-.3,3.07-.52,4.6-.2,1.38-.91,1.87-2.38,1.55-3.23-.72-3.9-1.6-3.63-4.91,.48-5.94,1.29-11.86,1.25-17.84,0-.82-.03-1.65-.11-2.47-.21-2.06-.4-2.3-2.42-2.33-.93-.02-1.98,.3-2.37-.83-.48-1.36-.77-2.86-.1-4.21,.48-.98,1.63-.63,2.69-.72Z"/>
      <path class="cls-15" d="M556.03,234.13c10.73,1.33,21.47,2.55,32.14,4.32,6.91,1.15,13.81,2.29,20.72,3.42,.92,.15,1.85,.23,2.64,.77,.37,.25,.54,.64,.46,1.06-.08,.43-.38,.78-.83,.79-.82,.01-1.64,0-2.45-.13-11.4-1.72-22.79-3.52-34.2-5.18-5.81-.85-11.64-1.48-17.46-2.21-.51-.06-1.04-.04-1.53-.18-.87-.24-2.02-.39-1.75-1.67,.25-1.2,1.32-1.09,2.26-.97Z"/>
      <path class="cls-15" d="M533.6,231.15c1.19-.2,2.28-.43,3.38-.55,.62-.06,1.29,.12,1.39,.9,.07,.56-.27,.98-.77,1.22-2.03,1.01-4.17,1.01-6.25,.36-1.08-.33-.86-1.47-.75-2.42,.39-3.28,.78-6.55,1.1-9.84,1.1-11.19,2.05-22.38,2.46-33.62,0-.21,0-.41,0-.62,.03-.87,.14-1.78,1.27-1.72,1.11,.06,1.18,1.02,1.17,1.84,0,2.48,.04,4.96-.13,7.43-.55,8.23-1.16,16.46-1.8,24.69-.21,2.67-.6,5.33-.89,7.99-.15,1.41-.51,2.83-.2,4.33Z"/>
      <path class="cls-11" d="M692.94,229.56c-.23,4.29,.63,8.48-.13,12.67-.31,1.72-.42,3.48-.75,5.19-.23,1.2-.53,2.53-2.23,2.45-1.74-.08-2.67-1.08-2.69-3.07-.01-1.33,.01-2.7,.28-4,1.18-5.67,1.26-11.45,1.7-17.19,.05-.61-.01-1.25,.13-1.84,.25-1,.98-1.62,1.99-1.66,1.06-.04,1.29,.89,1.47,1.69,.44,1.93,.12,3.9,.23,5.76Z"/>
      <path class="cls-17" d="M550.92,135.38c12.26,.91,24.43,2.41,36.47,4.95,.6,.13,1.19,.33,1.79,.5,.69,.2,1.07,.68,.94,1.37-.15,.88-.8,1.12-1.62,.98-.3-.05-.6-.17-.9-.23-11.75-2.37-23.62-3.84-35.57-4.63-.82-.05-1.64-.23-2.44-.39-.78-.15-1.37-.55-1.22-1.46,.12-.71,.68-.99,1.33-1.08,.41-.05,.82-.01,1.24-.01Z"/>
      <path class="cls-17" d="M639.94,155.88c.19,.06,.57,.19,.97,.29,5.88,1.49,11.68,3.27,17.32,5.51,1.07,.43,2.87,.62,2.29,2.27-.6,1.72-2.13,.67-3.17,.26-5.25-2.11-10.63-3.84-16.08-5.36-.69-.19-1.39-.4-2.04-.7-.59-.27-1-.78-.72-1.48,.2-.5,.63-.8,1.43-.79Z"/>
      <path class="cls-17" d="M536.79,150.8c0,1.34,.01,2.68,0,4.02-.01,.8-.33,1.49-1.21,1.5-.86,0-1.21-.71-1.33-1.45-.1-.6-.07-1.23-.09-1.85-.2-5.67-.52-11.33-1.62-16.91-.08-.4-.15-.81-.18-1.22-.03-.58,.29-.99,.77-1.23,.55-.27,1,.06,1.35,.44,.49,.54,.74,1.16,.82,1.94,.45,4.92,1.34,9.8,1.5,14.77Z"/>
      <path class="cls-17" d="M681.91,171.06c.18,.08,.37,.15,.55,.23,.41,1.98,.06,2.59-1.41,2.05-3.17-1.17-6.27-2.54-9.39-3.87-.71-.3-1.22-.87-.76-1.7,.43-.79,1.13-.75,1.87-.44,1.61,.66,3.23,1.31,4.85,1.96,.94,.38,1.89,.74,2.83,1.1,.48,.22,.97,.45,1.45,.67Z"/>
      <path class="cls-11" d="M692.45,218.92c-1.89-.06-2.72-.84-2.72-2.57,0-1.81,1.36-3.11,3.13-3,1.65,.1,2.41,.94,2.32,2.6-.1,2.03-1.02,3.03-2.74,2.98Z"/>
      <path class="cls-17" d="M631.57,248.07c-1.24-.33-2.63-.68-4.01-1.07-.77-.22-1.34-.71-1.08-1.56,.25-.81,.98-.98,1.76-.79,1.4,.33,2.79,.67,4.17,1.05,.78,.21,1.27,.76,1.06,1.59-.23,.92-1.02,.86-1.9,.78Z"/>
      <path class="cls-13" d="M536.8,166.27c-.05,.35-.13,1.26-.34,2.14-.13,.51-.6,.83-1.16,.79-.56-.04-.93-.42-1.04-.94-.28-1.33,.02-2.62,.3-3.91,.14-.64,.45-1.16,1.2-1.11,.77,.05,.98,.62,1.03,1.26,.03,.4,0,.81,0,1.78Z"/>
      <path class="cls-17" d="M639.83,247.26c1.35,.23,2.49,.41,3.44,1.08,.43,.3,.64,.8,.41,1.37-.17,.42-.56,.77-.93,.71-1.41-.22-2.86-.41-4.09-1.24-.36-.25-.5-.66-.38-1.09,.27-.96,1.1-.72,1.55-.83Z"/>
      <path class="cls-18" d="M701.49,252.73c.98-.14,1.95-.28,2.93-.42-.74,1.75-1.92,.51-2.93,.42Z"/>
      <path class="cls-1" d="M646.6,456.44c-3.93-.07-6.45-3.73-4.86-7.35,1.85-4.21,5.35-6.39,9.78-7.16,1.34-.23,2.39,.32,3.24,1.38,1.08,1.35,1.64,2.87,1.5,4.58-.36,4.2-5.39,8.63-9.65,8.55Z"/>
      <path class="cls-1" d="M630.03,453.27c-1.83,.02-3.29-1.06-3.39-2.5-.11-1.52,1.91-3.39,3.77-3.48,1.49-.08,3.62,1.86,3.59,3.26-.03,1.44-1.86,2.7-3.97,2.72Z"/>
      <path class="cls-1" d="M631.74,430.12c1.06,.12,2.1,.31,2.15,1.68,.06,1.4-1.93,2.94-3.77,2.96-1.28,.02-1.99-.66-1.9-1.83,.11-1.47,1.83-2.85,3.52-2.81Z"/>
      <path class="cls-1" d="M509.31,428.45c4.79-3.34,7.31-7.63,9.62-12.19,4.88-9.62,3.16-18.29-5.29-25.03-1.19-.95-2.47-1.77-4.07-2.91,2.3-.32,4.14,.18,6,.43,5.01,.68,9.94,1.72,14.8,3.15,5.93,1.74,11.15,4.77,15.92,8.64,4.39,3.56,7.21,8.17,8.88,13.5,1.85,5.9-.95,12.39-6.55,15-6,2.79-12.41,3.83-18.97,3.64-6.73-.19-13.18-1.98-20.34-4.22Z"/>
      <path class="cls-1" d="M472.02,413.02c-11.19-5.95-22.41-11.01-34.79-14.48,15.69-8.22,32.41-9.31,49.68-11.03-10.36,5.64-14.44,14.3-14.9,25.51Z"/>
      <path class="cls-1" d="M504.3,419.29c-2.11,.17-3.6-.11-4.44-1.71-.9-1.71-.28-3.21,.86-4.54,2.05-2.38,4.68-3.66,7.8-3.88,1.76-.12,3.28,.41,4.13,2.11,.79,1.59,.23,3.02-.72,4.32-2,2.74-4.87,3.64-7.63,3.7Z"/>
      <path class="cls-1" d="M490.02,411.19c0,1.45-1.72,2.95-3.43,2.98-1.42,.03-2.69-1.07-2.76-2.38-.07-1.33,2.02-2.96,3.79-2.95,1.25,0,2.4,1.13,2.4,2.36Z"/>
      <path class="cls-1" d="M493.4,394.63c-.3,1.15-1.12,1.68-2.26,1.65-.91-.02-1.72-.51-1.49-1.52,.26-1.14,1.24-1.59,2.38-1.53,.83,.04,1.31,.51,1.37,1.4Z"/>
      <path class="cls-10" d="M547.55,380.97c.32,.22,.89,.56,.68,.84-.41,.54-.87,.09-1.23-.28,.18-.19,.37-.37,.55-.56Z"/>
      <path class="cls-14" d="M382.43,202.86c5.28,.1,11.57,2.07,17.06,6.35,2.51,1.95,2.48,1.95,.73,4.58-5.49,8.24-7.32,17.16-4.95,26.84,.77,3.14,2.11,6.02,3.82,8.75,1.28,2.05,1.29,2.27-.36,3.94-5.84,5.91-12.89,9.49-21.08,10.91-4.66,.81-9.22,.47-13.81-.51-11.59-2.47-21.38-13.84-19.68-28.62,2.07-18.05,18.51-32.33,38.27-32.24Zm-10.54,31.26c.18,.14,.36,.27,.55,.41-.89,2.25-2.1,4.39-3.52,6.32-1.89,2.55-1.32,4.98-.4,7.58,.41,1.15,1.01,1.17,1.83,.53,1.06-.83,2.3-1.54,3.06-2.58,.95-1.3,2.04-1.44,3.44-1.3,3.18,.31,6.37,.53,9.56,.78,1.86,.15,2.47-.24,2.56-2.09,.27-5.37,1.49-10.63,1.76-15.98,.25-4.86-.27-9.69-1.49-14.42-.67-2.58-2.28-3.21-4.66-1.84-1.61,.92-3.15,1.97-4.65,3.08-8.9,6.6-16.97,14.14-24.84,21.9-.51,.51-.99,1.06-1.4,1.65-1.32,1.86-1.05,2.68,1.11,3.35,2.19,.68,4.51,.42,6.74,.89,1.55,.33,2.67-.24,3.76-1.49,2.07-2.37,4.38-4.53,6.59-6.78Z"/>
      <path class="cls-6" d="M425.05,260.58c-12.09,.33-27.66-8.22-28.18-27.32-.39-14.51,9.09-25.35,20.3-29.82,8.38-3.34,16.72-3.27,24.84,.83,11.6,5.86,17.47,18.89,14.3,31.53-3.29,13.13-13.94,22.74-27.25,24.56-1.32,.18-2.67,.14-4.01,.21Zm10.86-44.67s0-.04,0-.06c-4.84,.24-9.69,.44-14.52,.75-3.19,.2-6.4,.37-9.53,.92-4.36,.76-5.63,3.17-4.37,7.38,1.16,3.88,2.94,7.49,4.6,11.15,2.34,5.17,4.58,10.4,7.27,15.38,2.61,4.84,8.02,4.85,10.92,.15,5.36-8.7,10.64-17.45,15.84-26.24,2.9-4.9,.47-9.16-5.23-9.43-1.65-.08-3.3-.01-4.95-.01Z"/>
      <path class="cls-12" d="M576.4,626.82c-1.14,2.47-3,3.59-4.77,4.75-1.91,1.26-4.05,2.08-6.29,2.49-5.88,1.06-11.78,1.99-17.79,2.14-8.46,.21-16.31-2.19-23.97-5.35-20.77-8.57-38.1-21.65-51.62-39.67-.86-1.15-1.77-2.27-2.32-3.59,.72-.71,1.18-.06,1.67,.2,22.77,12.39,46.37,22.97,70.62,32.1,7.72,2.9,15.61,5.28,23.8,6.58,3.4,.54,6.79,.14,10.67,.35Z"/>
      <path class="cls-12" d="M482.83,590.77c2.41,.23,4.29,.79,6.1,1.44,9.94,3.56,20.19,5.74,30.58,7.51,5.04,.86,10.13,2,14.54,4.95,1.9,1.27,3.76,2.6,5.31,4.23,2.27,2.37,4.93,2.79,7.94,2.24,2.16-.4,4.28-.38,6.45,.05,2.81,.56,5.24,1.94,7.48,3.58,4.33,3.17,8.55,6.48,13.55,8.58,.26,.11,.57,.3,.43,.79-4.7,1.38-9.33,.19-13.89-.79-9.91-2.14-19.37-5.69-28.73-9.51-15.94-6.51-31.87-13.06-47.07-21.21-.8-.43-1.72-.69-2.7-1.85Z"/>
      <path class="cls-8" d="M581.28,622.42c.11,.1,.23,.21,.34,.31-.23,.24-.44,.23-.66-.02,.1-.1,.21-.2,.32-.29Z"/>
      <path class="cls-1" d="M645.66,218.78c1.14,1.48,1.35,2.85,1.36,4.27,0,.77-.18,1.48-1.15,1.47-.99-.01-1.5-.58-1.48-1.57,.02-1.35,.28-2.64,1.28-4.18Z"/>
      <path class="cls-1" d="M572.05,205.08c0-1.62-.03-3.24,.02-4.85,.02-.74-.53-1.77,.6-2.1,1.01-.29,2.07-.13,2.89,.63,.78,.72,.83,1.6,.34,2.52-.82,1.54-1.84,2.92-3.15,4.06-.23-.09-.46-.17-.69-.26Z"/>
      <path class="cls-1" d="M582.28,157.72c1.05,1.72,.89,3.55,.93,5.34,.01,.64-.18,1.29-1.03,1.2-.81-.09-1.77-.22-1.66-1.35,.16-1.82,.61-3.57,1.76-5.18Z"/>
      <path class="cls-1" d="M610.86,213.03c.96,1.95,.73,3.99,.53,5.96-.14,1.38-1.41,1.14-2.62,1.03,.27-2.47,.79-4.79,2.09-6.99Z"/>
      <path class="cls-1" d="M682.07,230.32c0,1.88,.03,3.1-.01,4.31-.02,.55-.31,.98-.98,.79-.44-.12-.72-.5-.61-.92,.31-1.24,.43-2.56,1.61-4.19Z"/>
      <path class="cls-1" d="M668.24,190.11c.37-1.69,.9-3.28,2.23-4.9,.81,1.69,1.25,3.18,.72,4.75-.21,.62-.59,.56-2.95,.15Z"/>
      <path class="cls-13" d="M371.89,234.11c-2.21,2.25-4.52,4.41-6.59,6.78-1.09,1.25-2.2,1.81-3.76,1.49-2.23-.47-4.55-.21-6.74-.89-2.16-.67-2.43-1.49-1.11-3.35,.42-.59,.89-1.14,1.4-1.65,7.87-7.77,15.94-15.31,24.84-21.9,1.49-1.1,3.04-2.15,4.65-3.08,2.39-1.37,3.99-.74,4.66,1.84,1.22,4.72,1.75,9.55,1.49,14.42-.28,5.35-1.49,10.62-1.76,15.98-.09,1.85-.7,2.24-2.56,2.09-3.19-.25-6.38-.47-9.56-.78-1.41-.14-2.49,0-3.44,1.3-.77,1.05-2.01,1.76-3.06,2.58-.82,.64-1.42,.63-1.83-.53-.92-2.6-1.49-5.03,.4-7.58,1.42-1.92,2.63-4.07,3.52-6.32-.18-.14-.37-.27-.55-.41Zm-1.16,8.41c2.32,0,3.97-.05,5.62,.01,2.88,.12,5.73,.71,8.63,.7,1.17,0,1.54-.37,1.71-1.54,.73-4.79,1.28-9.61,1.54-14.44,.21-4.12-.18-8.24-.92-12.31-.29-1.6-.69-1.76-2.05-1-.99,.55-1.92,1.21-2.83,1.88-9.09,6.67-17.18,14.48-25.26,22.3-.28,.27-.63,.56-.53,1.05,2.73,1.04,4.97,.55,7.19-1.55,3.9-3.68,8.08-7.05,12.13-10.56,1.01-.88,2-1.79,3-2.68,.59-.52,1.3-.78,1.96-.26,.66,.53,.59,1.28,.17,1.96-.49,.79-1.02,1.55-1.55,2.31-3.07,4.36-5.88,8.88-8.81,14.13Zm-.56,4.08c.84-.18,1.58-.56,1.52-1.49-.04-.58-.79-.65-1.22-.48-1.16,.44-.41,1.27-.3,1.97Zm2.7-12.95c-.05-.07-.09-.14-.14-.21-.07,.05-.18,.1-.19,.16,0,.06,.08,.14,.13,.21,.07-.05,.13-.11,.2-.16Z"/>
      <path class="cls-13" d="M435.92,215.92c1.65,0,3.31-.07,4.95,.01,5.7,.27,8.13,4.53,5.23,9.43-5.2,8.79-10.48,17.54-15.84,26.24-2.9,4.7-8.31,4.69-10.92-.15-2.69-4.99-4.93-10.22-7.27-15.38-1.65-3.66-3.44-7.27-4.6-11.15-1.26-4.21,.02-6.63,4.37-7.38,3.14-.55,6.35-.71,9.53-.92,4.84-.31,9.68-.51,14.52-.75,0,.02,0,.04,0,.06Zm-1.33,23.31c3.22-5.25,6.45-10.5,9.64-15.77,1.34-2.21,.45-4.21-2.11-4.77-.69-.15-1.43-.13-2.15-.15-5.78-.16-11.54,.28-17.31,.52-3.29,.13-6.59,.36-9.87,.67-3.33,.31-3.96,2.37-2.95,4.89,2.07,5.17,4.47,10.18,6.8,15.23,1.55,3.37,3.02,6.78,4.77,10.05,1.74,3.24,4.3,3.4,6.52,.44,1.4-1.88,2.66-3.9,3.53-6.13,.51-1.3,1.16-2.55,2.22-3.52,.58-.31,.8-.86,.93-1.45Z"/>
      <path class="cls-1" d="M370.73,242.53c2.93-5.25,5.74-9.77,8.81-14.13,.53-.76,1.06-1.52,1.55-2.31,.42-.68,.49-1.43-.17-1.96-.66-.52-1.37-.27-1.96,.26-1,.89-1.99,1.8-3,2.68-4.06,3.51-8.24,6.88-12.13,10.56-2.23,2.1-4.46,2.59-7.19,1.55-.1-.49,.25-.77,.53-1.05,8.08-7.82,16.17-15.63,25.26-22.3,.91-.67,1.84-1.33,2.83-1.88,1.37-.76,1.76-.6,2.05,1,.74,4.07,1.13,8.18,.92,12.31-.25,4.84-.81,9.65-1.54,14.44-.18,1.17-.55,1.54-1.71,1.54-2.9,0-5.75-.58-8.63-.7-1.64-.07-3.29-.01-5.62-.01Z"/>
      <path class="cls-1" d="M370.17,246.61c-.11-.7-.85-1.53,.3-1.97,.43-.16,1.18-.1,1.22,.48,.06,.93-.68,1.31-1.52,1.49Z"/>
      <path class="cls-14" d="M372.86,233.65c-.07,.05-.13,.11-.2,.16-.05-.07-.14-.15-.13-.21,0-.06,.12-.11,.19-.16,.05,.07,.09,.14,.14,.21Z"/>
      <path class="cls-1" d="M433.66,240.68c-1.05,.98-1.71,2.22-2.22,3.52-.86,2.23-2.12,4.25-3.53,6.13-2.22,2.97-4.78,2.81-6.52-.44-1.75-3.26-3.22-6.68-4.77-10.05-2.33-5.05-4.72-10.06-6.8-15.23-1.01-2.52-.37-4.58,2.95-4.89,3.28-.31,6.58-.53,9.87-.67,5.77-.23,11.53-.68,17.31-.52,.72,.02,1.46,0,2.15,.15,2.56,.56,3.45,2.56,2.11,4.77-3.19,5.27-6.42,10.51-9.64,15.77-.68,.09-1.35,.18-2.03,.28,.76-1.32,1.32-2.73,2.12-4.04,2.3-3.77,4.46-7.64,6.58-11.52,1.1-2.01,.79-2.47-1.53-2.56-2.47-.09-4.94-.12-7.41-.08-4.65,.08-4.6,.11-4.76,4.8-.19,5.66-.48,11.31-.7,16.96-.04,.96-.48,2.22,.94,2.56,1.35,.32,1.66-.95,2.17-1.78,.84-1.38,1.17-3.06,2.49-4.15,.29,.46,.66,.83,1.2,.98Zm-13.98-18.51c-2.15,.04-4.3-.1-6.44,.42-1.07,.26-1.38,.79-1.07,1.74,.19,.58,.5,1.13,.78,1.67,2.98,5.85,6.53,11.42,8.79,17.64,.3,.82,.77,1.54,1.77,1.38,1.08-.17,1.07-1.11,1.13-1.92,.34-4.92,.68-9.84,.97-14.76,.09-1.43,.07-2.88,.03-4.32-.03-1.21-.64-1.89-1.95-1.85-1.34,.04-2.67,0-4.01,0Z"/>
      <path class="cls-9" d="M433.66,240.68c-.54-.15-.91-.52-1.2-.98,0,0-.04-.14-.04-.14l.14-.06c.68-.09,1.36-.19,2.03-.28-.13,.6-.34,1.15-.93,1.45Z"/>
      <path class="cls-13" d="M432.55,239.5l-.14,.06s.04,.14,.04,.14c-1.33,1.09-1.65,2.77-2.49,4.15-.51,.84-.83,2.11-2.17,1.78-1.42-.34-.98-1.6-.94-2.56,.22-5.65,.51-11.31,.7-16.96,.16-4.7,.11-4.73,4.76-4.8,2.47-.04,4.94,0,7.41,.08,2.32,.09,2.63,.54,1.53,2.56-2.12,3.88-4.28,7.74-6.58,11.52-.8,1.31-1.36,2.72-2.12,4.04Zm6-16.07c-2.61,0-4.36,0-6.11,0-2.18,.01-2.22,.02-2.34,2.2-.2,3.71-.08,7.43-.52,11.12-.05,.38-.58,1.26,.64,1.41,2.65-4.69,5.31-9.4,8.32-14.74Z"/>
      <path class="cls-13" d="M419.67,222.16c1.34,0,2.68,.03,4.01,0,1.3-.04,1.91,.64,1.95,1.85,.04,1.44,.05,2.88-.03,4.32-.29,4.92-.63,9.84-.97,14.76-.06,.81-.05,1.75-1.13,1.92-1.01,.15-1.47-.56-1.77-1.38-2.26-6.21-5.8-11.78-8.79-17.64-.28-.55-.59-1.09-.78-1.67-.3-.95,0-1.48,1.07-1.74,2.14-.52,4.29-.38,6.44-.42Zm2.67,15.91c.26-2.56,.51-4.5,.64-6.44,.13-1.85,.15-3.71,.2-5.56,.02-.78-.12-1.49-1.1-1.51-2.11-.03-4.21,0-6.94,0,2.49,4.68,4.7,8.81,7.2,13.52Z"/>
      <path class="cls-6" d="M438.55,223.43c-3.02,5.34-5.68,10.05-8.32,14.74-1.22-.15-.69-1.03-.64-1.41,.44-3.7,.32-7.42,.52-11.12,.12-2.18,.16-2.18,2.34-2.2,1.75-.01,3.5,0,6.11,0Z"/>
      <path class="cls-6" d="M422.34,238.08c-2.51-4.7-4.71-8.84-7.2-13.52,2.73,0,4.83-.02,6.94,0,.98,.01,1.12,.73,1.1,1.51-.05,1.85-.07,3.71-.2,5.56-.13,1.94-.38,3.88-.64,6.44Z"/>
    </g>
  </g>
</svg>