<svg width="34" height="34" viewBox="0 0 34 34" fill="none" xmlns="http://www.w3.org/2000/svg">
<path d="M31.1663 23.5434V10.4562C31.1661 9.95911 31.035 9.47083 30.7864 9.04039C30.5377 8.60995 30.1802 8.25252 29.7497 8.00396L18.4163 1.45967C17.9856 1.211 17.497 1.08008 16.9997 1.08008C16.5023 1.08008 16.0137 1.211 15.583 1.45967L4.24967 8.00396C3.81896 8.25264 3.4613 8.6103 3.21262 9.04101C2.96394 9.47171 2.83302 9.96029 2.83301 10.4576V23.5434C2.83327 24.0405 2.96431 24.5288 3.21297 24.9592C3.46164 25.3896 3.81917 25.7471 4.24967 25.9956L15.583 32.5385C16.0137 32.7872 16.5023 32.9181 16.9997 32.9181C17.497 32.9181 17.9856 32.7872 18.4163 32.5385L29.7497 25.9956C30.1802 25.7471 30.5377 25.3896 30.7864 24.9592C31.035 24.5288 31.1661 24.0405 31.1663 23.5434Z" fill="#D9E1E2"/>
<path d="M18.4167 32.54L29.75 25.9957C30.1807 25.747 30.5384 25.3894 30.7871 24.9587C31.0357 24.528 31.1667 24.0394 31.1667 23.542V10.4563C31.1664 9.95919 31.0354 9.4709 30.7867 9.04046C30.538 8.61003 30.1805 8.25259 29.75 8.00404L18.4167 1.45975C17.9861 1.2107 17.4974 1.07973 17 1.08008V32.9197C17.4974 32.92 17.9861 32.789 18.4167 32.54Z" fill="#C9D0D1"/>
<path d="M30.7768 9.02423L16.9997 16.9788L3.22266 9.02423C3.46903 8.59957 3.82338 8.24766 4.24974 8.00423L15.5831 1.45923C16.0143 1.21207 16.5027 1.08203 16.9997 1.08203C17.4968 1.08203 17.9852 1.21207 18.4164 1.45923L29.7497 8.00423C30.1761 8.24766 30.5305 8.59957 30.7768 9.02423Z" fill="#ECF0F1"/>
<path d="M18.5791 7.8808C18.7703 7.9458 18.9364 8.06891 19.0543 8.23293C19.1721 8.39694 19.2357 8.59367 19.2362 8.79561C19.2368 8.99756 19.1742 9.19462 19.0573 9.35928C18.9404 9.52393 18.7749 9.64793 18.5841 9.71397C18.0948 9.9633 17.5534 10.0933 17.0042 10.0933C16.455 10.0933 15.9136 9.9633 15.4242 9.71397C14.548 9.20822 14.5388 8.38655 15.4093 7.8808C15.9004 7.63143 16.4435 7.50146 16.9942 7.50146C17.545 7.50146 18.088 7.63143 18.5791 7.8808Z" fill="#34495E"/>
<path d="M13.1038 25.1976C13.4869 25.4466 13.8057 25.7826 14.0342 26.1782C14.2627 26.5739 14.3944 27.018 14.4185 27.4742C14.4185 28.3164 13.8235 28.6543 13.0953 28.2336C12.7105 27.9842 12.3903 27.6472 12.161 27.25C11.9317 26.8529 11.7999 26.4071 11.7764 25.9492C11.7792 25.1119 12.3714 24.7748 13.1038 25.1976Z" fill="#2C3E50"/>
<path d="M9.92312 19.5842C10.3064 19.833 10.6253 20.169 10.8538 20.5647C11.0823 20.9603 11.2139 21.4045 11.2378 21.8608C11.2378 22.703 10.6435 23.0409 9.91462 22.6201C9.52974 22.3707 9.20951 22.0335 8.98024 21.6363C8.75096 21.239 8.61918 20.7931 8.5957 20.335C8.59783 19.4985 9.18999 19.1606 9.92312 19.5842Z" fill="#2C3E50"/>
<path d="M6.74219 13.9697C7.1251 14.2188 7.44373 14.5549 7.67207 14.9505C7.90042 15.3462 8.03202 15.7902 8.05615 16.2463C8.05615 17.0892 7.46185 17.4264 6.73298 17.0057C6.34815 16.7563 6.02795 16.4193 5.79868 16.0222C5.5694 15.625 5.43759 15.1792 5.41406 14.7213C5.41619 13.8833 6.00906 13.5469 6.74219 13.9697Z" fill="#2C3E50"/>
<path d="M21.4241 18.0705C22.1572 17.6455 22.7494 17.9848 22.7515 18.827C22.7278 19.2845 22.5959 19.7299 22.3666 20.1265C22.1373 20.5231 21.8172 20.8597 21.4326 21.1086C20.7045 21.5293 20.1073 21.1943 20.1045 20.3577C20.1283 19.8994 20.2603 19.4532 20.4897 19.0557C20.7191 18.6582 21.0393 18.3206 21.4241 18.0705Z" fill="#21303D"/>
<path d="M26.7124 15.0168C27.4455 14.5918 28.0384 14.9311 28.0405 15.7733C28.0163 16.2304 27.8842 16.6753 27.655 17.0715C27.4257 17.4677 27.1059 17.804 26.7216 18.0527C25.9927 18.4735 25.4006 18.1356 25.3984 17.2991C25.4217 16.8419 25.5529 16.3968 25.7813 16.0001C26.0096 15.6034 26.3287 15.2664 26.7124 15.0168Z" fill="#21303D"/>
<path d="M21.441 24.1482C22.1741 23.7232 22.7663 24.0624 22.7691 24.9047C22.7443 25.3617 22.6119 25.8064 22.3826 26.2026C22.1532 26.5987 21.8335 26.935 21.4495 27.1841C20.7213 27.6041 20.1242 27.2698 20.1221 26.4325C20.146 25.9747 20.278 25.529 20.5072 25.132C20.7365 24.7349 21.0564 24.3978 21.441 24.1482Z" fill="#21303D"/>
<path d="M26.7307 21.0944C27.4638 20.6694 28.056 21.0087 28.0581 21.8509C28.034 22.3081 27.9019 22.753 27.6727 23.1492C27.4434 23.5454 27.1235 23.8817 26.7392 24.1304C26.011 24.5511 25.4188 24.2132 25.416 23.3767C25.4394 22.9195 25.5707 22.4743 25.7992 22.0777C26.0277 21.681 26.3469 21.344 26.7307 21.0944Z" fill="#21303D"/>
</svg>
