<?xml version="1.0" encoding="UTF-8" standalone="no"?>
<svg
   width="144"
   height="90"
   viewBox="0 0 144 90"
   fill="none"
   version="1.1"
   id="svg159"
   sodipodi:docname="halloween.svg"
   inkscape:version="1.2.2 (b0a8486541, 2022-12-01)"
   xmlns:inkscape="http://www.inkscape.org/namespaces/inkscape"
   xmlns:sodipodi="http://sodipodi.sourceforge.net/DTD/sodipodi-0.dtd"
   xmlns="http://www.w3.org/2000/svg"
   xmlns:svg="http://www.w3.org/2000/svg">
  <sodipodi:namedview
     id="namedview161"
     pagecolor="#ffffff"
     bordercolor="#000000"
     borderopacity="0.25"
     inkscape:showpageshadow="2"
     inkscape:pageopacity="0.0"
     inkscape:pagecheckerboard="0"
     inkscape:deskcolor="#d1d1d1"
     showgrid="false"
     inkscape:zoom="6.3541401"
     inkscape:cx="51.305132"
     inkscape:cy="42.177225"
     inkscape:window-width="1920"
     inkscape:window-height="1001"
     inkscape:window-x="0"
     inkscape:window-y="0"
     inkscape:window-maximized="1"
     inkscape:current-layer="svg159" />
  <path
     d="m 91.0916,28.088641 c 7.3005,0 13.2184,-5.9182 13.2184,-13.2188 0,-7.3004601 -5.9179,-13.2187001 -13.2184,-13.2187001 -7.3005,0 -13.2188,5.91824 -13.2188,13.2187001 0,7.3006 5.9183,13.2188 13.2188,13.2188 z"
     fill="#e6c067"
     id="path2" />
  <path
     d="m 33.8103,85.369841 h 22.0313 v -32.3124 H 30.8728 Z"
     fill="#4d5166"
     id="path4" />
  <path
     d="m 26.4666,54.526141 h 32.3125 v -11.75 H 32.3416 Z"
     fill="#2c2f3b"
     id="path6" />
  <path
     d="m 38.2166,75.088641 h 8.8125 l -1.4688,-11.75 h -8.8125 z"
     fill="#e6c067"
     id="path8" />
  <path
     d="m 44.0916,75.088641 h -2.9485 l -0.918,-7.3438 -0.5288,-4.2244 c -0.0073,-0.0625 -0.011,-0.1212 -0.011,-0.1818 h 2.9485 l 0.918,7.3438 0.5288,4.2244 c 0.0073,0.0625 0.011,0.1212 0.011,0.1818 z"
     fill="#5f502b"
     id="path10" />
  <path
     d="m 46.4783,70.682441 h -8.8125 l -0.3672,-2.9376 h 8.8125 z"
     fill="#5f502b"
     id="path12" />
  <path
     d="M 110.185,85.369841 H 88.1541 v -32.3124 h 24.9689 z"
     fill="#4d5166"
     id="path14" />
  <path
     d="M 117.529,54.526141 H 85.2166 v -11.75 h 26.4374 z"
     fill="#2c2f3b"
     id="path16" />
  <path
     d="m 89.6228,17.807441 h -35.25 l 2.9375,32.3124 h 29.375 z"
     fill="#4d5166"
     id="path18" />
  <path
     d="m 51.8826,4.5293409 c -1.8589,-1.66813 -4.472,-2.46162 -7.1024,-2.15631 l -0.0143,0.0929 c -0.1514,0.97525 -0.6936,1.83833 -1.4763,2.45539 -0.2897,0.22839 -0.7345,0.08059 -0.7742,-0.26089 l -0.2318,-1.9975 c -0.8227,0.93871 -2.3133,1.11166 -3.3292,0.38628 l 0.2319,1.9975 c 0.0397,0.34149 -0.3596,0.58713 -0.694,0.43126 -0.9032,-0.42134 -1.6286,-1.13736 -1.9993,-2.05202 l -0.0352,-0.08703 c -2.6302,0.30513 -4.9923,1.67585 -6.4198,3.72549 l -0.6339,0.9097 1.6646,-0.19314 c 1.8387,-0.21333 3.4857,0.96257 3.6787,2.6266701 l 2.4969,-0.2897 c 2.2982,-0.2668001 4.357,1.2033 4.5983,3.2832 -0.2415,-2.0799 1.4261,-3.9823001 3.7243,-4.2491001 l 2.4969,-0.2897 c -0.1931,-1.66391 1.1409,-3.1859 2.9796,-3.39924 l 1.6646,-0.19314 z"
     fill="#4d5166"
     id="path20" />
  <path
     d="m 94.8543,11.215441 c 1.8589,-1.6681001 4.472,-2.4616001 7.1027,-2.1563001 l 0.014,0.0929 c 0.151,0.9753001 0.694,1.8383001 1.476,2.4554001 0.29,0.2284 0.735,0.0806 0.774,-0.2609 l 0.232,-1.9975001 c 0.823,0.9387001 2.314,1.1117001 3.329,0.3863 l -0.231,1.9975001 c -0.04,0.3415 0.359,0.5871 0.694,0.4313 0.903,-0.4214 1.628,-1.1374 1.999,-2.0521 l 0.035,-0.087 c 2.63,0.3051 4.992,1.6759 6.42,3.7255 l 0.634,0.9099 -1.665,-0.1932 c -1.839,-0.2133 -3.486,0.9626 -3.679,2.6267 l -2.497,-0.2897 c -2.298,-0.2668 -4.357,1.2033 -4.598,3.2834 0.241,-2.0799 -1.426,-3.9823 -3.724,-4.2491 l -2.4973,-0.2897 c 0.1932,-1.6639 -1.1408,-3.1859 -2.9795,-3.3992 l -1.6641,-0.1936 z"
     fill="#4d5166"
     id="path22" />
  <path
     d="m 45.9391,23.822841 c -2.455,-0.4592 -5.0999,0.2212 -7.1884,1.849 l 0.0359,0.0868 c 0.3775,0.9119 0.3628,1.9311 0.0147,2.865 -0.1289,0.3457 -0.5856,0.4507 -0.7969,0.1796 l -1.2362,-1.5861 c -0.215,1.2295 -1.3986,2.1519 -2.6434,2.0603 l 1.2362,1.5861 c 0.2113,0.2711 -0.0022,0.6886 -0.3689,0.729 -0.9906,0.1094 -1.9824,-0.1252 -2.7746,-0.714 l -0.0755,-0.056 c -2.0885,1.6278 -3.3941,4.0264 -3.5485,6.5192 l -0.0685,1.1067 1.3217,-1.0301 c 1.46,-1.1379 3.4782,-0.9892 4.508,0.3321 l 1.9826,-1.5451 c 1.8249,-1.4223 4.3477,-1.2363 5.6351,0.4151 -1.2872,-1.6516 -0.8514,-4.1435 0.9736,-5.5658 l 1.9826,-1.5452 c -1.0298,-1.3213 -0.6811,-3.3147 0.7788,-4.4525 l 1.3217,-1.0301 z"
     fill="#4d5166"
     id="path24" />
  <path
     d="m 89.6228,83.901141 h -35.25 l -2.9375,-35.25 h 41.125 z"
     fill="#727897"
     id="path26" />
  <path
     d="m 48.4978,20.744841 h 47 l -23.5,-20.56245012 z"
     fill="#2c2f3b"
     id="path28" />
  <path
     d="m 71.9978,25.151141 c -3.2446,0 -5.875,2.6303 -5.875,5.875 v 8.8125 h 11.75 v -8.8125 c 0,-3.2447 -2.6303,-5.875 -5.875,-5.875 z"
     fill="#e6c067"
     id="path30" />
  <path
     d="m 61.7166,58.932441 c -2.4336,0 -4.4063,1.9727 -4.4063,4.4062 v 5.875 h 8.8125 v -5.875 c 0,-2.4335 -1.9727,-4.4062 -4.4062,-4.4062 z"
     fill="#e6c067"
     id="path32" />
  <path
     d="m 73.4666,25.336541 v 14.5021 h -2.9375 v -14.5021 c 0.47,-0.1211 0.962,-0.1854 1.4687,-0.1854 0.5068,0 0.9988,0.0643 1.4688,0.1854 z"
     fill="#5f502b"
     id="path34" />
  <path
     d="m 66.1228,32.494841 h 11.75 v 2.9376 h -11.75 z"
     fill="#5f502b"
     id="path36" />
  <path
     d="m 63.1853,59.185741 v 10.0279 h -2.9375 v -10.0279 c 0.459,-0.1652 0.9547,-0.2533 1.4688,-0.2533 0.514,0 1.0097,0.0881 1.4687,0.2533 z"
     fill="#5f502b"
     id="path38" />
  <path
     d="m 57.3103,63.338641 h 8.8125 v 2.9375 h -8.8125 z"
     fill="#5f502b"
     id="path40" />
  <path
     d="m 82.2791,58.932441 c 2.4335,0 4.4062,1.9727 4.4062,4.4062 v 5.875 h -8.8125 v -5.875 c 0,-2.4335 1.9727,-4.4062 4.4063,-4.4062 z"
     fill="#e6c067"
     id="path42" />
  <path
     d="m 83.7478,59.185741 v 10.0279 h -2.9375 v -10.0279 c 0.459,-0.1652 0.9547,-0.2533 1.4688,-0.2533 0.514,0 1.0097,0.0881 1.4687,0.2533 z"
     fill="#5f502b"
     id="path44" />
  <path
     d="m 77.8728,63.338641 h 8.8125 v 2.9375 h -8.8125 z"
     fill="#5f502b"
     id="path46" />
  <path
     d="M 117.529,91.244841 H 26.4666 l 2.9375,-7.3437 h 85.1879 z"
     fill="#3d4252"
     id="path48" />
  <path
     d="M 99.9041,91.244841 H 44.0916 l 2.9375,-8.8124 h 49.9375 z"
     fill="#2c2f3b"
     id="path50" />
  <path
     d="m 105.779,75.088641 h -8.8124 l 1.4687,-11.75 h 8.8127 z"
     fill="#e6c067"
     id="path52" />
  <path
     d="m 104.31,63.338641 c 0,0.0606 -0.003,0.1193 -0.011,0.1818 l -0.528,4.2244 -0.918,7.3438 h -2.9489 c 0,-0.0606 0.0037,-0.1193 0.011,-0.1818 l 0.5289,-4.2244 0.918,-7.3438 z"
     fill="#5f502b"
     id="path54" />
  <path
     d="m 106.697,67.744841 -0.037,0.2938 -0.315,2.5318 -0.015,0.112 h -8.8126 l 0.0367,-0.2938 0.3158,-2.5318 0.0147,-0.112 z"
     fill="#5f502b"
     id="path56" />
  <path
     d="m 95.4978,54.526141 h -47 l 2.9375,-7.3437 h 41.125 z"
     fill="#3d4252"
     id="path58" />
  <path
     d="m 71.9978,72.151141 c -2.4335,0 -4.4062,1.9727 -4.4062,4.4063 v 5.875 h 8.8125 v -5.875 c 0,-2.4336 -1.9727,-4.4063 -4.4063,-4.4063 z"
     fill="#e6c067"
     id="path60" />
  <path
     d="m 71.9978,8.9948409 c -1.6224,0 -2.9375,1.3151001 -2.9375,2.9376001 v 4.4062 h 5.875 v -4.4062 c 0,-1.6225 -1.315,-2.9376001 -2.9375,-2.9376001 z"
     fill="#e6c067"
     id="path62" />
  <path
     d="m 111.654,54.526141 h -3.037 l -4.213,-11.2341 c -0.064,-0.1707 -0.094,-0.3452 -0.094,-0.5159 h 3.037 l 4.213,11.2341 c 0.065,0.1707 0.094,0.3452 0.094,0.5159 z"
     fill="#e6c067"
     id="path64" />
  <path
     d="m 105.779,54.526141 h -3.037 l -4.213,-11.2341 c -0.0643,-0.1707 -0.0937,-0.3452 -0.0937,-0.5159 h 3.0367 l 4.213,11.2341 c 0.065,0.1707 0.094,0.3452 0.094,0.5159 z"
     fill="#e6c067"
     id="path66" />
  <path
     d="m 39.6853,42.776141 c 0,0.1707 -0.0293,0.3452 -0.0936,0.5159 l -4.2135,11.2341 h -3.0366 c 0,-0.1707 0.0294,-0.3452 0.0936,-0.5159 l 4.2135,-11.2341 z"
     fill="#e6c067"
     id="path68" />
  <path
     d="m 45.5603,42.776141 c 0,0.1707 -0.0293,0.3452 -0.0936,0.5159 l -4.2135,11.2341 h -3.0366 c 0,-0.1707 0.0294,-0.3452 0.0936,-0.5159 l 4.2135,-11.2341 z"
     fill="#e6c067"
     id="path70" />
  <path
     d="m 70.5291,47.182441 h 2.9375 v 7.3437 h -2.9375 z"
     fill="#e6c067"
     id="path72" />
  <path
     d="m 80.8103,54.526141 h -2.965 l -1.4118,-7.0555 c -0.0202,-0.0973 -0.0294,-0.1928 -0.0294,-0.2882 h 2.965 l 1.4119,7.0555 c 0.0202,0.0973 0.0293,0.1927 0.0293,0.2882 z"
     fill="#e6c067"
     id="path74" />
  <path
     d="m 88.1541,54.526141 h -3.0513 l -2.7191,-6.7985 c -0.0716,-0.1799 -0.1046,-0.3635 -0.1046,-0.5452 h 3.0513 l 2.719,6.7984 c 0.0716,0.1799 0.1047,0.3635 0.1047,0.5453 z"
     fill="#e6c067"
     id="path76" />
  <path
     d="m 67.5916,47.182441 c 0,0.0954 -0.0092,0.1909 -0.0294,0.2882 l -1.4118,7.0555 h -2.9651 c 0,-0.0955 0.0092,-0.1909 0.0294,-0.2882 l 1.4118,-7.0555 z"
     fill="#e6c067"
     id="path78" />
  <path
     d="m 61.7166,47.182441 c 0,0.1817 -0.0331,0.3653 -0.1047,0.5452 l -2.719,6.7985 h -3.0513 c 0,-0.1818 0.033,-0.3654 0.1046,-0.5453 l 2.7191,-6.7984 z"
     fill="#e6c067"
     id="path80" />
  <g
     clip-path="url(#clip0_557_246)"
     id="g114"
     transform="translate(0,-1.2863591)">
    <path
       d="m 130.948,60.9605 c -0.367,0.9817 -0.859,1.8795 -1.451,2.683 -2.85,3.8706 -8.02,5.5522 -12.745,3.7853 -5.706,-2.1338 -8.602,-8.49 -6.468,-14.1961 1.6,-4.2774 5.571,-6.9755 9.864,-7.16 1.434,-0.0608 2.903,0.1576 4.332,0.6919 1.141,0.4268 2.17,1.0221 3.069,1.7483 v 0.0011 c 3.081,2.4872 4.631,6.5005 3.937,10.4705 -0.115,0.6626 -0.294,1.3237 -0.538,1.976 z"
       fill="#f96eb3"
       id="path82" />
    <path
       d="m 130.948,60.9605 c -0.367,0.9817 -0.859,1.8795 -1.451,2.683 l -12.18,-7.3206 2.831,-10.2502 c 1.434,-0.0608 2.903,0.1576 4.332,0.6919 1.142,0.4268 2.17,1.0221 3.069,1.7483 v 0.0011 c -2.102,0.9589 -2.508,4.6246 0.268,7.7793 1.171,1.3313 2.511,2.1682 3.669,2.6912 -0.115,0.6626 -0.294,1.3237 -0.538,1.976 z"
       fill="#d83a6f"
       id="path84" />
    <path
       d="m 99.3477,65.9368 c -2.9431,-1.1006 -4.4366,-4.3785 -3.336,-7.3215 1.1006,-2.9431 4.3783,-4.4369 7.3213,-3.3363 l 28.27,10.5721 c 2.943,1.1006 4.437,4.3789 3.336,7.3219 -1.1,2.943 -4.378,4.4365 -7.321,3.3358"
       fill="#279e5c"
       id="path86" />
    <path
       d="m 129.05,72.6796 c -0.335,-0.125 -0.504,-0.4973 -0.379,-0.8318 0.677,-1.8113 1.813,-2.118 2.43,-2.1395 0.973,-0.0337 1.955,0.6079 2.389,1.5612 0.148,0.3246 0.005,0.708 -0.32,0.856 -0.325,0.1481 -0.708,0.0044 -0.856,-0.3203 -0.22,-0.4823 -0.711,-0.8207 -1.168,-0.8051 -0.509,0.0178 -0.958,0.4797 -1.264,1.3004 -0.126,0.3346 -0.498,0.5043 -0.832,0.3791 z"
       fill="#0c843d"
       id="path88" />
    <path
       d="m 133.105,61.8349 -5.017,13.4157 c -2.927,7.8257 -11.637,11.9097 -19.465,8.987 -7.81,-2.9166 -11.7758,-11.6145 -8.8556,-19.4233 l 5.8216,-15.5669 c 2.025,-5.4153 8.057,-8.1639 13.473,-6.1387 l 3.543,1.3249 c -2.428,6.7315 1.007,14.1823 7.728,16.696 0.915,0.3419 1.843,0.5752 2.772,0.7053 z"
       fill="#75bc83"
       id="path90" />
    <path
       d="m 100.78,62.1076 c -0.335,-0.125 -0.504,-0.4973 -0.379,-0.8319 0.307,-0.8207 0.271,-1.4639 -0.101,-1.8109 -0.3346,-0.3117 -0.9273,-0.3787 -1.4098,-0.1589 -0.3248,0.1483 -0.7082,0.0049 -0.856,-0.3201 -0.1482,-0.3248 -0.0049,-0.7082 0.3201,-0.856 0.9531,-0.4345 2.1157,-0.2739 2.8277,0.3898 0.451,0.4209 1.107,1.3977 0.43,3.2089 -0.125,0.3346 -0.498,0.5042 -0.832,0.3791 z"
       fill="#0c843d"
       id="path92" />
    <path
       d="M 108.509,84.1936 C 100.773,81.2353 96.8617,72.5842 99.7674,64.8143 l 5.8216,-15.5669 c 2.025,-5.4153 8.057,-8.1642 13.472,-6.1389 l 1.783,0.6668 c -3.185,-1.1912 -7.41,2.2333 -9.435,7.6486 l -5.822,15.5669 c -2.896,7.7449 -1.585,15.4056 2.922,17.2028 z"
       fill="#279e5c"
       id="path94" />
    <path
       d="m 124.532,64.8388 -1.568,0.7145 -0.715,-1.5684 c -0.315,-0.6928 -1.133,-0.9986 -1.826,-0.683 -0.693,0.3156 -0.999,1.1334 -0.683,1.8266 l 0.714,1.5684 -1.568,0.7146 c -0.693,0.3155 -0.999,1.1333 -0.683,1.8265 0.316,0.6929 1.133,0.9987 1.826,0.683 l 1.569,-0.7149 0.715,1.5688 c 0.315,0.6928 1.133,0.9986 1.826,0.6829 0.693,-0.3159 0.999,-1.1337 0.683,-1.8265 l -0.715,-1.5684 1.569,-0.7146 c 0.693,-0.316 0.998,-1.1337 0.683,-1.8265 -0.316,-0.6929 -1.134,-0.9987 -1.827,-0.683 z"
       fill="#2a2d49"
       id="path96" />
    <path
       d="m 111.616,60.0085 -1.568,0.7145 -0.715,-1.5684 c -0.316,-0.6928 -1.134,-0.9986 -1.826,-0.6829 -0.694,0.3155 -0.999,1.1333 -0.683,1.8265 l 0.714,1.5684 -1.568,0.7146 c -0.693,0.3155 -0.999,1.1333 -0.683,1.8266 0.315,0.6928 1.133,0.9986 1.826,0.6829 l 1.568,-0.7149 0.715,1.5688 c 0.316,0.6928 1.134,0.9986 1.827,0.683 0.692,-0.316 0.998,-1.1338 0.683,-1.8266 l -0.715,-1.5684 1.568,-0.7146 c 0.693,-0.3159 0.999,-1.1337 0.683,-1.8265 -0.315,-0.6929 -1.133,-0.9987 -1.826,-0.683 z"
       fill="#2a2d49"
       id="path98" />
    <path
       d="m 113.073,46.9745 c -0.638,1.704 -2.535,2.5689 -4.239,1.9317 -0.974,-0.3641 -1.674,-1.1395 -1.975,-2.0556 1.245,-1.7573 2.989,-3.0566 4.954,-3.7735 1.247,0.8288 1.807,2.435 1.26,3.8974 z"
       fill="#83c65d"
       id="path100" />
    <path
       d="m 115.991,72.4804 -5.227,-1.9548 c -2.254,-0.8429 -4.765,0.301 -5.608,2.555 l -0.5,1.3386 13.389,5.0072 0.501,-1.3386 c 0.843,-2.2538 -0.301,-4.7645 -2.555,-5.6074 z"
       fill="#2a2d49"
       id="path102" />
    <path
       d="m 113.69,82.7529 c -0.892,-0.3335 -1.344,-1.3265 -1.011,-2.2181 l 1.022,-2.7329 3.229,1.2074 -1.022,2.733 c -0.333,0.8916 -1.326,1.3441 -2.218,1.0106 z"
       fill="#f96eb3"
       id="path104" />
    <path
       d="m 116.953,79.0176 -11.205,-4.1905 c 1.574,-1.429 4.205,-1.8649 6.73,-0.9204 0.574,0.2147 1.105,0.4869 1.586,0.8036 1.637,1.0777 2.696,2.6758 2.889,4.3073 z"
       fill="#d83a6f"
       id="path106" />
    <path
       d="m 116.953,79.0176 -7.896,-2.9528 c 1.217,-1.1046 3.065,-1.6153 5.007,-1.3545 1.637,1.0776 2.696,2.6758 2.889,4.3073 z"
       fill="#f96eb3"
       id="path108" />
    <path
       d="m 112.29,54.0688 c -0.408,1.0912 -1.624,1.645 -2.715,1.2369 -1.091,-0.408 -1.645,-1.6235 -1.237,-2.7146 0.408,-1.0911 1.624,-1.645 2.715,-1.2369 1.091,0.408 1.645,1.6235 1.237,2.7146 z"
       fill="#83c65d"
       id="path110" />
    <path
       d="m 117.451,50.8779 c -0.35,0.9353 -1.391,1.4097 -2.327,1.0599 -0.935,-0.3497 -1.41,-1.3914 -1.06,-2.3267 0.35,-0.9356 1.392,-1.41 2.327,-1.0603 0.935,0.3498 1.41,1.3915 1.06,2.3271 z"
       fill="#83c65d"
       id="path112" />
  </g>
  <path
     d="m 34.4657,57.336541 0.1171,-0.3216 c 0,0 -0.9099,-1.3342 -2.6835,-1.5728 -1.7737,-0.2387 -2.542,0.2951 -2.542,0.2951 0,0 -1.0847,-0.478 -2.0531,-0.0437 -0.8531,0.382 -1.4744,1.4505 -1.6315,3.1056 0,0 1.0983,-2.7132 2.7494,-2.4023 0,0 -0.5215,0.27 -0.6305,0.9628 -0.069,0.4399 0.2098,1.0717 0.9576,1.2334 0.6111,0.1326 1.2548,-0.3392 1.5158,-0.8641 0.261,-0.5249 0.0253,-1.2892 -0.3524,-1.5434 0,0 2.7633,-0.4139 4.5545,1.1515 z m -4.8851,0.2821 c -0.2167,0.6212 -0.9969,0.4252 -1.1649,-0.038 -0.1679,-0.4631 -0.0564,-0.8898 0.3686,-1.0135 0.4644,-0.1361 1.0385,0.359 0.7963,1.0515 z"
     fill="#364e00"
     id="path116" />
  <path
     d="m 34.5202,57.987841 c -0.478,-3.0268 -2.593,-4.2308 -2.593,-4.2308 0,0 1.8773,-1.4396 3.4174,-0.4171 1.5396,1.0216 1.8387,3.5149 1.8387,3.5149 z"
     fill="#364e00"
     id="path118" />
  <path
     d="m 37.0094,56.022841 c 0.132,0.4863 0.173,0.8324 0.173,0.8324 l -2.6631,1.133 c -0.472,-2.9891 -2.54,-4.2008 -2.5917,-4.2303 0.0557,0.0177 2.2639,0.7258 3.0303,3.4341 l 2.051,-1.1678 z"
     fill="#253600"
     id="path120" />
  <path
     d="m 57.8698,71.982641 c -0.7629,4.9081 -5.5159,6.287 -5.5159,6.287 -2.6073,3.8484 -6.6,2.8079 -6.6,2.8079 0,0 -2.0192,3.5982 -6.6,2.8079 0,0 -4.2886,2.4677 -8.3548,-0.3859 -4.2597,-2.9905 -7.8936,-12.5073 -5.7503,-19.7653 0.2103,-0.7124 1.1016,-2.9315 4.8203,-2.7901 0,0 0.8935,-3.6572 5.8405,-3.4757 3.2986,-3.6906 6.5536,-1.7972 6.5536,-1.7972 2.4775,-2.7787 4.6944,-1.882 5.3539,-1.5385 6.7155,3.4892 11.0521,12.707 10.2527,17.8499 z"
     fill="#ff7000"
     id="path122" />
  <path
     d="m 56.6734,64.806541 c -14.8087,7.0664 -26.1496,5.1692 -32.2495,2.993 0.0433,-1.3941 0.2415,-2.7658 0.6258,-4.0657 0.2103,-0.7124 1.1016,-2.9315 4.8203,-2.7901 0,0 0.8935,-3.6572 5.8406,-3.4757 3.2985,-3.6906 6.5535,-1.7972 6.5535,-1.7972 2.4775,-2.7787 4.6944,-1.882 5.3539,-1.5385 4.1353,2.1486 7.3684,6.4696 9.0564,10.6738 z"
     fill="#ff8d0a"
     id="path124" />
  <path
     d="m 42.2632,55.671241 c 0,0 10.2607,10.3 10.0907,22.5984 0,0 3.0945,-13.4665 -10.0907,-22.5984 z"
     fill="#f25005"
     id="path126" />
  <path
     d="m 29.87,60.943841 c 0,0 0.3053,14.5355 9.2839,22.9417 0,0 -11.8482,-7.1093 -9.2839,-22.9417 z"
     fill="#f25005"
     id="path128" />
  <path
     d="m 45.7539,81.077541 c -6.4449,-11.7993 -10.0443,-23.6091 -10.0443,-23.6091 0,0 6.0121,10.7822 10.0443,23.6091 z"
     fill="#f25005"
     id="path130" />
  <path
     d="m 54.4047,60.514941 c -2.6291,-3.0355 -5.4264,-4.6706 -7.6297,-5.1437 -2.6207,-0.5627 -4.5128,0.3004 -4.5128,0.3004 2.4775,-2.7787 4.6944,-1.882 5.3539,-1.5385 2.7108,1.4081 5.0348,3.7502 6.7886,6.3818 z"
     fill="#fcb117"
     id="path132" />
  <path
     d="m 24.939,73.050841 c -0.3638,-3.9992 0.398,-7.1486 1.5851,-9.064 1.4119,-2.2784 3.3459,-3.0431 3.3459,-3.0431 -3.72,-0.142 -4.6114,2.0771 -4.8212,2.7905 -0.8654,2.9295 -0.7897,6.2281 -0.1098,9.3166 z"
     fill="#fcb117"
     id="path134" />
  <path
     opacity="0.5"
     d="m 57.6875,72.839741 c -1.1418,4.2147 -5.3345,5.4303 -5.3345,5.4303 -2.6073,3.8484 -6.6,2.8079 -6.6,2.8079 0,0 -2.0193,3.5982 -6.6001,2.8079 0,0 -4.2886,2.4677 -8.3547,-0.3859 -0.729,-0.5119 -1.4397,-1.2151 -2.1064,-2.0644 2.8784,2.1151 5.549,2.1142 7.5786,-0.3263 0,0 5.0025,2.7225 8.4011,-2.5732 0,0 4.0004,2.2363 7.7823,-2.9183 0,0 3.2455,0.1046 5.2327,-2.7776 z"
     fill="#ce3000"
     id="path136" />
  <path
     d="m 41.1651,70.291541 -2.2454,0.9553 0.2898,-2.4341 0.2908,-2.4344 1.9547,1.4791 1.9546,1.4792 z"
     fill="#5b1500"
     id="path138" />
  <path
     d="m 48.8473,61.238541 c 0.3328,1.2397 0.2211,2.4705 -0.2271,3.4464 -0.8098,-0.1498 -1.6937,-0.1216 -2.5799,0.1167 -0.8853,0.2379 -1.6655,0.6571 -2.291,1.1928 -0.8777,-0.6198 -1.5918,-1.628 -1.9247,-2.8677 -0.6507,-2.4209 0.3932,-4.8044 2.3334,-5.3257 1.9393,-0.5208 4.0379,1.0179 4.6897,3.4384 z"
     fill="#5b1500"
     id="path140" />
  <path
     d="m 29.3152,69.548241 c 0.6624,1.0995 1.6266,1.8726 2.6406,2.2264 0.4535,-0.6874 1.0868,-1.3046 1.8731,-1.7778 0.7854,-0.4729 1.6284,-0.7443 2.4481,-0.8235 0.1622,-1.0621 -0.069,-2.2758 -0.7313,-3.3753 -1.2929,-2.1477 -3.7342,-3.0485 -5.4552,-2.0121 -1.7201,1.036 -2.0669,3.6151 -0.7749,5.7632 z"
     fill="#5b1500"
     id="path142" />
  <path
     d="m 51.5084,67.354041 c 0.0188,0.1206 1.1582,7.7806 -6.8359,11.1816 -7.9941,3.401 -12.7228,-2.7319 -12.7966,-2.8292 1.757,0.21 3.5044,0.0638 5.1158,-0.2526 l 3.0312,2.4505 0.4664,-3.499 c 1.1579,-0.3674 1.4655,-0.4725 2.1086,-0.7461 0.643,-0.2736 0.933,-0.4227 2.0007,-1.0022 l 2.8445,2.0905 0.3365,-3.8834 c 1.3454,-0.9414 2.6616,-2.0987 3.7297,-3.5105 z"
     fill="#5b1500"
     id="path144" />
  <path
     d="m 14.5653,67.354341 c 1.7957,-0.6219 2.5693,-0.3571 4.4989,-1.0875 3.16,-1.1956 4.5623,-3.4464 5.3966,-5.9757 0.3878,-1.176 -0.1601,-2.6531 -0.4974,-3.7902 -1.0354,-3.4932 -6.5177,-8.5136 -8.5129,-7.969 -2.7217,0.7429 -3.0309,7.422 -2.8539,8.4059 0.177,0.9839 1.7651,1.8327 2.4982,0.238 0.7339,-1.5952 -0.4937,-3.8288 0.0409,-4.2732 0.5345,-0.4444 3.8676,3.1494 3.5719,6.2112 -0.2957,3.0618 -4.8076,4.053 -7.4643,3.5291 -2.65775,-0.5213 -3.41235,-2.2135 -4.06155,-3.7526 -2.38701,-5.6606 -0.52231,-16.0762 3.79615,-18.9916 3.6704,-2.4776 12.5259,1.6592 14.8496,2.4915 2.3237,0.8322 11.5526,5.8045 12.9687,5.6706 3.4815,-0.3291 1.808,-9.4183 5.0358,-10.8776 2.8202,-1.2737 6.2431,2.9072 4.5632,10.2499 -1.658,7.2473 -6.1038,10.7729 -11.8477,15.0016 -4.5446,3.3461 -5.9465,8.4768 -15.7719,10.0184 -9.8253,1.5416 -8.683,-4.2414 -6.2112,-5.0984 z"
     fill="#40286a"
     id="path146" />
  <path
     d="m 24.4612,60.292141 c 0.3891,-1.1755 -0.1601,-2.6531 -0.4974,-3.7903 -1.0354,-3.4932 -6.5177,-8.5136 -8.5129,-7.969 -2.7217,0.743 -3.0309,7.422 -2.8544,8.4073 0.177,0.9839 1.7651,1.8327 2.4981,0.238 0.7344,-1.5942 -0.4927,-3.8292 0.0409,-4.2732 0,0 2.1337,4.2685 -0.6904,5.8514 -1.9762,1.107 -3.3468,-1.0972 -3.711,-3.0863 -0.213,-1.1711 -0.7131,-9.0135 5.4589,-9.3599 5.3465,-0.2994 12.9301,6.253 11.2519,13.4631 l -2.9842,0.5202 z"
     fill="#2b1857"
     id="path148" />
  <path
     d="m 38.5088,48.039941 c -1.9956,9.0485 -10.6598,12.4595 -14.5443,13.5506 0.1878,-0.421 0.3506,-0.856 0.4967,-1.2984 0.297,-0.9004 0.0456,-1.9778 -0.241,-2.9431 6.9441,-3.4084 9.6763,-8.5592 10.5677,-10.7571 1.6316,0.7487 3.0268,1.3284 3.7209,1.448 z"
     fill="#fb8e22"
     id="path150" />
  <path
     d="m 32.6411,49.062141 c -0.9655,2.3312 -3.118,3.9415 -3.118,3.9415 l 4.7868,3.3355 c 2.539,-1.0802 3.1777,-4.2006 3.1777,-4.2006 l -4.8456,-3.0768 z m 1.65,6.2918 -3.5463,-2.4652 c 0,0 1.4512,-0.9451 2.211,-2.7794 l 3.5389,2.2928 c 0,0 -0.6644,2.1292 -2.2032,2.9528 z"
     fill="#fbedd4"
     id="path152" />
  <defs
     id="defs157">
    <clipPath
       id="clip0_557_246">
      <rect
         width="42.1795"
         height="42.1795"
         fill="white"
         transform="translate(103.619 37.3335) rotate(20.5043)"
         id="rect154" />
    </clipPath>
  </defs>
</svg>
