<svg width="24" height="24" viewBox="0 0 24 24" fill="none" xmlns="http://www.w3.org/2000/svg">
<path d="M14.2425 0.930008C14.22 1.37251 14.1075 2.52001 13.56 3.09001C13.423 3.02971 13.2747 2.99904 13.125 3.00001H10.875C10.7253 2.99904 10.577 3.02971 10.44 3.09001C9.8925 2.52001 9.78 1.37251 9.7575 0.930008C9.75335 0.870552 9.76343 0.810965 9.78691 0.756184C9.81039 0.701403 9.84658 0.653007 9.8925 0.615008C10.1287 0.416258 10.6012 0.135008 10.875 0.750008C11.0625 1.17001 11.3437 1.17001 11.58 1.06501C11.7127 1.00568 11.8565 0.975018 12.0019 0.975018C12.1473 0.975018 12.291 1.00568 12.4237 1.06501C12.6562 1.17001 12.9375 1.17001 13.125 0.750008C13.3987 0.135008 13.8712 0.416258 14.1075 0.615008C14.1534 0.653007 14.1896 0.701403 14.2131 0.756184C14.2366 0.810965 14.2466 0.870552 14.2425 0.930008Z" fill="#f4b834"/>
<path d="M13.125 3.375H10.875C10.4608 3.375 10.125 3.71079 10.125 4.125C10.125 4.53921 10.4608 4.875 10.875 4.875H13.125C13.5392 4.875 13.875 4.53921 13.875 4.125C13.875 3.71079 13.5392 3.375 13.125 3.375Z" fill="#f4b834"/>
<path d="M13.4662 5.19376C13.3565 5.23153 13.2411 5.25055 13.125 5.25001H10.875C10.7589 5.25055 10.6435 5.23153 10.5338 5.19376C8.8275 6.42001 3 10.9688 3 16.125C3 22.1663 7.00125 23.625 12 23.625C16.9987 23.625 21 22.1663 21 16.125C21 10.9688 15.1725 6.42001 13.4662 5.19376ZM9.48 18.69C9.41193 18.7303 9.33409 18.751 9.255 18.75C9.18312 18.7502 9.11224 18.7332 9.0482 18.7006C8.98415 18.668 8.92879 18.6206 8.88666 18.5623C8.84454 18.5041 8.81687 18.4367 8.80593 18.3656C8.79499 18.2946 8.8011 18.222 8.82375 18.1538L9.75 15.375L7.35375 14.0063C7.28441 13.9665 7.22676 13.9092 7.18661 13.84C7.14645 13.7709 7.1252 13.6924 7.125 13.6125V13.53C7.12536 13.4183 7.16686 13.3107 7.24157 13.2277C7.31629 13.1447 7.41897 13.0921 7.53 13.08L10.5 12.75L11.5162 10.0463C11.5473 9.95894 11.6048 9.88347 11.6808 9.83037C11.7567 9.77727 11.8473 9.74918 11.94 9.75001H12.06C12.1527 9.74918 12.2433 9.77727 12.3192 9.83037C12.3952 9.88347 12.4527 9.95894 12.4838 10.0463L13.5 12.75L16.47 13.08C16.581 13.0921 16.6837 13.1447 16.7584 13.2277C16.8331 13.3107 16.8746 13.4183 16.875 13.53V13.6125C16.8748 13.6924 16.8535 13.7709 16.8134 13.84C16.7732 13.9092 16.7156 13.9665 16.6462 14.0063L14.25 15.375L15.1763 18.1538C15.1989 18.222 15.205 18.2946 15.1941 18.3656C15.1831 18.4367 15.1555 18.5041 15.1133 18.5623C15.0712 18.6206 15.0158 18.668 14.9518 18.7006C14.8878 18.7332 14.8169 18.7502 14.745 18.75C14.6659 18.751 14.5881 18.7303 14.52 18.69L12 17.25L9.48 18.69ZM12.75 22.125C12.6505 22.125 12.5552 22.0855 12.4848 22.0152C12.4145 21.9448 12.375 21.8495 12.375 21.75C12.375 21.6506 12.4145 21.5552 12.4848 21.4848C12.5552 21.4145 12.6505 21.375 12.75 21.375C16.8488 21.375 18.375 20.1563 18.375 16.8863C18.375 16.7868 18.4145 16.6914 18.4848 16.6211C18.5552 16.5508 18.6505 16.5113 18.75 16.5113C18.8495 16.5113 18.9448 16.5508 19.0152 16.6211C19.0855 16.6914 19.125 16.7868 19.125 16.8863C19.125 20.6063 17.28 22.125 12.75 22.125Z" fill="#f4b834"/>
<path d="M5.625 5.625C5.52554 5.625 5.43016 5.58549 5.35984 5.51516C5.28951 5.44484 5.25 5.34946 5.25 5.25V3.75C5.25 3.65054 5.28951 3.55516 5.35984 3.48484C5.43016 3.41451 5.52554 3.375 5.625 3.375C5.72446 3.375 5.81984 3.41451 5.89016 3.48484C5.96049 3.55516 6 3.65054 6 3.75V5.25C6 5.34946 5.96049 5.44484 5.89016 5.51516C5.81984 5.58549 5.72446 5.625 5.625 5.625Z" fill="#f4b834"/>
<path d="M6.375 4.875H4.875C4.77554 4.875 4.68016 4.83549 4.60984 4.76516C4.53951 4.69484 4.5 4.59946 4.5 4.5C4.5 4.40054 4.53951 4.30516 4.60984 4.23484C4.68016 4.16451 4.77554 4.125 4.875 4.125H6.375C6.47446 4.125 6.56984 4.16451 6.64017 4.23484C6.71049 4.30516 6.75 4.40054 6.75 4.5C6.75 4.59946 6.71049 4.69484 6.64017 4.76516C6.56984 4.83549 6.47446 4.875 6.375 4.875Z" fill="#f4b834"/>
<path d="M17.25 2.625C17.1505 2.625 17.0552 2.58549 16.9848 2.51516C16.9145 2.44484 16.875 2.34946 16.875 2.25V0.75C16.875 0.650544 16.9145 0.555161 16.9848 0.484835C17.0552 0.414509 17.1505 0.375 17.25 0.375C17.3495 0.375 17.4448 0.414509 17.5152 0.484835C17.5855 0.555161 17.625 0.650544 17.625 0.75V2.25C17.625 2.34946 17.5855 2.44484 17.5152 2.51516C17.4448 2.58549 17.3495 2.625 17.25 2.625Z" fill="#f4b834"/>
<path d="M18 1.875H16.5C16.4005 1.875 16.3052 1.83549 16.2348 1.76516C16.1645 1.69484 16.125 1.59946 16.125 1.5C16.125 1.40054 16.1645 1.30516 16.2348 1.23483C16.3052 1.16451 16.4005 1.125 16.5 1.125H18C18.0995 1.125 18.1948 1.16451 18.2652 1.23483C18.3355 1.30516 18.375 1.40054 18.375 1.5C18.375 1.59946 18.3355 1.69484 18.2652 1.76516C18.1948 1.83549 18.0995 1.875 18 1.875Z" fill="#f4b834"/>
<path d="M19.875 9C19.7755 9 19.6802 8.96049 19.6098 8.89017C19.5395 8.81984 19.5 8.72446 19.5 8.625V6.375C19.5 6.27554 19.5395 6.18016 19.6098 6.10983C19.6802 6.03951 19.7755 6 19.875 6C19.9745 6 20.0698 6.03951 20.1402 6.10983C20.2105 6.18016 20.25 6.27554 20.25 6.375V8.625C20.25 8.72446 20.2105 8.81984 20.1402 8.89017C20.0698 8.96049 19.9745 9 19.875 9Z" fill="#f4b834"/>
<path d="M21 7.875H18.75C18.6505 7.875 18.5552 7.83549 18.4848 7.76517C18.4145 7.69484 18.375 7.59946 18.375 7.5C18.375 7.40054 18.4145 7.30516 18.4848 7.23483C18.5552 7.16451 18.6505 7.125 18.75 7.125H21C21.0995 7.125 21.1948 7.16451 21.2652 7.23483C21.3355 7.30516 21.375 7.40054 21.375 7.5C21.375 7.59946 21.3355 7.69484 21.2652 7.76517C21.1948 7.83549 21.0995 7.875 21 7.875Z" fill="#f4b834"/>
</svg>
