<svg width="70" height="70" viewBox="0 0 70 70" fill="none" xmlns="http://www.w3.org/2000/svg">
    <path d="M30.9053 42.8465L8.27398 29.7928C7.10989 29.121 6.52772 28.2388 6.52772 27.3565L6.50763 50.0053C6.50763 50.8876 7.0898 51.7699 8.25389 52.4517L30.8852 65.4954C32.0194 66.1526 33.4974 66.4833 34.98 66.4975L35.0102 43.8453C33.5258 43.8331 32.0457 43.5045 30.9053 42.8465Z" fill="#D9E6FF"/>
    <path d="M35 52.6343L34.9787 66.5015C33.4991 66.4803 32.0193 66.1506 30.8805 65.4912L8.24853 52.4535C7.08838 51.7729 6.50284 50.8902 6.50284 50.0075L6.52415 27.3562C6.52415 28.2388 7.10969 29.1215 8.26984 29.7915L12.3257 32.131C11.3571 34.1941 10.8142 36.4912 10.8142 38.9264C10.8142 47.7424 17.9677 54.8887 26.8033 54.8887C29.7946 54.8887 32.6048 54.0592 35 52.6343Z" fill="#B3CCFF"/>
    <path d="M61.7662 29.7928L39.2855 42.8466C38.1077 43.527 36.5567 43.8581 35.0102 43.8454L34.98 66.4975C36.5281 66.5123 38.0813 66.1816 39.2554 65.4954L61.7361 52.4517C62.8901 51.78 63.4622 50.9077 63.4622 50.0354L63.4924 27.3866C63.4924 28.2588 62.9102 29.1311 61.7662 29.7928Z" fill="#8CB3FF"/>
    <path d="M63.4972 27.3881L63.4652 50.0394C63.4652 50.9115 62.8903 51.7835 61.7406 52.4535L39.2581 65.4912C38.0763 66.1825 36.5328 66.5122 34.9787 66.5015L35 54.1124C36.32 54.5804 37.7465 54.8249 39.2261 54.8249C46.3583 54.8249 52.1599 49.0291 52.1599 41.8935C52.1599 39.8304 51.6809 37.8843 50.8079 36.1509L61.7619 29.7915C62.9116 29.1322 63.4972 28.2601 63.4972 27.3881Z" fill="#6699FF"/>
    <path d="M64.5074 19.0047C67.0741 20.4851 67.0805 22.879 64.5305 24.3594L39.7263 38.7595C37.1833 40.2358 33.0464 40.2399 30.4797 38.7595L5.5133 24.3597C2.95367 22.8834 2.94016 20.4855 5.4831 19.0091L30.2874 4.60904C32.8373 3.12865 36.9814 3.12863 39.541 4.60494L64.5074 19.0047Z" fill="#F0F5FC"/>
    <path d="M64.5297 24.3572L39.7264 38.7563C37.1823 40.2344 33.0412 40.2451 30.4758 38.7563L5.51291 24.3572C2.95791 22.8791 2.93686 20.4863 5.48094 19.0081L20.267 10.4261C20.8845 17.7426 27.9634 23.5171 36.5861 23.5171C44.5167 23.5171 51.138 18.6359 52.6391 12.1596L64.5084 19.0081C67.0741 20.4863 67.0844 22.8791 64.5297 24.3572Z" fill="#E1EBFA"/>
    <path d="M30.4817 38.7592L5.5087 24.3548C4.22416 23.6135 3.58176 22.64 3.58176 21.6664L3.55959 30.683C3.55959 31.6566 4.20199 32.6301 5.48653 33.3824L30.4595 47.7758C31.7111 48.501 33.3419 48.8659 34.978 48.8816L35.0112 39.8613C33.3733 39.8478 31.74 39.4852 30.4817 38.7592Z" fill="#D2E1F7"/>
    <path d="M35.0107 39.8623L34.9787 48.8803C33.3393 48.8697 31.7105 48.4974 30.4545 47.7743L5.4916 33.386C4.20357 32.6309 3.56476 31.6525 3.56476 30.6848L3.58607 21.6668C3.58607 22.6451 4.22488 23.6129 5.51291 24.3573L10.7183 27.3562C10.4522 28.0368 10.3032 28.7599 10.3032 29.515C10.3032 33.8326 15.1042 37.3313 21.0227 37.3313C22.9283 37.3313 24.7169 36.9697 26.2604 36.321L30.4865 38.7563C31.7425 39.4901 33.3713 39.8516 35.0107 39.8623Z" fill="#F0F5FC"/>
    <path d="M64.5356 24.3547L39.729 38.7592C38.4293 39.51 36.7178 39.8753 35.0112 39.8613L34.978 48.8816C36.6862 48.8979 38.4001 48.533 39.6957 47.7758L64.5024 33.3824C65.7758 32.6412 66.4072 31.6786 66.4072 30.7161L66.4404 21.6996C66.4404 22.6621 65.798 23.6246 64.5356 24.3547Z" fill="#D2E1F7"/>
    <path d="M55.6311 55.9937L48.8076 59.9497L48.7437 37.3516L48.733 33.5338L55.5565 29.5671L55.5674 33.3955L55.6311 55.9937Z" fill="#FF408C"/>
    <path d="M55.5565 29.5672L48.733 33.5338L34.9582 25.5899L28.1348 21.6551L14.4769 13.7856L21.2897 9.82965L34.9476 17.7204H34.9582L41.7817 21.6551L55.5565 29.5672Z" fill="#FF80B3"/>
    <path d="M21.2897 33.4573L21.2791 37.2983L21.2154 59.9285L14.3917 55.9937L14.4556 33.3636L14.4769 29.5246L21.2897 33.4573Z" fill="#FF408C"/>
    <path d="M55.4396 13.775L41.7817 21.6551L34.9582 25.5899L21.3004 33.4593L14.4769 29.5246L28.1348 21.6551L34.9476 17.7204H34.9582L48.6161 9.84027L55.4396 13.775Z" fill="#FF80B3"/>
    <path d="M48.7056 8.71117C47.7263 8.14752 46.3744 8.22197 44.8842 9.08335C41.9248 10.7955 36.4743 20.324 36.485 23.727C36.485 24.2799 36.6341 24.6309 36.879 24.833L30.2364 20.9833C29.917 20.8025 29.7361 20.4303 29.7361 19.8029C29.7254 16.4105 35.1756 6.87137 38.135 5.15924C39.6252 4.29786 40.9772 4.22341 41.9567 4.78706L48.7056 8.71117Z" fill="#FF408C"/>
    <path d="M44.8882 9.08289C47.8516 7.37371 50.2586 8.74401 50.2683 12.1456C50.2779 15.5395 47.8865 19.6851 44.9232 21.3943C43.9174 21.9744 42.624 22.8212 41.3533 23.5541C38.8806 24.9803 36.4947 25.9744 36.4883 23.7273C36.4787 20.3257 41.9249 10.7921 44.8882 9.08289Z" fill="#FF0066"/>
    <path d="M33.3447 19.335C31.6096 18.3247 29.5019 17.9525 28.0328 18.8033C25.0734 20.5154 22.6782 24.6522 22.6889 28.0552C22.6889 29.7354 23.285 30.9265 24.2537 31.4901L17.5048 27.566C16.5359 27.013 15.9397 25.822 15.9397 24.1311C15.9293 20.7281 18.3136 16.5913 21.2836 14.8898C22.7528 14.039 24.8499 14.4112 26.5958 15.4215L33.3447 19.335Z" fill="#FF408C"/>
    <path d="M28.0327 18.8047C30.9892 17.0994 36.4786 20.3257 36.4883 23.7273C36.4947 25.9744 34.108 27.733 31.6351 29.1593C30.3644 29.8922 29.0711 30.5373 28.0676 31.1161C25.1044 32.8251 22.6974 31.447 22.6878 28.0532C22.6781 24.6516 25.0695 20.5137 28.0327 18.8047Z" fill="#FF0066"/>
</svg>
