<svg
        width="23"
        height="23"
        viewBox="0 0 23 23"
        fill="none"
        xmlns="http://www.w3.org/2000/svg"
        xmlns:svg="http://www.w3.org/2000/svg">
    <defs
            id="defs8" />
    <path
            fill-rule="evenodd"
            clip-rule="evenodd"
            d="M 8.2203929,2.5574382 C 7.0890243,2.7141716 6.1460533,3.579343 5.8461667,4.735773 c -0.1557444,0.6006861 -0.025857,1.4487873 0.30133,1.9672747 0.076433,0.1211015 0.176218,0.2870905 0.2217921,0.36886 l 0.082792,0.1486598 -1.0658672,-0.00531 c -0.5862437,-0.00293 -0.9896062,0.0079 -0.8963437,0.024125 l 0.1695703,0.029431 -0.265509,0.034534 C 3.921509,7.3647253 3.4577791,7.7458586 3.3281885,8.1792293 c -0.06787,0.2269884 -0.072236,2.7593077 -0.00517,3.0088297 0.057441,0.213708 0.3292237,0.527132 0.5589898,0.644559 0.08745,0.04471 0.2886042,0.100027 0.4470248,0.122966 0.1670658,0.02427 1.5756393,0.04213 3.354805,0.0426 l 3.0668169,8.59e-4 -0.01459,-2.3361584 -0.01451,-2.3361269 h 0.79382 0.793898 l -10e-4,2.3255078 -9.36e-4,2.3254765 h 3.255644 3.255566 l 0.221511,-0.100339 c 0.231342,-0.104787 0.529161,-0.390434 0.6153,-0.590176 0.06874,-0.159482 0.09792,-2.6674421 0.03496,-3.0099612 C 19.635831,7.9805715 19.483761,7.7503997 19.197334,7.5307221 18.885314,7.2914995 18.707653,7.263044 17.525506,7.263044 c -0.571216,0 -0.990909,-0.00718 -0.932625,-0.015933 0.08575,-0.012866 0.09184,-0.021067 0.03207,-0.042937 -0.06507,-0.02379 -0.05555,-0.052542 0.0788,-0.2389261 0.520578,-0.7222012 0.655482,-1.6235228 0.37163,-2.4838973 C 16.82266,3.715136 16.160779,3.0022369 15.45739,2.7385513 c -0.814808,-0.305438 -1.891934,-0.2772347 -2.588692,0.067833 -0.451995,0.2238011 -0.94269,0.7236079 -1.17216,1.193806 -0.09324,0.1911362 -0.181796,0.3488078 -0.196699,0.3504229 -0.01498,0.00157 -0.05914,-0.076971 -0.09808,-0.1745794 C 11.294092,3.9064054 10.92293,3.3926229 10.682147,3.1798685 10.405004,2.9350843 9.8692034,2.6697851 9.4921664,2.5907387 9.219206,2.5335248 8.5242666,2.515303 8.2203929,2.5574382 Z M 8.5536427,4.1390818 C 8.0855903,4.2123077 7.6213922,4.593441 7.4995104,5.0045591 7.3321872,5.5690496 7.4653045,6.2315309 7.8253401,6.6262171 8.2522737,7.0942929 8.7292755,7.2155974 10.043268,7.1903253 l 0.635914,-0.012234 -0.01131,-0.6583616 C 10.654214,5.7259956 10.601626,5.2980165 10.491065,5.0807967 10.368645,4.8404739 9.8093899,4.2834113 9.7501226,4.3428346 c -0.013646,0.013639 -0.024796,0.00306 -0.024796,-0.023532 0,-0.1216478 -0.7795958,-0.2415088 -1.1716839,-0.1802208 z m 5.2085933,0.00281 c -0.331838,0.0485 -0.643779,0.2212068 -0.916318,0.5075328 -0.427651,0.4492173 -0.530878,0.82066 -0.533374,1.9188527 -0.0011,0.4900397 0.009,0.5834817 0.06577,0.6052739 0.03691,0.014185 0.444037,0.025779 0.90477,0.025779 0.721804,0 0.87122,-0.011509 1.079389,-0.083291 0.384192,-0.1324385 0.657589,-0.3015719 0.85741,-0.5304719 0.2567,-0.2940113 0.333554,-0.540498 0.331759,-1.0640024 C 15.54993,5.0239637 15.474012,4.8074696 15.203033,4.5276899 14.999702,4.31782 14.758529,4.20424 14.388225,4.144052 c -0.30211,-0.04914 -0.304451,-0.04914 -0.625989,-0.00216 z m -4.3249286,3.131389 c 0.156392,0.00811 0.4234616,0.00819 0.5934996,8.58e-5 0.170078,-0.00808 0.05079,0.00605 -0.2756284,0.00601 -0.3264226,-8.79e-5 -0.4742085,-0.014249 -0.3178712,-0.0061 z M 6.6836722,13.00782 4.4262797,13.019212 v 2.779617 c 0,1.859164 0.015472,2.854131 0.046674,3.004718 0.1210703,0.583466 0.553216,1.180742 1.0194504,1.408729 0.4065849,0.198806 0.5204927,0.207545 2.9505531,0.226895 l 2.2998148,0.01826 -4.68e-4,-3.581474 c -3.12e-4,-1.969802 -0.01233,-3.653099 -0.02676,-3.740721 l -0.02629,-0.159325 -0.8740913,0.0103 c -0.4807314,0.0056 -1.8898979,0.01537 -3.1314837,0.02161 z m 5.5994558,1.189013 c 0.01545,0.648461 0.02801,2.32575 0.02801,3.727458 l 7.8e-5,2.548509 2.278623,-0.0245 c 2.571761,-0.02754 2.618653,-0.03277 3.097333,-0.345258 0.321382,-0.209729 0.511995,-0.433269 0.684429,-0.80248 0.195997,-0.419693 0.217766,-0.814496 0.204346,-3.712398 l -0.01178,-2.54851 -3.154524,-0.01084 -3.154446,-0.01092 z"
            fill="#6c757d"
            id="path2"
            style="stroke-width:0.780243" />
</svg>